CalistogaAD-Regular 2.ufo
<glyph name="exclam" format="1">
  <advance width="258"/>
  <unicode hex="0021"/>
  <outline>
    <contour>
      <point x="230" y="86" type="curve" name="hr00" smooth="yes"/>
      <point x="230" y="146"/>
      <point x="190" y="185"/>
      <point x="128" y="185" type="curve" smooth="yes"/>
      <point x="68" y="185"/>
      <point x="28" y="146"/>
      <point x="28" y="86" type="curve" smooth="yes"/>
      <point x="28" y="27"/>
      <point x="68" y="-13"/>
      <point x="128" y="-13" type="curve" smooth="yes"/>
      <point x="190" y="-13"/>
      <point x="230" y="27"/>
    </contour>
    <contour>
      <point x="169" y="308" type="line"/>
      <point x="219" y="699" type="line" smooth="yes"/>
      <point x="220" y="707"/>
      <point x="221" y="714"/>
      <point x="221" y="720" type="curve" smooth="yes"/>
      <point x="221" y="768"/>
      <point x="195" y="788"/>
      <point x="150" y="788" type="curve" smooth="yes"/>
      <point x="107" y="788" type="line" smooth="yes"/>
      <point x="62" y="788"/>
      <point x="37" y="768"/>
      <point x="37" y="720" type="curve" smooth="yes"/>
      <point x="37" y="714"/>
      <point x="37" y="707"/>
      <point x="38" y="699" type="curve" smooth="yes"/>
      <point x="87" y="308" type="line"/>
    </contour>
  </outline>
</glyph>
<glyph name="dollar" format="1">
  <advance width="593"/>
  <unicode hex="0024"/>
  <outline>
    <contour>
      <point x="355" y="409" type="curve" smooth="yes"/>
      <point x="296" y="436"/>
      <point x="221" y="473"/>
      <point x="221" y="533" type="curve" smooth="yes"/>
      <point x="221" y="577"/>
      <point x="248" y="604"/>
      <point x="310" y="604" type="curve" name="hr02" smooth="yes"/>
      <point x="369" y="604"/>
      <point x="420" y="562"/>
      <point x="448" y="473" type="curve"/>
      <point x="536" y="473" type="line"/>
      <point x="536" y="489" type="line" smooth="yes"/>
      <point x="536" y="548"/>
      <point x="535" y="639"/>
      <point x="507" y="683" type="curve" name="hr03"/>
      <point x="402" y="659" type="line"/>
      <point x="385" y="667"/>
      <point x="364" y="673"/>
      <point x="342" y="677" type="curve"/>
      <point x="342" y="792" type="line"/>
      <point x="330" y="798"/>
      <point x="313" y="801"/>
      <point x="297" y="801" type="curve" smooth="yes"/>
      <point x="287" y="801"/>
      <point x="277" y="800"/>
      <point x="269" y="796" type="curve"/>
      <point x="269" y="683" type="line"/>
      <point x="161" y="680"/>
      <point x="80" y="620"/>
      <point x="80" y="505" type="curve" smooth="yes"/>
      <point x="80" y="404"/>
      <point x="145" y="355"/>
      <point x="257" y="302" type="curve" smooth="yes"/>
      <point x="325" y="270"/>
      <point x="411" y="217"/>
      <point x="411" y="157" type="curve" smooth="yes"/>
      <point x="411" y="127"/>
      <point x="395" y="95"/>
      <point x="326" y="95" type="curve" smooth="yes"/>
      <point x="245" y="95"/>
      <point x="182" y="154"/>
      <point x="153" y="244" type="curve"/>
      <point x="49" y="244" type="line" name="hr01"/>
      <point x="49" y="171"/>
      <point x="71" y="64"/>
      <point x="96" y="16" type="curve"/>
      <point x="172" y="48" type="line"/>
      <point x="201" y="37"/>
      <point x="231" y="29"/>
      <point x="259" y="23" type="curve"/>
      <point x="259" y="-109" type="line"/>
      <point x="270" y="-114"/>
      <point x="288" y="-117"/>
      <point x="304" y="-117" type="curve" smooth="yes"/>
      <point x="315" y="-117"/>
      <point x="325" y="-116"/>
      <point x="333" y="-112" type="curve"/>
      <point x="333" y="16" type="line"/>
      <point x="336" y="16" type="line" smooth="yes"/>
      <point x="473" y="16"/>
      <point x="544" y="93"/>
      <point x="544" y="200" type="curve" smooth="yes"/>
      <point x="544" y="318"/>
      <point x="443" y="368"/>
    </contour>
  </outline>
</glyph>
<glyph name="comma" format="1">
  <advance width="259"/>
  <unicode hex="002C"/>
  <outline>
    <contour>
      <point x="68" y="-218" type="curve" name="hr00"/>
      <point x="156" y="-194"/>
      <point x="244" y="-98"/>
      <point x="244" y="32" type="curve" smooth="yes"/>
      <point x="244" y="130"/>
      <point x="193" y="179"/>
      <point x="127" y="179" type="curve" smooth="yes"/>
      <point x="69" y="179"/>
      <point x="28" y="140"/>
      <point x="28" y="80" type="curve" smooth="yes"/>
      <point x="28" y="32"/>
      <point x="60" y="-13"/>
      <point x="121" y="-13" type="curve" smooth="yes"/>
      <point x="126" y="-13"/>
      <point x="131" y="-12"/>
      <point x="136" y="-11" type="curve"/>
      <point x="137" y="-16"/>
      <point x="138" y="-20"/>
      <point x="138" y="-24" type="curve" smooth="yes"/>
      <point x="138" y="-79"/>
      <point x="97" y="-137"/>
      <point x="36" y="-171" type="curve"/>
      <point x="36" y="-192"/>
      <point x="52" y="-213"/>
    </contour>
  </outline>
</glyph>
<glyph name="two" format="1">
  <advance width="585"/>
  <unicode hex="0032"/>
  <outline>
    <contour>
      <point x="66" y="-11" type="line" name="hr01"/>
      <point x="123" y="33" type="line"/>
      <point x="152" y="235"/>
      <point x="529" y="257"/>
      <point x="529" y="508" type="curve" smooth="yes"/>
      <point x="529" y="644"/>
      <point x="419" y="709"/>
      <point x="282" y="709" type="curve" smooth="yes"/>
      <point x="130" y="709"/>
      <point x="30" y="629"/>
      <point x="30" y="538" type="curve" smooth="yes"/>
      <point x="30" y="473"/>
      <point x="75" y="437"/>
      <point x="125" y="437" type="curve" smooth="yes"/>
      <point x="173" y="437"/>
      <point x="219" y="469"/>
      <point x="219" y="518" type="curve" smooth="yes"/>
      <point x="219" y="550"/>
      <point x="196" y="585"/>
      <point x="161" y="595" type="curve"/>
      <point x="183" y="625"/>
      <point x="212" y="639"/>
      <point x="251" y="639" type="curve" smooth="yes"/>
      <point x="307" y="639"/>
      <point x="351" y="605"/>
      <point x="351" y="525" type="curve" smooth="yes"/>
      <point x="351" y="327"/>
      <point x="78" y="249"/>
      <point x="34" y="14" type="curve"/>
    </contour>
    <contour>
      <point x="67" y="-11" type="line"/>
      <point x="103" y="4"/>
      <point x="147" y="10"/>
      <point x="190" y="10" type="curve" smooth="yes"/>
      <point x="269" y="10"/>
      <point x="313" y="-10"/>
      <point x="383" y="-10" type="curve" name="hr02" smooth="yes"/>
      <point x="516" y="-10"/>
      <point x="555" y="66"/>
      <point x="555" y="129" type="curve" smooth="yes"/>
      <point x="555" y="168"/>
      <point x="540" y="205"/>
      <point x="519" y="224" type="curve"/>
      <point x="496" y="224" type="line"/>
      <point x="481" y="170"/>
      <point x="425" y="139"/>
      <point x="361" y="139" type="curve" name="hr03" smooth="yes"/>
      <point x="293" y="139" type="line" smooth="yes"/>
      <point x="236" y="139"/>
      <point x="185" y="126"/>
      <point x="131" y="98" type="curve"/>
    </contour>
  </outline>
</glyph>
<glyph name="three" format="1">
  <advance width="624"/>
  <unicode hex="0033"/>
  <outline>
    <contour>
      <point x="529" y="547" type="curve" name="hr00" smooth="yes"/>
      <point x="529" y="648"/>
      <point x="429" y="707"/>
      <point x="291" y="707" type="curve" smooth="yes"/>
      <point x="162" y="707"/>
      <point x="54" y="655"/>
      <point x="54" y="564" type="curve" smooth="yes"/>
      <point x="54" y="515"/>
      <point x="82" y="478"/>
      <point x="134" y="478" type="curve" smooth="yes"/>
      <point x="185" y="478"/>
      <point x="212" y="515"/>
      <point x="212" y="545" type="curve" smooth="yes"/>
      <point x="212" y="572"/>
      <point x="194" y="592"/>
      <point x="177" y="599" type="curve"/>
      <point x="197" y="624"/>
      <point x="219" y="631"/>
      <point x="251" y="631" type="curve" smooth="yes"/>
      <point x="311" y="631"/>
      <point x="351" y="586"/>
      <point x="351" y="523" type="curve" smooth="yes"/>
      <point x="351" y="462"/>
      <point x="322" y="415"/>
      <point x="196" y="382" type="curve"/>
      <point x="216" y="322" type="line"/>
      <point x="468" y="376"/>
      <point x="529" y="460"/>
    </contour>
    <contour>
      <point x="579" y="196" type="curve" smooth="yes"/>
      <point x="579" y="327"/>
      <point x="481" y="382"/>
      <point x="357" y="367" type="curve"/>
      <point x="196" y="382" type="line"/>
      <point x="221" y="336" type="line"/>
      <point x="273" y="336" type="line" smooth="yes"/>
      <point x="362" y="336"/>
      <point x="394" y="266"/>
      <point x="394" y="197" type="curve" smooth="yes"/>
      <point x="394" y="128"/>
      <point x="350" y="83"/>
      <point x="267" y="83" type="curve" smooth="yes"/>
      <point x="228" y="83"/>
      <point x="189" y="83"/>
      <point x="172" y="97" type="curve"/>
      <point x="193" y="115"/>
      <point x="200" y="142"/>
      <point x="200" y="161" type="curve" smooth="yes"/>
      <point x="200" y="198"/>
      <point x="170" y="230"/>
      <point x="123" y="230" type="curve" smooth="yes"/>
      <point x="76" y="230"/>
      <point x="40" y="199"/>
      <point x="40" y="142" type="curve" smooth="yes"/>
      <point x="40" y="48"/>
      <point x="144" y="-8"/>
      <point x="283" y="-8" type="curve" smooth="yes"/>
      <point x="455" y="-8"/>
      <point x="579" y="73"/>
    </contour>
  </outline>
</glyph>
<glyph name="five" format="1">
  <advance width="603"/>
  <unicode hex="0035"/>
  <outline>
    <contour>
      <point x="142" y="79" type="line" name="hr00"/>
      <point x="189" y="99"/>
      <point x="206" y="121"/>
      <point x="206" y="151" type="curve" smooth="yes"/>
      <point x="206" y="194"/>
      <point x="172" y="225"/>
      <point x="126" y="225" type="curve" smooth="yes"/>
      <point x="79" y="225"/>
      <point x="40" y="192"/>
      <point x="40" y="136" type="curve" smooth="yes"/>
      <point x="40" y="52"/>
      <point x="133" y="-8"/>
      <point x="274" y="-8" type="curve" smooth="yes"/>
      <point x="462" y="-8"/>
      <point x="563" y="105"/>
      <point x="563" y="227" type="curve" smooth="yes"/>
      <point x="563" y="350"/>
      <point x="475" y="440"/>
      <point x="329" y="440" type="curve" smooth="yes"/>
      <point x="259" y="440"/>
      <point x="199" y="412"/>
      <point x="164" y="393" type="curve"/>
      <point x="187" y="367" type="line"/>
      <point x="218" y="645" type="line"/>
      <point x="111" y="645" type="line"/>
      <point x="107" y="590" type="line"/>
      <point x="127" y="590"/>
      <point x="180" y="621"/>
      <point x="192" y="621" type="curve" smooth="yes"/>
      <point x="275" y="621"/>
      <point x="336" y="564"/>
      <point x="431" y="564" type="curve" smooth="yes"/>
      <point x="492" y="564"/>
      <point x="542" y="595"/>
      <point x="542" y="656" type="curve" smooth="yes"/>
      <point x="542" y="687"/>
      <point x="531" y="715"/>
      <point x="513" y="728" type="curve"/>
      <point x="490" y="728" type="line"/>
      <point x="458" y="707"/>
      <point x="410" y="698"/>
      <point x="336" y="698" type="curve" smooth="yes"/>
      <point x="96" y="698" type="line"/>
      <point x="82" y="374" type="line"/>
      <point x="121" y="329" type="line"/>
      <point x="151" y="343"/>
      <point x="197" y="351"/>
      <point x="234" y="351" type="curve" smooth="yes"/>
      <point x="323" y="351"/>
      <point x="380" y="307"/>
      <point x="380" y="214" type="curve" smooth="yes"/>
      <point x="380" y="138"/>
      <point x="329" y="76"/>
      <point x="238" y="76" type="curve" smooth="yes"/>
      <point x="198" y="76"/>
      <point x="164" y="87"/>
      <point x="154" y="96" type="curve"/>
    </contour>
  </outline>
</glyph>
<glyph name="equal" format="1">
  <advance width="629"/>
  <unicode hex="003D"/>
  <outline>
    <contour>
      <point x="60" y="527" type="line" name="hr00"/>
      <point x="53" y="514"/>
      <point x="50" y="491"/>
      <point x="50" y="468" type="curve" smooth="yes"/>
      <point x="50" y="448"/>
      <point x="52" y="427"/>
      <point x="58" y="413" type="curve"/>
      <point x="571" y="413" type="line"/>
      <point x="577" y="424"/>
      <point x="579" y="446"/>
      <point x="579" y="468" type="curve" smooth="yes"/>
      <point x="579" y="489"/>
      <point x="577" y="512"/>
      <point x="571" y="527" type="curve"/>
    </contour>
    <contour>
      <point x="60" y="298" type="line" name="hr00"/>
      <point x="53" y="285"/>
      <point x="50" y="263"/>
      <point x="50" y="239" type="curve" smooth="yes"/>
      <point x="50" y="219"/>
      <point x="52" y="198"/>
      <point x="58" y="184" type="curve"/>
      <point x="571" y="184" type="line"/>
      <point x="577" y="196"/>
      <point x="579" y="217"/>
      <point x="579" y="239" type="curve" smooth="yes"/>
      <point x="579" y="260"/>
      <point x="577" y="283"/>
      <point x="571" y="298" type="curve"/>
    </contour>
  </outline>
</glyph>
<glyph name="question" format="1">
  <advance width="532"/>
  <unicode hex="003F"/>
  <outline>
    <contour>
      <point x="368" y="86" type="curve" name="hr00" smooth="yes"/>
      <point x="368" y="146"/>
      <point x="329" y="185"/>
      <point x="267" y="185" type="curve" smooth="yes"/>
      <point x="206" y="185"/>
      <point x="167" y="146"/>
      <point x="167" y="86" type="curve" smooth="yes"/>
      <point x="167" y="27"/>
      <point x="206" y="-13"/>
      <point x="267" y="-13" type="curve" smooth="yes"/>
      <point x="329" y="-13"/>
      <point x="368" y="27"/>
    </contour>
    <contour>
      <point x="274" y="784" type="curve" smooth="yes"/>
      <point x="117" y="784"/>
      <point x="20" y="696"/>
      <point x="20" y="599" type="curve" smooth="yes"/>
      <point x="20" y="527"/>
      <point x="75" y="489"/>
      <point x="123" y="489" type="curve" smooth="yes"/>
      <point x="169" y="489"/>
      <point x="212" y="524"/>
      <point x="212" y="573" type="curve" smooth="yes"/>
      <point x="212" y="616"/>
      <point x="178" y="644"/>
      <point x="145" y="655" type="curve"/>
      <point x="165" y="688"/>
      <point x="202" y="707"/>
      <point x="243" y="707" type="curve" smooth="yes"/>
      <point x="294" y="707"/>
      <point x="334" y="677"/>
      <point x="334" y="604" type="curve" smooth="yes"/>
      <point x="334" y="512"/>
      <point x="270" y="445"/>
      <point x="187" y="394" type="curve"/>
      <point x="214" y="267" type="line"/>
      <point x="310" y="267" type="line"/>
      <point x="291" y="371" type="line"/>
      <point x="414" y="416"/>
      <point x="512" y="493"/>
      <point x="512" y="603" type="curve" smooth="yes"/>
      <point x="512" y="709"/>
      <point x="418" y="784"/>
    </contour>
  </outline>
</glyph>
<glyph name="at" format="1">
  <advance width="1019"/>
  <unicode hex="0040"/>
  <outline>
    <contour>
      <point x="735" y="312" type="line"/>
      <point x="668" y="312" type="line" smooth="yes"/>
      <point x="649" y="312"/>
      <point x="621" y="306"/>
      <point x="600" y="295" type="curve"/>
      <point x="570" y="313"/>
      <point x="530" y="324"/>
      <point x="490" y="324" type="curve" smooth="yes"/>
      <point x="362" y="324"/>
      <point x="278" y="216"/>
      <point x="278" y="78" type="curve" smooth="yes"/>
      <point x="278" y="-23"/>
      <point x="323" y="-93"/>
      <point x="422" y="-93" type="curve" name="hr02" smooth="yes"/>
      <point x="476" y="-93"/>
      <point x="523" y="-73"/>
      <point x="554" y="-50" type="curve"/>
      <point x="593" y="-84"/>
      <point x="634" y="-98"/>
      <point x="691" y="-98" type="curve" name="hr03" smooth="yes"/>
      <point x="861" y="-98"/>
      <point x="938" y="34"/>
      <point x="938" y="197" type="curve" smooth="yes"/>
      <point x="938" y="425"/>
      <point x="786" y="562"/>
      <point x="570" y="562" type="curve" smooth="yes"/>
      <point x="299" y="562"/>
      <point x="80" y="349"/>
      <point x="80" y="69" type="curve" smooth="yes"/>
      <point x="80" y="-178"/>
      <point x="249" y="-313"/>
      <point x="470" y="-313" type="curve" smooth="yes"/>
      <point x="578" y="-313"/>
      <point x="668" y="-280"/>
      <point x="719" y="-246" type="curve" smooth="yes"/>
      <point x="723" y="-243"/>
      <point x="726" y="-236"/>
      <point x="726" y="-227" type="curve" smooth="yes"/>
      <point x="726" y="-220"/>
      <point x="725" y="-211"/>
      <point x="719" y="-202" type="curve" smooth="yes"/>
      <point x="709" y="-186" type="line"/>
      <point x="665" y="-210"/>
      <point x="593" y="-230"/>
      <point x="502" y="-230" type="curve" smooth="yes"/>
      <point x="297" y="-230"/>
      <point x="177" y="-125"/>
      <point x="177" y="73" type="curve" smooth="yes"/>
      <point x="177" y="314"/>
      <point x="353" y="478"/>
      <point x="563" y="478" type="curve" smooth="yes"/>
      <point x="713" y="478"/>
      <point x="845" y="392"/>
      <point x="845" y="197" type="curve" smooth="yes"/>
      <point x="845" y="81"/>
      <point x="796" y="-15"/>
      <point x="732" y="-15" type="curve" smooth="yes"/>
      <point x="706" y="-15"/>
      <point x="693" y="0"/>
      <point x="693" y="35" type="curve" smooth="yes"/>
      <point x="693" y="45"/>
      <point x="693" y="57"/>
      <point x="696" y="69" type="curve" smooth="yes"/>
    </contour>
    <contour>
      <point x="442" y="82" type="curve" smooth="yes"/>
      <point x="442" y="182"/>
      <point x="485" y="241"/>
      <point x="533" y="241" type="curve" smooth="yes"/>
      <point x="545" y="241"/>
      <point x="560" y="237"/>
      <point x="572" y="231" type="curve"/>
      <point x="539" y="2" type="line"/>
      <point x="530" y="-6"/>
      <point x="516" y="-12"/>
      <point x="498" y="-12" type="curve" smooth="yes"/>
      <point x="461" y="-12"/>
      <point x="442" y="16"/>
    </contour>
  </outline>
</glyph>
<glyph name="A" format="1">
  <advance width="657"/>
  <unicode hex="0041"/>
  <outline>
    <contour>
      <point x="602" y="132" type="curve" smooth="yes"/>
      <point x="416" y="698" type="line"/>
      <point x="142" y="698" type="line"/>
      <point x="127" y="680"/>
      <point x="118" y="654"/>
      <point x="118" y="626" type="curve"/>
      <point x="158" y="626"/>
      <point x="191" y="622"/>
      <point x="219" y="613" type="curve"/>
      <point x="55" y="129" type="line" smooth="yes"/>
      <point x="40" y="85"/>
      <point x="6" y="64"/>
      <point x="-30" y="64" type="curve"/>
      <point x="-30" y="40"/>
      <point x="-22" y="16"/>
      <point x="-7" y="0" type="curve"/>
      <point x="216" y="0" type="line"/>
      <point x="231" y="16"/>
      <point x="239" y="40"/>
      <point x="239" y="64" type="curve"/>
      <point x="199" y="64"/>
      <point x="175" y="79"/>
      <point x="175" y="115" type="curve" smooth="yes"/>
      <point x="175" y="127"/>
      <point x="179" y="142"/>
      <point x="184" y="159" type="curve" smooth="yes"/>
      <point x="190" y="180" type="line"/>
      <point x="414" y="180" type="line"/>
      <point x="420" y="159" type="line" smooth="yes"/>
      <point x="425" y="140"/>
      <point x="427" y="124"/>
      <point x="427" y="112" type="curve" smooth="yes"/>
      <point x="427" y="78"/>
      <point x="405" y="64"/>
      <point x="370" y="64" type="curve"/>
      <point x="370" y="40"/>
      <point x="378" y="16"/>
      <point x="393" y="0" type="curve"/>
      <point x="664" y="0" type="line"/>
      <point x="679" y="16"/>
      <point x="687" y="40"/>
      <point x="687" y="64" type="curve"/>
      <point x="652" y="64"/>
      <point x="616" y="88"/>
    </contour>
    <contour>
      <point x="212" y="258" type="line"/>
      <point x="298" y="557" type="line"/>
      <point x="308" y="542"/>
      <point x="315" y="526"/>
      <point x="321" y="506" type="curve" smooth="yes"/>
      <point x="392" y="258" type="line"/>
    </contour>
    <contour>
      <point x="329" y="0" type="move" name="btm"/>
    </contour>
    <contour>
      <point x="311" y="963" type="move" name="top"/>
    </contour>
  </outline>
</glyph>
<glyph name="B" format="1">
  <advance width="633"/>
  <unicode hex="0042"/>
  <outline>
    <contour>
      <point x="311" y="-8" type="curve" smooth="yes"/>
      <point x="560" y="-8"/>
      <point x="617" y="93"/>
      <point x="617" y="196" type="curve" smooth="yes"/>
      <point x="617" y="303"/>
      <point x="567" y="346"/>
      <point x="452" y="370" type="curve"/>
      <point x="544" y="408"/>
      <point x="579" y="460"/>
      <point x="579" y="535" type="curve" smooth="yes"/>
      <point x="579" y="611"/>
      <point x="524" y="703"/>
      <point x="292" y="703" type="curve" smooth="yes"/>
      <point x="231" y="703"/>
      <point x="189" y="698"/>
      <point x="48" y="698" type="curve"/>
      <point x="34" y="681"/>
      <point x="26" y="658"/>
      <point x="26" y="635" type="curve"/>
      <point x="71" y="635"/>
      <point x="88" y="621"/>
      <point x="88" y="584" type="curve" smooth="yes"/>
      <point x="88" y="114" type="line" smooth="yes"/>
      <point x="88" y="77"/>
      <point x="71" y="63"/>
      <point x="26" y="63" type="curve"/>
      <point x="26" y="40"/>
      <point x="34" y="17"/>
      <point x="48" y="0" type="curve"/>
      <point x="170" y="0"/>
      <point x="248" y="-8"/>
    </contour>
    <contour>
      <point x="295" y="65" type="curve" smooth="yes"/>
      <point x="278" y="65"/>
      <point x="262" y="67"/>
      <point x="253" y="68" type="curve"/>
      <point x="253" y="321" type="line" name="hr00"/>
      <point x="261" y="321"/>
      <point x="275" y="322"/>
      <point x="286" y="322" type="curve" smooth="yes"/>
      <point x="393" y="322"/>
      <point x="435" y="276"/>
      <point x="435" y="186" type="curve" smooth="yes"/>
      <point x="435" y="107"/>
      <point x="389" y="65"/>
    </contour>
    <contour>
      <point x="283" y="394" type="curve" smooth="yes"/>
      <point x="274" y="394"/>
      <point x="262" y="395"/>
      <point x="253" y="396" type="curve"/>
      <point x="253" y="626" type="line"/>
      <point x="263" y="629"/>
      <point x="280" y="630"/>
      <point x="294" y="630" type="curve" smooth="yes"/>
      <point x="379" y="630"/>
      <point x="417" y="584"/>
      <point x="417" y="512" type="curve" smooth="yes"/>
      <point x="417" y="440"/>
      <point x="380" y="394"/>
    </contour>
    <contour>
      <point x="318" y="-5" type="move" name="btm"/>
    </contour>
    <contour>
      <point x="282" y="963" type="move" name="top"/>
    </contour>
  </outline>
</glyph>
<glyph name="C" format="1">
  <advance width="570"/>
  <unicode hex="0043"/>
  <outline>
    <contour>
      <point x="555" y="483" type="line" name="hr00"/>
      <point x="555" y="543"/>
      <point x="552" y="645"/>
      <point x="526" y="709" type="curve"/>
      <point x="505" y="708"/>
      <point x="457" y="696"/>
      <point x="437" y="687" type="curve"/>
      <point x="409" y="700"/>
      <point x="362" y="709"/>
      <point x="333" y="709" type="curve" smooth="yes"/>
      <point x="148" y="709"/>
      <point x="25" y="587"/>
      <point x="25" y="352" type="curve" smooth="yes"/>
      <point x="25" y="106"/>
      <point x="173" y="-14"/>
      <point x="344" y="-14" type="curve" smooth="yes"/>
      <point x="479" y="-14"/>
      <point x="554" y="55"/>
      <point x="554" y="102" type="curve" smooth="yes"/>
      <point x="554" y="121"/>
      <point x="543" y="150"/>
      <point x="526" y="162" type="curve"/>
      <point x="509" y="136"/>
      <point x="464" y="108"/>
      <point x="403" y="108" type="curve" smooth="yes"/>
      <point x="296" y="108"/>
      <point x="202" y="180"/>
      <point x="202" y="387" type="curve" smooth="yes"/>
      <point x="202" y="554"/>
      <point x="262" y="622"/>
      <point x="335" y="622" type="curve" smooth="yes"/>
      <point x="394" y="622"/>
      <point x="436" y="570"/>
      <point x="447" y="483" type="curve"/>
    </contour>
    <contour>
      <point x="292" y="-5" type="move" name="btm"/>
    </contour>
    <contour>
      <point x="321" y="963" type="move" name="top"/>
    </contour>
  </outline>
</glyph>
<glyph name="D" format="1">
  <advance width="668"/>
  <unicode hex="0044"/>
  <outline>
    <contour>
      <point x="292" y="-11" type="curve" smooth="yes"/>
      <point x="537" y="-11"/>
      <point x="641" y="159"/>
      <point x="641" y="364" type="curve" smooth="yes"/>
      <point x="641" y="552"/>
      <point x="537" y="710"/>
      <point x="306" y="710" type="curve" smooth="yes"/>
      <point x="276" y="710"/>
      <point x="180" y="698"/>
      <point x="48" y="698" type="curve"/>
      <point x="34" y="682"/>
      <point x="26" y="659"/>
      <point x="26" y="635" type="curve"/>
      <point x="70" y="635"/>
      <point x="88" y="621"/>
      <point x="88" y="585" type="curve" smooth="yes"/>
      <point x="88" y="115" type="line" smooth="yes"/>
      <point x="88" y="78"/>
      <point x="70" y="64"/>
      <point x="26" y="64" type="curve"/>
      <point x="26" y="40"/>
      <point x="34" y="18"/>
      <point x="48" y="0" type="curve"/>
      <point x="193" y="0"/>
      <point x="246" y="-11"/>
    </contour>
    <contour>
      <point x="284" y="72" type="curve" smooth="yes"/>
      <point x="274" y="72"/>
      <point x="262" y="72"/>
      <point x="252" y="74" type="curve"/>
      <point x="252" y="628" type="line"/>
      <point x="259" y="630"/>
      <point x="267" y="630"/>
      <point x="276" y="630" type="curve" smooth="yes"/>
      <point x="389" y="630"/>
      <point x="463" y="543"/>
      <point x="463" y="349" type="curve" name="hr00" smooth="yes"/>
      <point x="463" y="147"/>
      <point x="393" y="72"/>
    </contour>
    <contour>
      <point x="296" y="0" type="move" name="btm"/>
    </contour>
    <contour>
      <point x="329" y="963" type="move" name="top"/>
    </contour>
  </outline>
</glyph>
<glyph name="F" format="1">
  <advance width="564"/>
  <unicode hex="0046"/>
  <outline>
    <contour>
      <point x="160" y="612" type="line" name="hr00"/>
      <point x="346" y="612" type="line" smooth="yes"/>
      <point x="413" y="612"/>
      <point x="445" y="569"/>
      <point x="459" y="525" type="curve"/>
      <point x="485" y="530"/>
      <point x="527" y="547"/>
      <point x="544" y="563" type="curve"/>
      <point x="544" y="596"/>
      <point x="528" y="682"/>
      <point x="511" y="714" type="curve"/>
      <point x="486" y="714"/>
      <point x="460" y="708"/>
      <point x="435" y="697" type="curve"/>
      <point x="53" y="697" type="line"/>
      <point x="39" y="681"/>
      <point x="30" y="658"/>
      <point x="30" y="634" type="curve"/>
      <point x="73" y="634"/>
      <point x="94" y="621"/>
      <point x="94" y="584" type="curve" smooth="yes"/>
      <point x="94" y="114" type="line" smooth="yes"/>
      <point x="94" y="77"/>
      <point x="80" y="64"/>
      <point x="26" y="64" type="curve"/>
      <point x="26" y="40"/>
      <point x="34" y="16"/>
      <point x="49" y="0" type="curve"/>
      <point x="386" y="0" type="line"/>
      <point x="400" y="16"/>
      <point x="404" y="44"/>
      <point x="404" y="68" type="curve"/>
      <point x="376" y="68"/>
      <point x="346" y="68"/>
      <point x="324" y="68" type="curve" smooth="yes"/>
      <point x="268" y="68"/>
      <point x="258" y="90"/>
      <point x="258" y="127" type="curve" smooth="yes"/>
      <point x="258" y="327" type="line"/>
      <point x="223" y="305" type="line"/>
      <point x="341" y="305" type="line" smooth="yes"/>
      <point x="378" y="305"/>
      <point x="392" y="283"/>
      <point x="392" y="229" type="curve"/>
      <point x="422" y="229"/>
      <point x="457" y="237"/>
      <point x="478" y="251" type="curve"/>
      <point x="478" y="436" type="line"/>
      <point x="457" y="450"/>
      <point x="421" y="458"/>
      <point x="392" y="458" type="curve"/>
      <point x="392" y="404"/>
      <point x="378" y="380"/>
      <point x="340" y="380" type="curve" smooth="yes"/>
      <point x="224" y="380" type="line"/>
      <point x="258" y="350" type="line"/>
      <point x="258" y="663" type="line"/>
    </contour>
    <contour>
      <point x="280" y="0" type="move" name="btm"/>
    </contour>
    <contour>
      <point x="280" y="975" type="move" name="top"/>
    </contour>
  </outline>
</glyph>
<glyph name="H" format="1">
  <advance width="727"/>
  <unicode hex="0048"/>
  <outline>
    <contour>
      <point x="215" y="397" type="line" name="hr00"/>
      <point x="215" y="313" type="line"/>
      <point x="547" y="313" type="line"/>
      <point x="547" y="397" type="line"/>
    </contour>
    <contour>
      <point x="292" y="0" type="line"/>
      <point x="305" y="16"/>
      <point x="314" y="40"/>
      <point x="314" y="64" type="curve"/>
      <point x="270" y="64"/>
      <point x="254" y="77"/>
      <point x="254" y="114" type="curve" smooth="yes"/>
      <point x="254" y="584" type="line" smooth="yes"/>
      <point x="254" y="621"/>
      <point x="270" y="635"/>
      <point x="314" y="635" type="curve"/>
      <point x="314" y="658"/>
      <point x="305" y="682"/>
      <point x="292" y="698" type="curve"/>
      <point x="48" y="698" type="line"/>
      <point x="34" y="682"/>
      <point x="26" y="658"/>
      <point x="26" y="635" type="curve" name="hr03"/>
      <point x="70" y="635"/>
      <point x="86" y="621"/>
      <point x="86" y="584" type="curve" smooth="yes"/>
      <point x="86" y="114" type="line" smooth="yes"/>
      <point x="86" y="77"/>
      <point x="70" y="64"/>
      <point x="26" y="64" type="curve"/>
      <point x="26" y="40"/>
      <point x="34" y="16"/>
      <point x="48" y="0" type="curve" name="hr04"/>
    </contour>
    <contour>
      <point x="679" y="0" type="line"/>
      <point x="693" y="16"/>
      <point x="701" y="40"/>
      <point x="701" y="64" type="curve"/>
      <point x="658" y="64"/>
      <point x="642" y="77"/>
      <point x="642" y="114" type="curve" smooth="yes"/>
      <point x="642" y="584" type="line" smooth="yes"/>
      <point x="642" y="621"/>
      <point x="658" y="635"/>
      <point x="701" y="635" type="curve"/>
      <point x="701" y="658"/>
      <point x="693" y="682"/>
      <point x="679" y="698" type="curve"/>
      <point x="436" y="698" type="line"/>
      <point x="422" y="682"/>
      <point x="414" y="658"/>
      <point x="414" y="635" type="curve"/>
      <point x="457" y="635"/>
      <point x="474" y="621"/>
      <point x="474" y="584" type="curve" smooth="yes"/>
      <point x="474" y="114" type="line" smooth="yes"/>
      <point x="474" y="77"/>
      <point x="457" y="64"/>
      <point x="414" y="64" type="curve"/>
      <point x="414" y="40"/>
      <point x="422" y="16"/>
      <point x="436" y="0" type="curve"/>
    </contour>
    <contour>
      <point x="363" y="0" type="move" name="btm"/>
    </contour>
    <contour>
      <point x="355" y="963" type="move" name="top"/>
    </contour>
  </outline>
</glyph>
<glyph name="I" format="1">
  <advance width="345"/>
  <unicode hex="0049"/>
  <outline>
    <contour>
      <point x="294" y="0" type="line"/>
      <point x="307" y="16"/>
      <point x="316" y="40"/>
      <point x="316" y="64" type="curve"/>
      <point x="272" y="64"/>
      <point x="256" y="77"/>
      <point x="256" y="114" type="curve" smooth="yes"/>
      <point x="256" y="584" type="line" smooth="yes"/>
      <point x="256" y="621"/>
      <point x="272" y="635"/>
      <point x="316" y="635" type="curve"/>
      <point x="316" y="658"/>
      <point x="307" y="682"/>
      <point x="294" y="698" type="curve"/>
      <point x="51" y="698" type="line"/>
      <point x="37" y="682"/>
      <point x="29" y="658"/>
      <point x="29" y="635" type="curve" name="hr03"/>
      <point x="73" y="635"/>
      <point x="89" y="621"/>
      <point x="89" y="584" type="curve" smooth="yes"/>
      <point x="89" y="114" type="line" smooth="yes"/>
      <point x="89" y="77"/>
      <point x="73" y="64"/>
      <point x="29" y="64" type="curve"/>
      <point x="29" y="40"/>
      <point x="37" y="16"/>
      <point x="51" y="0" type="curve" name="hr04"/>
    </contour>
    <contour>
      <point x="183" y="0" type="move" name="btm"/>
    </contour>
    <contour>
      <point x="172" y="963" type="move" name="top"/>
    </contour>
  </outline>
</glyph>
<glyph name="J" format="1">
  <advance width="563"/>
  <unicode hex="004A"/>
  <outline>
    <contour>
      <point x="489" y="583" type="line" name="hr00" smooth="yes"/>
      <point x="489" y="620"/>
      <point x="510" y="634"/>
      <point x="555" y="634" type="curve"/>
      <point x="555" y="657"/>
      <point x="547" y="681"/>
      <point x="532" y="697" type="curve"/>
      <point x="251" y="697" type="line"/>
      <point x="237" y="681"/>
      <point x="228" y="657"/>
      <point x="228" y="634" type="curve"/>
      <point x="300" y="634"/>
      <point x="322" y="612"/>
      <point x="322" y="564" type="curve" smooth="yes"/>
      <point x="322" y="170" type="line" smooth="yes"/>
      <point x="322" y="95"/>
      <point x="286" y="75"/>
      <point x="250" y="75" type="curve" smooth="yes"/>
      <point x="185" y="75"/>
      <point x="159" y="144"/>
      <point x="159" y="218" type="curve" smooth="yes"/>
      <point x="159" y="241"/>
      <point x="160" y="261"/>
      <point x="163" y="283" type="curve"/>
      <point x="15" y="283" type="line"/>
      <point x="12" y="268"/>
      <point x="10" y="250"/>
      <point x="10" y="224" type="curve" smooth="yes"/>
      <point x="10" y="101"/>
      <point x="57" y="23"/>
      <point x="90" y="-13" type="curve"/>
      <point x="133" y="10" type="line"/>
      <point x="159" y="-4"/>
      <point x="217" y="-13"/>
      <point x="250" y="-13" type="curve" smooth="yes"/>
      <point x="375" y="-13"/>
      <point x="489" y="42"/>
      <point x="489" y="228" type="curve" smooth="yes"/>
    </contour>
    <contour>
      <point x="304" y="-5" type="move" name="btm"/>
    </contour>
    <contour>
      <point x="397" y="963" type="move" name="top"/>
    </contour>
  </outline>
</glyph>
<glyph name="K" format="1">
  <advance width="665"/>
  <unicode hex="004B"/>
  <outline>
    <contour>
      <point x="518" y="233" type="curve" smooth="yes"/>
      <point x="479" y="293"/>
      <point x="442" y="334"/>
      <point x="377" y="363" type="curve"/>
      <point x="566" y="587" type="line"/>
      <point x="580" y="605"/>
      <point x="609" y="635"/>
      <point x="666" y="635" type="curve"/>
      <point x="666" y="657"/>
      <point x="657" y="681"/>
      <point x="644" y="698" type="curve"/>
      <point x="411" y="698" type="line"/>
      <point x="397" y="681"/>
      <point x="388" y="657"/>
      <point x="388" y="635" type="curve"/>
      <point x="414" y="635"/>
      <point x="446" y="624"/>
      <point x="446" y="607" type="curve" smooth="yes"/>
      <point x="446" y="596"/>
      <point x="442" y="582"/>
      <point x="433" y="571" type="curve"/>
      <point x="292" y="384" type="line"/>
      <point x="278" y="386"/>
      <point x="264" y="386"/>
      <point x="255" y="386" type="curve"/>
      <point x="255" y="584" type="line" smooth="yes"/>
      <point x="255" y="621"/>
      <point x="271" y="635"/>
      <point x="315" y="635" type="curve"/>
      <point x="315" y="658"/>
      <point x="306" y="682"/>
      <point x="293" y="698" type="curve"/>
      <point x="48" y="698" type="line"/>
      <point x="34" y="682"/>
      <point x="26" y="658"/>
      <point x="26" y="635" type="curve" name="hr03"/>
      <point x="70" y="635"/>
      <point x="86" y="621"/>
      <point x="86" y="584" type="curve" smooth="yes"/>
      <point x="86" y="114" type="line" smooth="yes"/>
      <point x="86" y="77"/>
      <point x="70" y="64"/>
      <point x="26" y="64" type="curve"/>
      <point x="26" y="40"/>
      <point x="34" y="16"/>
      <point x="48" y="0" type="curve" name="hr04"/>
      <point x="293" y="0" type="line"/>
      <point x="306" y="16"/>
      <point x="315" y="40"/>
      <point x="315" y="64" type="curve"/>
      <point x="271" y="64"/>
      <point x="255" y="77"/>
      <point x="255" y="114" type="curve" smooth="yes"/>
      <point x="255" y="318" type="line"/>
      <point x="306" y="297"/>
      <point x="359" y="188"/>
      <point x="387" y="132" type="curve" smooth="yes"/>
      <point x="417" y="72"/>
      <point x="450" y="-14"/>
      <point x="563" y="-14" type="curve" smooth="yes"/>
      <point x="616" y="-14"/>
      <point x="643" y="3"/>
      <point x="664" y="31" type="curve"/>
      <point x="664" y="71" type="line"/>
      <point x="603" y="78"/>
      <point x="577" y="143"/>
    </contour>
    <contour>
      <point x="340" y="-5" type="move" name="btm"/>
    </contour>
    <contour>
      <point x="342" y="963" type="move" name="top"/>
    </contour>
  </outline>
</glyph>
<glyph name="N" format="1">
  <advance width="713"/>
  <unicode hex="004E"/>
  <outline>
    <contour>
      <point x="199" y="475" type="line" name="hr00"/>
      <point x="479" y="50" type="line"/>
      <point x="504" y="13"/>
      <point x="526" y="-6"/>
      <point x="595" y="-6" type="curve" smooth="yes"/>
      <point x="635" y="-6" type="line"/>
      <point x="635" y="584" type="line" smooth="yes"/>
      <point x="635" y="621"/>
      <point x="654" y="635"/>
      <point x="698" y="635" type="curve"/>
      <point x="698" y="658"/>
      <point x="689" y="682"/>
      <point x="675" y="698" type="curve"/>
      <point x="476" y="698" type="line"/>
      <point x="461" y="682"/>
      <point x="453" y="658"/>
      <point x="453" y="635" type="curve"/>
      <point x="498" y="635"/>
      <point x="516" y="621"/>
      <point x="516" y="584" type="curve" smooth="yes"/>
      <point x="516" y="254" type="line"/>
      <point x="289" y="613" type="line"/>
      <point x="255" y="666"/>
      <point x="211" y="698"/>
      <point x="168" y="698" type="curve" smooth="yes"/>
      <point x="48" y="698" type="line"/>
      <point x="34" y="682"/>
      <point x="26" y="658"/>
      <point x="26" y="635" type="curve"/>
      <point x="71" y="635"/>
      <point x="88" y="621"/>
      <point x="88" y="584" type="curve" smooth="yes"/>
      <point x="88" y="114" type="line" smooth="yes"/>
      <point x="88" y="77"/>
      <point x="71" y="63"/>
      <point x="26" y="63" type="curve"/>
      <point x="26" y="40"/>
      <point x="34" y="17"/>
      <point x="48" y="0" type="curve"/>
      <point x="239" y="0" type="line"/>
      <point x="253" y="17"/>
      <point x="262" y="40"/>
      <point x="262" y="63" type="curve"/>
      <point x="217" y="63"/>
      <point x="199" y="77"/>
      <point x="199" y="114" type="curve" smooth="yes"/>
    </contour>
    <contour>
      <point x="359" y="-9" type="move" name="btm"/>
    </contour>
    <contour>
      <point x="362" y="963" type="move" name="top"/>
    </contour>
  </outline>
</glyph>
<glyph name="O" format="1">
  <advance width="669"/>
  <unicode hex="004F"/>
  <outline>
    <contour>
      <point x="334" y="-13" type="curve" smooth="yes"/>
      <point x="521" y="-13"/>
      <point x="644" y="120"/>
      <point x="644" y="348" type="curve" smooth="yes"/>
      <point x="644" y="566"/>
      <point x="527" y="710"/>
      <point x="333" y="710" type="curve" smooth="yes"/>
      <point x="147" y="710"/>
      <point x="25" y="577"/>
      <point x="25" y="348" type="curve" smooth="yes"/>
      <point x="25" y="131"/>
      <point x="140" y="-13"/>
    </contour>
    <contour>
      <point x="334" y="60" type="curve" name="hr00" smooth="yes"/>
      <point x="265" y="60"/>
      <point x="212" y="119"/>
      <point x="212" y="345" type="curve" smooth="yes"/>
      <point x="212" y="587"/>
      <point x="274" y="636"/>
      <point x="336" y="636" type="curve" smooth="yes"/>
      <point x="406" y="636"/>
      <point x="458" y="577"/>
      <point x="458" y="352" type="curve" smooth="yes"/>
      <point x="458" y="109"/>
      <point x="396" y="60"/>
    </contour>
    <contour>
      <point x="334" y="-9" type="move" name="btm"/>
    </contour>
    <contour>
      <point x="326" y="963" type="move" name="top"/>
    </contour>
  </outline>
</glyph>
<glyph name="R" format="1">
  <advance width="649"/>
  <unicode hex="0052"/>
  <outline>
    <contour>
      <point x="582" y="154" type="curve" smooth="yes"/>
      <point x="551" y="255"/>
      <point x="484" y="320"/>
      <point x="405" y="337" type="curve"/>
      <point x="389" y="327" type="line"/>
      <point x="526" y="341"/>
      <point x="589" y="405"/>
      <point x="589" y="513" type="curve" name="hr00" smooth="yes"/>
      <point x="589" y="630"/>
      <point x="511" y="706"/>
      <point x="303" y="706" type="curve" smooth="yes"/>
      <point x="216" y="706"/>
      <point x="157" y="698"/>
      <point x="49" y="698" type="curve"/>
      <point x="35" y="682"/>
      <point x="26" y="658"/>
      <point x="26" y="635" type="curve"/>
      <point x="71" y="635"/>
      <point x="88" y="621"/>
      <point x="88" y="584" type="curve" smooth="yes"/>
      <point x="88" y="114" type="line" smooth="yes"/>
      <point x="88" y="77"/>
      <point x="71" y="63"/>
      <point x="26" y="63" type="curve"/>
      <point x="26" y="40"/>
      <point x="35" y="17"/>
      <point x="49" y="0" type="curve"/>
      <point x="297" y="0" type="line"/>
      <point x="311" y="17"/>
      <point x="319" y="40"/>
      <point x="319" y="63" type="curve"/>
      <point x="280" y="63"/>
      <point x="250" y="77"/>
      <point x="250" y="114" type="curve" smooth="yes"/>
      <point x="250" y="297" type="line"/>
      <point x="287" y="297" type="line"/>
      <point x="339" y="266"/>
      <point x="374" y="209"/>
      <point x="389" y="151" type="curve" smooth="yes"/>
      <point x="412" y="64"/>
      <point x="440" y="-8"/>
      <point x="568" y="-8" type="curve" smooth="yes"/>
      <point x="621" y="-8"/>
      <point x="645" y="2"/>
      <point x="663" y="27" type="curve"/>
      <point x="663" y="75" type="line"/>
      <point x="610" y="87"/>
      <point x="597" y="105"/>
    </contour>
    <contour>
      <point x="250" y="626" type="line"/>
      <point x="261" y="629"/>
      <point x="285" y="630"/>
      <point x="298" y="630" type="curve" smooth="yes"/>
      <point x="385" y="630"/>
      <point x="421" y="586"/>
      <point x="421" y="503" type="curve" smooth="yes"/>
      <point x="421" y="422"/>
      <point x="374" y="366"/>
      <point x="293" y="366" type="curve" smooth="yes"/>
      <point x="283" y="366"/>
      <point x="259" y="367"/>
      <point x="250" y="368" type="curve"/>
    </contour>
    <contour>
      <point x="336" y="0" type="move" name="btm"/>
    </contour>
    <contour>
      <point x="303" y="963" type="move" name="top"/>
    </contour>
  </outline>
</glyph>
<glyph name="S" format="1">
  <advance width="589"/>
  <unicode hex="0053"/>
  <outline>
    <contour>
      <point x="36" y="246" type="line" name="hr01"/>
      <point x="36" y="166"/>
      <point x="57" y="37"/>
      <point x="83" y="-15" type="curve"/>
      <point x="160" y="19" type="line"/>
      <point x="221" y="-7"/>
      <point x="275" y="-15"/>
      <point x="321" y="-15" type="curve" smooth="yes"/>
      <point x="468" y="-15"/>
      <point x="555" y="76"/>
      <point x="555" y="186" type="curve" name="hr02" smooth="yes"/>
      <point x="555" y="319"/>
      <point x="436" y="377"/>
      <point x="345" y="421" type="curve" smooth="yes"/>
      <point x="282" y="452"/>
      <point x="223" y="482"/>
      <point x="223" y="546" type="curve" smooth="yes"/>
      <point x="223" y="593"/>
      <point x="248" y="628"/>
      <point x="303" y="628" type="curve" smooth="yes"/>
      <point x="362" y="628"/>
      <point x="416" y="595"/>
      <point x="444" y="482" type="curve"/>
      <point x="527" y="482" type="line"/>
      <point x="527" y="486"/>
      <point x="527" y="492"/>
      <point x="527" y="497" type="curve" smooth="yes"/>
      <point x="527" y="562"/>
      <point x="526" y="661"/>
      <point x="499" y="708" type="curve"/>
      <point x="414" y="682" type="line"/>
      <point x="381" y="700"/>
      <point x="320" y="708"/>
      <point x="281" y="708" type="curve" smooth="yes"/>
      <point x="155" y="708"/>
      <point x="57" y="637"/>
      <point x="57" y="516" type="curve" smooth="yes"/>
      <point x="57" y="404"/>
      <point x="130" y="335"/>
      <point x="247" y="278" type="curve" smooth="yes"/>
      <point x="315" y="245"/>
      <point x="392" y="207"/>
      <point x="392" y="142" type="curve" smooth="yes"/>
      <point x="392" y="110"/>
      <point x="371" y="65"/>
      <point x="310" y="65" type="curve" smooth="yes"/>
      <point x="226" y="65"/>
      <point x="157" y="133"/>
      <point x="136" y="246" type="curve"/>
    </contour>
    <contour>
      <point x="293" y="-5" type="move" name="btm"/>
    </contour>
    <contour>
      <point x="304" y="963" type="move" name="top"/>
    </contour>
  </outline>
</glyph>
<glyph name="V" format="1">
  <advance width="630"/>
  <unicode hex="0056"/>
  <outline>
    <contour>
      <point x="422" y="698" type="line" name="hr00"/>
      <point x="409" y="678"/>
      <point x="406" y="659"/>
      <point x="406" y="635" type="curve"/>
      <point x="445" y="635"/>
      <point x="465" y="617"/>
      <point x="465" y="590" type="curve" smooth="yes"/>
      <point x="465" y="584"/>
      <point x="463" y="577"/>
      <point x="461" y="569" type="curve" smooth="yes"/>
      <point x="381" y="293" type="line"/>
      <point x="351" y="185" type="line"/>
      <point x="321" y="295" type="line"/>
      <point x="237" y="566" type="line" smooth="yes"/>
      <point x="234" y="575"/>
      <point x="231" y="583"/>
      <point x="231" y="590" type="curve" smooth="yes"/>
      <point x="231" y="618"/>
      <point x="252" y="635"/>
      <point x="290" y="635" type="curve"/>
      <point x="290" y="659"/>
      <point x="281" y="682"/>
      <point x="272" y="698" type="curve"/>
      <point x="-24" y="698" type="line"/>
      <point x="-36" y="678"/>
      <point x="-40" y="659"/>
      <point x="-40" y="635" type="curve"/>
      <point x="6" y="635"/>
      <point x="29" y="623"/>
      <point x="43" y="588" type="curve" smooth="yes"/>
      <point x="276" y="-7" type="line"/>
      <point x="307" y="-7" type="line" smooth="yes"/>
      <point x="367" y="-7"/>
      <point x="393" y="21"/>
      <point x="416" y="89" type="curve" smooth="yes"/>
      <point x="586" y="588" type="line" smooth="yes"/>
      <point x="598" y="624"/>
      <point x="625" y="635"/>
      <point x="670" y="635" type="curve"/>
      <point x="670" y="659"/>
      <point x="666" y="679"/>
      <point x="654" y="698" type="curve"/>
    </contour>
    <contour>
      <point x="317" y="-6" type="move" name="btm"/>
    </contour>
    <contour>
      <point x="317" y="969" type="move" name="top"/>
    </contour>
  </outline>
</glyph>
<glyph name="Y" format="1">
  <advance width="661"/>
  <unicode hex="0059"/>
  <outline>
    <contour>
      <point x="647" y="698" type="curve"/>
      <point x="438" y="698" type="line"/>
      <point x="423" y="682"/>
      <point x="415" y="659"/>
      <point x="415" y="635" type="curve"/>
      <point x="446" y="635"/>
      <point x="474" y="616"/>
      <point x="474" y="591" type="curve" smooth="yes"/>
      <point x="474" y="585"/>
      <point x="472" y="578"/>
      <point x="469" y="572" type="curve" smooth="yes"/>
      <point x="343" y="336" type="line"/>
      <point x="374" y="336" type="line"/>
      <point x="263" y="546" type="line" smooth="yes"/>
      <point x="253" y="566"/>
      <point x="247" y="583"/>
      <point x="247" y="596" type="curve" smooth="yes"/>
      <point x="247" y="622"/>
      <point x="266" y="635"/>
      <point x="307" y="635" type="curve"/>
      <point x="307" y="659"/>
      <point x="299" y="682"/>
      <point x="284" y="698" type="curve"/>
      <point x="14" y="698" type="line"/>
      <point x="-1" y="682"/>
      <point x="-10" y="659"/>
      <point x="-10" y="635" type="curve"/>
      <point x="17" y="635"/>
      <point x="49" y="617"/>
      <point x="64" y="591" type="curve" smooth="yes"/>
      <point x="284" y="210" type="line"/>
      <point x="263" y="306" type="line"/>
      <point x="263" y="114" type="line" smooth="yes"/>
      <point x="263" y="77"/>
      <point x="215" y="64"/>
      <point x="171" y="64" type="curve"/>
      <point x="171" y="40"/>
      <point x="179" y="16"/>
      <point x="193" y="0" type="curve"/>
      <point x="494" y="0" type="line"/>
      <point x="508" y="16"/>
      <point x="516" y="40"/>
      <point x="516" y="64" type="curve"/>
      <point x="469" y="64"/>
      <point x="420" y="77"/>
      <point x="420" y="114" type="curve" smooth="yes"/>
      <point x="420" y="309" type="line"/>
      <point x="389" y="213" type="line"/>
      <point x="594" y="585" type="line" name="hr00" smooth="yes"/>
      <point x="615" y="624"/>
      <point x="621" y="635"/>
      <point x="671" y="635" type="curve"/>
      <point x="671" y="659"/>
      <point x="662" y="682"/>
    </contour>
    <contour>
      <point x="330" y="0" type="move" name="btm"/>
    </contour>
    <contour>
      <point x="360" y="963" type="move" name="top"/>
    </contour>
  </outline>
</glyph>
<glyph name="backslash" format="1">
  <advance width="447"/>
  <unicode hex="005C"/>
  <outline>
    <contour>
      <point x="403" y="-129" type="line" name="hr00"/>
      <point x="126" y="724" type="line"/>
      <point x="45" y="693" type="line"/>
      <point x="321" y="-160" type="line"/>
    </contour>
  </outline>
</glyph>
<glyph name="bracketright" format="1">
  <advance width="345"/>
  <unicode hex="005D"/>
  <outline>
    <contour>
      <point x="144" y="731" type="line" name="hr00"/>
      <point x="144" y="-85" type="line"/>
      <point x="45" y="-85" type="line"/>
      <point x="34" y="-108"/>
      <point x="29" y="-127"/>
      <point x="29" y="-154" type="curve"/>
      <point x="295" y="-154" type="line"/>
      <point x="295" y="800" type="line"/>
      <point x="29" y="800" type="line"/>
      <point x="29" y="773"/>
      <point x="34" y="755"/>
      <point x="45" y="731" type="curve"/>
    </contour>
  </outline>
</glyph>
<glyph name="underscore" format="1">
  <advance width="500"/>
  <unicode hex="005F"/>
  <outline>
    <contour>
      <point x="-7" y="-182" type="line" name="hr00"/>
      <point x="509" y="-182" type="line"/>
      <point x="509" y="-71" type="line"/>
      <point x="-7" y="-71" type="line"/>
    </contour>
  </outline>
</glyph>
<glyph name="a" format="1">
  <advance width="535"/>
  <unicode hex="0061"/>
  <outline>
    <contour>
      <point x="20" y="141" type="curve" name="hr00" smooth="yes"/>
      <point x="20" y="54"/>
      <point x="88" y="-7"/>
      <point x="188" y="-7" type="curve" smooth="yes"/>
      <point x="248" y="-7"/>
      <point x="292" y="16"/>
      <point x="319" y="40" type="curve"/>
      <point x="337" y="10"/>
      <point x="370" y="-7"/>
      <point x="415" y="-7" type="curve" smooth="yes"/>
      <point x="454" y="-7"/>
      <point x="501" y="6"/>
      <point x="519" y="31" type="curve"/>
      <point x="519" y="63" type="line"/>
      <point x="488" y="70"/>
      <point x="473" y="90"/>
      <point x="473" y="121" type="curve" smooth="yes"/>
      <point x="473" y="386" type="line" smooth="yes"/>
      <point x="473" y="490"/>
      <point x="405" y="545"/>
      <point x="272" y="545" type="curve" smooth="yes"/>
      <point x="118" y="545"/>
      <point x="52" y="475"/>
      <point x="52" y="408" type="curve" smooth="yes"/>
      <point x="52" y="362"/>
      <point x="85" y="327"/>
      <point x="136" y="327" type="curve" smooth="yes"/>
      <point x="181" y="327"/>
      <point x="217" y="357"/>
      <point x="217" y="401" type="curve" smooth="yes"/>
      <point x="217" y="424"/>
      <point x="206" y="447"/>
      <point x="179" y="456" type="curve"/>
      <point x="192" y="466"/>
      <point x="212" y="472"/>
      <point x="233" y="472" type="curve" smooth="yes"/>
      <point x="274" y="472"/>
      <point x="307" y="453"/>
      <point x="307" y="397" type="curve" smooth="yes"/>
      <point x="307" y="264" type="line"/>
      <point x="280" y="278"/>
      <point x="233" y="286"/>
      <point x="194" y="286" type="curve" smooth="yes"/>
      <point x="75" y="286"/>
      <point x="20" y="227"/>
    </contour>
    <contour>
      <point x="307" y="90" type="line"/>
      <point x="294" y="80"/>
      <point x="272" y="74"/>
      <point x="253" y="74" type="curve" smooth="yes"/>
      <point x="213" y="74"/>
      <point x="187" y="100"/>
      <point x="187" y="136" type="curve" smooth="yes"/>
      <point x="187" y="182"/>
      <point x="216" y="204"/>
      <point x="251" y="204" type="curve" smooth="yes"/>
      <point x="271" y="204"/>
      <point x="293" y="196"/>
      <point x="307" y="187" type="curve"/>
    </contour>
    <contour>
      <point x="270" y="0" type="move" name="btm"/>
    </contour>
    <contour>
      <point x="267" y="822" type="move" name="top"/>
    </contour>
  </outline>
</glyph>
<glyph name="c" format="1">
  <advance width="459"/>
  <unicode hex="0063"/>
  <outline>
    <contour>
      <point x="422" y="127" type="curve" name="hr00"/>
      <point x="397" y="107"/>
      <point x="357" y="96"/>
      <point x="321" y="96" type="curve" smooth="yes"/>
      <point x="244" y="96"/>
      <point x="199" y="148"/>
      <point x="199" y="295" type="curve" smooth="yes"/>
      <point x="199" y="431"/>
      <point x="247" y="469"/>
      <point x="285" y="469" type="curve" smooth="yes"/>
      <point x="293" y="469"/>
      <point x="300" y="468"/>
      <point x="314" y="460" type="curve"/>
      <point x="297" y="446"/>
      <point x="284" y="428"/>
      <point x="284" y="396" type="curve" smooth="yes"/>
      <point x="284" y="352"/>
      <point x="315" y="317"/>
      <point x="357" y="317" type="curve" smooth="yes"/>
      <point x="407" y="317"/>
      <point x="443" y="353"/>
      <point x="443" y="417" type="curve" smooth="yes"/>
      <point x="443" y="488"/>
      <point x="388" y="543"/>
      <point x="286" y="543" type="curve" smooth="yes"/>
      <point x="138" y="543"/>
      <point x="26" y="438"/>
      <point x="26" y="260" type="curve" smooth="yes"/>
      <point x="26" y="88"/>
      <point x="127" y="-15"/>
      <point x="273" y="-15" type="curve" smooth="yes"/>
      <point x="366" y="-15"/>
      <point x="441" y="34"/>
      <point x="441" y="77" type="curve" smooth="yes"/>
      <point x="441" y="91"/>
      <point x="433" y="114"/>
    </contour>
    <contour>
      <point x="256" y="0" type="move" name="btm"/>
    </contour>
    <contour>
      <point x="271" y="822" type="move" name="top"/>
    </contour>
  </outline>
</glyph>
<glyph name="d" format="1">
  <advance width="566"/>
  <unicode hex="0064"/>
  <outline>
    <contour>
      <point x="555" y="53" type="line"/>
      <point x="524" y="59"/>
      <point x="507" y="79"/>
      <point x="507" y="111" type="curve" smooth="yes"/>
      <point x="507" y="739" type="line" smooth="yes"/>
      <point x="507" y="772"/>
      <point x="494" y="785"/>
      <point x="463" y="785" type="curve" smooth="yes"/>
      <point x="420" y="785"/>
      <point x="331" y="763"/>
      <point x="282" y="736" type="curve"/>
      <point x="282" y="695" type="line"/>
      <point x="337" y="695"/>
      <point x="349" y="676"/>
      <point x="349" y="646" type="curve" smooth="yes"/>
      <point x="349" y="596" type="line"/>
      <point x="352" y="536" type="line"/>
      <point x="330" y="538"/>
      <point x="308" y="540"/>
      <point x="291" y="540" type="curve" smooth="yes"/>
      <point x="152" y="540"/>
      <point x="28" y="441"/>
      <point x="28" y="239" type="curve" smooth="yes"/>
      <point x="28" y="69"/>
      <point x="124" y="-13"/>
      <point x="233" y="-13" type="curve" smooth="yes"/>
      <point x="287" y="-13"/>
      <point x="328" y="-3"/>
      <point x="356" y="34" type="curve"/>
      <point x="372" y="2"/>
      <point x="417" y="-13"/>
      <point x="454" y="-13" type="curve" smooth="yes"/>
      <point x="494" y="-13"/>
      <point x="537" y="0"/>
      <point x="556" y="25" type="curve"/>
    </contour>
    <contour>
      <point x="302" y="72" type="curve" smooth="yes"/>
      <point x="242" y="72"/>
      <point x="196" y="136"/>
      <point x="196" y="274" type="curve" smooth="yes"/>
      <point x="196" y="420"/>
      <point x="239" y="469"/>
      <point x="293" y="469" type="curve" smooth="yes"/>
      <point x="317" y="469"/>
      <point x="335" y="459"/>
      <point x="349" y="440" type="curve"/>
      <point x="349" y="90" type="line"/>
      <point x="339" y="79"/>
      <point x="323" y="72"/>
    </contour>
    <contour>
      <point x="343" y="0" type="move" name="btm"/>
    </contour>
    <contour>
      <point x="570" y="712" type="move" name="car"/>
    </contour>
    <contour>
      <point x="142" y="822" type="move" name="top"/>
    </contour>
  </outline>
</glyph>
<glyph name="f" format="1">
  <advance width="360"/>
  <unicode hex="0066"/>
  <outline>
    <contour>
      <point x="275" y="822" type="curve" smooth="yes"/>
      <point x="155" y="822"/>
      <point x="77" y="754"/>
      <point x="77" y="615" type="curve" smooth="yes"/>
      <point x="77" y="581"/>
      <point x="80" y="559"/>
      <point x="85" y="529" type="curve"/>
      <point x="70" y="518"/>
      <point x="55" y="509"/>
      <point x="26" y="502" type="curve"/>
      <point x="26" y="440" type="line" name="hr03"/>
      <point x="87" y="440" type="line"/>
      <point x="87" y="109" type="line" smooth="yes"/>
      <point x="87" y="70"/>
      <point x="72" y="54"/>
      <point x="32" y="54" type="curve"/>
      <point x="32" y="33"/>
      <point x="40" y="15"/>
      <point x="55" y="0" type="curve"/>
      <point x="319" y="0" type="line"/>
      <point x="334" y="15"/>
      <point x="342" y="33"/>
      <point x="342" y="54" type="curve"/>
      <point x="262" y="54"/>
      <point x="248" y="73"/>
      <point x="248" y="118" type="curve" smooth="yes"/>
      <point x="248" y="440" type="line"/>
      <point x="330" y="440" type="line"/>
      <point x="345" y="463"/>
      <point x="347" y="500"/>
      <point x="347" y="530" type="curve"/>
      <point x="251" y="530" type="line" smooth="yes"/>
      <point x="238" y="530"/>
      <point x="218" y="586"/>
      <point x="218" y="647" type="curve" smooth="yes"/>
      <point x="218" y="703"/>
      <point x="246" y="756"/>
      <point x="279" y="756" type="curve" name="hr02" smooth="yes"/>
      <point x="287" y="756"/>
      <point x="299" y="751"/>
      <point x="303" y="744" type="curve"/>
      <point x="276" y="724"/>
      <point x="273" y="702"/>
      <point x="273" y="686" type="curve" smooth="yes"/>
      <point x="273" y="648"/>
      <point x="309" y="615"/>
      <point x="349" y="615" type="curve" smooth="yes"/>
      <point x="393" y="615"/>
      <point x="421" y="653"/>
      <point x="421" y="702" type="curve" smooth="yes"/>
      <point x="421" y="752"/>
      <point x="371" y="822"/>
    </contour>
    <contour>
      <point x="192" y="0" type="move" name="btm"/>
    </contour>
    <contour>
      <point x="191" y="975" type="move" name="top"/>
    </contour>
  </outline>
</glyph>
<glyph name="j" format="1">
  <advance width="300"/>
  <unicode hex="006A"/>
  <outline>
    <contour>
      <point x="255" y="695" type="curve" name="hr00" smooth="yes"/>
      <point x="255" y="749"/>
      <point x="218" y="783"/>
      <point x="164" y="783" type="curve" smooth="yes"/>
      <point x="109" y="783"/>
      <point x="74" y="749"/>
      <point x="74" y="695" type="curve" smooth="yes"/>
      <point x="74" y="643"/>
      <point x="109" y="606"/>
      <point x="164" y="606" type="curve" smooth="yes"/>
      <point x="218" y="606"/>
      <point x="255" y="643"/>
    </contour>
    <contour>
      <point x="84" y="-188" type="curve" smooth="yes"/>
      <point x="171" y="-188"/>
      <point x="245" y="-129"/>
      <point x="245" y="-3" type="curve" smooth="yes"/>
      <point x="245" y="498" type="line" smooth="yes"/>
      <point x="245" y="531"/>
      <point x="234" y="543"/>
      <point x="202" y="543" type="curve" smooth="yes"/>
      <point x="160" y="543"/>
      <point x="69" y="521"/>
      <point x="20" y="496" type="curve"/>
      <point x="20" y="451" type="line"/>
      <point x="74" y="451"/>
      <point x="86" y="433"/>
      <point x="86" y="402" type="curve" smooth="yes"/>
      <point x="86" y="4" type="line" smooth="yes"/>
      <point x="86" y="-79"/>
      <point x="56" y="-105"/>
      <point x="4" y="-105" type="curve"/>
      <point x="0" y="-111"/>
      <point x="-5" y="-125"/>
      <point x="-5" y="-134" type="curve" smooth="yes"/>
      <point x="-5" y="-159"/>
      <point x="22" y="-188"/>
    </contour>
    <contour>
      <point x="159" y="-97" type="move" name="btm"/>
    </contour>
    <contour>
      <point x="159" y="878" type="move" name="top"/>
    </contour>
  </outline>
</glyph>
<glyph name="k" format="1">
  <advance width="585"/>
  <unicode hex="006B"/>
  <outline>
    <contour>
      <point x="459" y="217" type="curve" smooth="yes"/>
      <point x="419" y="288"/>
      <point x="375" y="302"/>
      <point x="288" y="303" type="curve"/>
      <point x="293" y="242" type="line"/>
      <point x="502" y="448" type="line" smooth="yes"/>
      <point x="516" y="461"/>
      <point x="531" y="475"/>
      <point x="567" y="475" type="curve"/>
      <point x="567" y="497"/>
      <point x="564" y="520"/>
      <point x="548" y="536" type="curve"/>
      <point x="323" y="536" type="line"/>
      <point x="308" y="520"/>
      <point x="300" y="497"/>
      <point x="300" y="475" type="curve"/>
      <point x="326" y="475"/>
      <point x="363" y="456"/>
      <point x="363" y="437" type="curve" smooth="yes"/>
      <point x="363" y="428"/>
      <point x="352" y="415"/>
      <point x="344" y="407" type="curve" smooth="yes"/>
      <point x="234" y="293" type="line"/>
      <point x="234" y="738" type="line" smooth="yes"/>
      <point x="234" y="772"/>
      <point x="221" y="785"/>
      <point x="189" y="785" type="curve" smooth="yes"/>
      <point x="147" y="785"/>
      <point x="59" y="762"/>
      <point x="10" y="736" type="curve"/>
      <point x="10" y="696" type="line"/>
      <point x="65" y="696"/>
      <point x="77" y="677"/>
      <point x="77" y="646" type="curve" smooth="yes"/>
      <point x="77" y="104" type="line" smooth="yes"/>
      <point x="77" y="65"/>
      <point x="62" y="50"/>
      <point x="22" y="50" type="curve"/>
      <point x="22" y="28"/>
      <point x="30" y="11"/>
      <point x="46" y="-3" type="curve"/>
      <point x="266" y="-3" type="line"/>
      <point x="281" y="11"/>
      <point x="290" y="28"/>
      <point x="290" y="50" type="curve"/>
      <point x="249" y="50"/>
      <point x="234" y="65"/>
      <point x="234" y="104" type="curve" smooth="yes"/>
      <point x="234" y="257" type="line"/>
      <point x="273" y="242"/>
      <point x="293" y="196"/>
      <point x="315" y="146" type="curve" smooth="yes"/>
      <point x="347" y="72"/>
      <point x="383" y="-10"/>
      <point x="493" y="-10" type="curve" smooth="yes"/>
      <point x="542" y="-10"/>
      <point x="579" y="6"/>
      <point x="583" y="34" type="curve"/>
      <point x="582" y="58" type="line"/>
      <point x="530" y="76"/>
      <point x="521" y="107"/>
    </contour>
    <contour>
      <point x="322" y="0" type="move" name="btm"/>
    </contour>
    <contour>
      <point x="295" y="972" type="move" name="top"/>
    </contour>
  </outline>
</glyph>
<glyph name="n" format="1">
  <advance width="611"/>
  <unicode hex="006E"/>
  <outline>
    <contour>
      <point x="543" y="387" type="line" name="hr00" smooth="yes"/>
      <point x="543" y="500"/>
      <point x="495" y="543"/>
      <point x="402" y="543" type="curve" smooth="yes"/>
      <point x="326" y="543"/>
      <point x="269" y="507"/>
      <point x="238" y="458" type="curve"/>
      <point x="241" y="400" type="line"/>
      <point x="258" y="428"/>
      <point x="286" y="446"/>
      <point x="319" y="446" type="curve" smooth="yes"/>
      <point x="353" y="446"/>
      <point x="381" y="428"/>
      <point x="381" y="373" type="curve" smooth="yes"/>
      <point x="381" y="61" type="line" smooth="yes"/>
      <point x="381" y="14"/>
      <point x="417" y="-6"/>
      <point x="474" y="-6" type="curve" smooth="yes"/>
      <point x="517" y="-6"/>
      <point x="571" y="6"/>
      <point x="592" y="27" type="curve"/>
      <point x="591" y="56" type="line"/>
      <point x="560" y="62"/>
      <point x="543" y="81"/>
      <point x="543" y="114" type="curve" smooth="yes"/>
    </contour>
    <contour>
      <point x="282" y="0" type="line"/>
      <point x="297" y="15"/>
      <point x="305" y="32"/>
      <point x="305" y="53" type="curve"/>
      <point x="265" y="53"/>
      <point x="250" y="69"/>
      <point x="250" y="108" type="curve" smooth="yes"/>
      <point x="250" y="455" type="line" smooth="yes"/>
      <point x="250" y="528"/>
      <point x="230" y="543"/>
      <point x="199" y="543" type="curve" smooth="yes"/>
      <point x="163" y="543"/>
      <point x="66" y="521"/>
      <point x="20" y="495" type="curve"/>
      <point x="20" y="450" type="line"/>
      <point x="71" y="450"/>
      <point x="87" y="435"/>
      <point x="87" y="400" type="curve" smooth="yes"/>
      <point x="87" y="108" type="line" smooth="yes"/>
      <point x="87" y="69"/>
      <point x="71" y="53"/>
      <point x="31" y="53" type="curve"/>
      <point x="31" y="32"/>
      <point x="40" y="15"/>
      <point x="55" y="0" type="curve"/>
    </contour>
    <contour>
      <point x="325" y="-3" type="move" name="btm"/>
    </contour>
    <contour>
      <point x="319" y="822" type="move" name="top"/>
    </contour>
  </outline>
</glyph>
<glyph name="p" format="1">
  <advance width="568"/>
  <unicode hex="0070"/>
  <outline>
    <contour>
      <point x="271" y="-11" type="curve" smooth="yes"/>
      <point x="420" y="-11"/>
      <point x="540" y="99"/>
      <point x="540" y="290" type="curve" smooth="yes"/>
      <point x="540" y="459"/>
      <point x="446" y="540"/>
      <point x="340" y="540" type="curve" smooth="yes"/>
      <point x="293" y="540"/>
      <point x="249" y="529"/>
      <point x="219" y="500" type="curve"/>
      <point x="211" y="532"/>
      <point x="192" y="540"/>
      <point x="166" y="540" type="curve" smooth="yes"/>
      <point x="131" y="540"/>
      <point x="50" y="518"/>
      <point x="6" y="492" type="curve"/>
      <point x="6" y="447" type="line"/>
      <point x="57" y="447"/>
      <point x="73" y="432"/>
      <point x="73" y="397" type="curve" smooth="yes"/>
      <point x="73" y="-82" type="line" smooth="yes"/>
      <point x="73" y="-121"/>
      <point x="66" y="-137"/>
      <point x="26" y="-137" type="curve"/>
      <point x="26" y="-159"/>
      <point x="35" y="-175"/>
      <point x="50" y="-190" type="curve"/>
      <point x="273" y="-190" type="line"/>
      <point x="288" y="-175"/>
      <point x="296" y="-159"/>
      <point x="296" y="-137" type="curve"/>
      <point x="266" y="-137"/>
      <point x="232" y="-121"/>
      <point x="232" y="-82" type="curve" smooth="yes"/>
      <point x="232" y="-9" type="line"/>
      <point x="247" y="-10"/>
      <point x="260" y="-11"/>
    </contour>
    <contour>
      <point x="369" y="266" type="curve" smooth="yes"/>
      <point x="369" y="122"/>
      <point x="324" y="62"/>
      <point x="270" y="62" type="curve" smooth="yes"/>
      <point x="256" y="62"/>
      <point x="244" y="65"/>
      <point x="232" y="72" type="curve"/>
      <point x="232" y="445" type="line"/>
      <point x="240" y="449"/>
      <point x="250" y="451"/>
      <point x="260" y="451" type="curve" smooth="yes"/>
      <point x="320" y="451"/>
      <point x="369" y="404"/>
    </contour>
    <contour>
      <point x="276" y="-100" type="move" name="btm"/>
    </contour>
    <contour>
      <point x="320" y="822" type="move" name="top"/>
    </contour>
  </outline>
</glyph>
<glyph name="u" format="1">
  <advance width="572"/>
  <unicode hex="0075"/>
  <outline>
    <contour>
      <point x="349" y="91" type="line" name="hr01" smooth="yes"/>
      <point x="349" y="26"/>
      <point x="389" y="-10"/>
      <point x="443" y="-10" type="curve" smooth="yes"/>
      <point x="486" y="-10"/>
      <point x="538" y="3"/>
      <point x="560" y="28" type="curve"/>
      <point x="560" y="56" type="line"/>
      <point x="529" y="59"/>
      <point x="512" y="82"/>
      <point x="512" y="114" type="curve" smooth="yes"/>
      <point x="512" y="482" type="line" smooth="yes"/>
      <point x="512" y="529"/>
      <point x="497" y="535"/>
      <point x="445" y="535" type="curve" smooth="yes"/>
      <point x="370" y="535"/>
      <point x="311" y="513"/>
      <point x="293" y="499" type="curve"/>
      <point x="293" y="455" type="line"/>
      <point x="328" y="455"/>
      <point x="349" y="447"/>
      <point x="349" y="424" type="curve"/>
    </contour>
    <contour>
      <point x="68" y="149" type="line"/>
      <point x="68" y="52"/>
      <point x="122" y="-10"/>
      <point x="216" y="-10" type="curve" smooth="yes"/>
      <point x="278" y="-10"/>
      <point x="328" y="17"/>
      <point x="360" y="69" type="curve"/>
      <point x="358" y="141" type="line"/>
      <point x="342" y="112"/>
      <point x="310" y="84"/>
      <point x="276" y="84" type="curve" name="hr02" smooth="yes"/>
      <point x="243" y="84"/>
      <point x="231" y="106"/>
      <point x="231" y="146" type="curve" smooth="yes"/>
      <point x="231" y="482" type="line" smooth="yes"/>
      <point x="231" y="529"/>
      <point x="219" y="535"/>
      <point x="167" y="535" type="curve" smooth="yes"/>
      <point x="97" y="535"/>
      <point x="36" y="513"/>
      <point x="19" y="499" type="curve"/>
      <point x="19" y="455" type="line"/>
      <point x="50" y="455"/>
      <point x="68" y="447"/>
      <point x="68" y="424" type="curve"/>
    </contour>
    <contour>
      <point x="319" y="0" type="move" name="btm"/>
    </contour>
    <contour>
      <point x="292" y="822" type="move" name="top"/>
    </contour>
  </outline>
</glyph>
<glyph name="w" format="1">
  <advance width="796"/>
  <unicode hex="0077"/>
  <outline>
    <contour>
      <point x="805" y="531" type="curve"/>
      <point x="614" y="531" type="line"/>
      <point x="599" y="516"/>
      <point x="595" y="492"/>
      <point x="595" y="471" type="curve"/>
      <point x="621" y="471"/>
      <point x="635" y="462"/>
      <point x="635" y="438" type="curve" smooth="yes"/>
      <point x="635" y="430"/>
      <point x="634" y="422"/>
      <point x="631" y="411" type="curve" smooth="yes"/>
      <point x="598" y="270" type="line"/>
      <point x="565" y="66" type="line"/>
      <point x="596" y="67" type="line"/>
      <point x="532" y="270" type="line"/>
      <point x="480" y="484" type="line"/>
      <point x="403" y="485" type="line"/>
      <point x="355" y="485"/>
      <point x="342" y="435"/>
      <point x="326" y="373" type="curve"/>
      <point x="297" y="269" type="line"/>
      <point x="230" y="54" type="line"/>
      <point x="269" y="52" type="line"/>
      <point x="223" y="269" type="line"/>
      <point x="197" y="405" type="line" name="hr00"/>
      <point x="196" y="412"/>
      <point x="193" y="420"/>
      <point x="193" y="426" type="curve" smooth="yes"/>
      <point x="193" y="457"/>
      <point x="213" y="471"/>
      <point x="240" y="471" type="curve"/>
      <point x="240" y="492"/>
      <point x="232" y="516"/>
      <point x="217" y="531" type="curve"/>
      <point x="-8" y="531" type="line"/>
      <point x="-23" y="516"/>
      <point x="-29" y="492"/>
      <point x="-29" y="471" type="curve"/>
      <point x="6" y="471"/>
      <point x="17" y="455"/>
      <point x="29" y="419" type="curve" smooth="yes"/>
      <point x="165" y="-7" type="line"/>
      <point x="267" y="-7" type="line"/>
      <point x="267" y="-6" type="line"/>
      <point x="312" y="2"/>
      <point x="324" y="34"/>
      <point x="342" y="100" type="curve" smooth="yes"/>
      <point x="396" y="293" type="line"/>
      <point x="490" y="-7" type="line"/>
      <point x="569" y="-7" type="line" smooth="yes"/>
      <point x="634" y="-7"/>
      <point x="648" y="25"/>
      <point x="669" y="102" type="curve" smooth="yes"/>
      <point x="758" y="425" type="line" smooth="yes"/>
      <point x="768" y="461"/>
      <point x="788" y="471"/>
      <point x="825" y="471" type="curve"/>
      <point x="825" y="492"/>
      <point x="821" y="516"/>
    </contour>
    <contour>
      <point x="393" y="348" type="move" name="hr00"/>
    </contour>
    <contour>
      <point x="400" y="-2" type="move" name="btm"/>
    </contour>
    <contour>
      <point x="417" y="822" type="move" name="top"/>
    </contour>
  </outline>
</glyph>
<glyph name="x" format="1">
  <advance width="541"/>
  <unicode hex="0078"/>
  <outline>
    <contour>
      <point x="249" y="414" type="line" name="hr00"/>
      <point x="240" y="429"/>
      <point x="235" y="441"/>
      <point x="235" y="450" type="curve" smooth="yes"/>
      <point x="235" y="464"/>
      <point x="247" y="471"/>
      <point x="268" y="471" type="curve"/>
      <point x="268" y="493"/>
      <point x="265" y="517"/>
      <point x="248" y="531" type="curve"/>
      <point x="33" y="531" type="line"/>
      <point x="16" y="517"/>
      <point x="12" y="493"/>
      <point x="12" y="471" type="curve"/>
      <point x="49" y="471"/>
      <point x="56" y="442"/>
      <point x="78" y="410" type="curve"/>
      <point x="198" y="254" type="line"/>
      <point x="216" y="224" type="line"/>
      <point x="292" y="118" type="line"/>
      <point x="300" y="106"/>
      <point x="303" y="96"/>
      <point x="303" y="86" type="curve" smooth="yes"/>
      <point x="303" y="70"/>
      <point x="290" y="58"/>
      <point x="263" y="58" type="curve"/>
      <point x="263" y="36"/>
      <point x="268" y="15"/>
      <point x="284" y="0" type="curve"/>
      <point x="518" y="0" type="line"/>
      <point x="533" y="15"/>
      <point x="543" y="36"/>
      <point x="543" y="58" type="curve"/>
      <point x="514" y="58"/>
      <point x="489" y="82"/>
      <point x="462" y="122" type="curve"/>
      <point x="334" y="299" type="line"/>
      <point x="307" y="330" type="line"/>
    </contour>
    <contour>
      <point x="452" y="420" type="line"/>
      <point x="481" y="457"/>
      <point x="505" y="471"/>
      <point x="539" y="471" type="curve"/>
      <point x="539" y="493"/>
      <point x="535" y="517"/>
      <point x="518" y="531" type="curve"/>
      <point x="345" y="531" type="line"/>
      <point x="329" y="517"/>
      <point x="325" y="493"/>
      <point x="325" y="471" type="curve"/>
      <point x="339" y="471"/>
      <point x="356" y="463"/>
      <point x="356" y="444" type="curve" smooth="yes"/>
      <point x="356" y="435"/>
      <point x="352" y="424"/>
      <point x="342" y="397" type="curve"/>
      <point x="262" y="298" type="line"/>
      <point x="302" y="239" type="line"/>
    </contour>
    <contour>
      <point x="72" y="112" type="line"/>
      <point x="53" y="86"/>
      <point x="19" y="62"/>
      <point x="-10" y="58" type="curve"/>
      <point x="-10" y="36"/>
      <point x="0" y="15"/>
      <point x="15" y="0" type="curve"/>
      <point x="197" y="0" type="line"/>
      <point x="212" y="15"/>
      <point x="217" y="36"/>
      <point x="217" y="58" type="curve"/>
      <point x="188" y="58"/>
      <point x="171" y="73"/>
      <point x="171" y="94" type="curve" smooth="yes"/>
      <point x="171" y="103"/>
      <point x="174" y="112"/>
      <point x="182" y="123" type="curve" smooth="yes"/>
      <point x="297" y="283" type="line"/>
      <point x="237" y="320" type="line"/>
    </contour>
    <contour>
      <point x="277" y="6" type="move" name="btm"/>
    </contour>
    <contour>
      <point x="277" y="981" type="move" name="top"/>
    </contour>
  </outline>
</glyph>
<glyph name="y" format="1">
  <advance width="530"/>
  <unicode hex="0079"/>
  <outline>
    <contour>
      <point x="215" y="391" type="line" name="hr00"/>
      <point x="211" y="403"/>
      <point x="210" y="415"/>
      <point x="210" y="424" type="curve" smooth="yes"/>
      <point x="210" y="451"/>
      <point x="223" y="470"/>
      <point x="256" y="470" type="curve"/>
      <point x="256" y="493"/>
      <point x="247" y="515"/>
      <point x="232" y="531" type="curve"/>
      <point x="-4" y="531" type="line"/>
      <point x="-19" y="515"/>
      <point x="-25" y="493"/>
      <point x="-25" y="470" type="curve"/>
      <point x="16" y="470"/>
      <point x="20" y="449"/>
      <point x="36" y="411" type="curve" smooth="yes"/>
      <point x="190" y="37" type="line"/>
      <point x="336" y="37" type="line"/>
    </contour>
    <contour>
      <point x="499" y="418" type="line"/>
      <point x="511" y="455"/>
      <point x="527" y="470"/>
      <point x="560" y="470" type="curve"/>
      <point x="560" y="493"/>
      <point x="555" y="515"/>
      <point x="540" y="531" type="curve"/>
      <point x="347" y="531" type="line"/>
      <point x="332" y="515"/>
      <point x="328" y="493"/>
      <point x="328" y="470" type="curve"/>
      <point x="361" y="470"/>
      <point x="377" y="456"/>
      <point x="377" y="428" type="curve" smooth="yes"/>
      <point x="377" y="422"/>
      <point x="376" y="413"/>
      <point x="374" y="404" type="curve"/>
      <point x="295" y="65" type="line"/>
      <point x="277" y="55" type="line"/>
      <point x="250" y="-42"/>
      <point x="201" y="-66"/>
      <point x="158" y="-66" type="curve" smooth="yes"/>
      <point x="123" y="-66"/>
      <point x="96" y="-55"/>
      <point x="78" y="-34" type="curve"/>
      <point x="54" y="-45"/>
      <point x="37" y="-72"/>
      <point x="37" y="-104" type="curve" smooth="yes"/>
      <point x="37" y="-152"/>
      <point x="78" y="-192"/>
      <point x="161" y="-192" type="curve" smooth="yes"/>
      <point x="261" y="-192"/>
      <point x="326" y="-126"/>
      <point x="385" y="63" type="curve"/>
    </contour>
    <contour>
      <point x="482" y="59" type="move" name="btm"/>
    </contour>
    <contour>
      <point x="291" y="822" type="move" name="top"/>
    </contour>
  </outline>
</glyph>
<glyph name="z" format="1">
  <advance width="507"/>
  <unicode hex="007A"/>
  <outline>
    <contour>
      <point x="261" y="68" type="curve" smooth="yes"/>
      <point x="143" y="68" type="line"/>
      <point x="160" y="32" type="line"/>
      <point x="247" y="131" type="line"/>
      <point x="484" y="489" type="line" name="hr02"/>
      <point x="454" y="530" type="line" name="hr03"/>
      <point x="29" y="530" type="line"/>
      <point x="30" y="465"/>
      <point x="29" y="399"/>
      <point x="46" y="351" type="curve"/>
      <point x="126" y="351" type="line"/>
      <point x="126" y="431"/>
      <point x="152" y="463"/>
      <point x="215" y="463" type="curve" smooth="yes"/>
      <point x="340" y="463" type="line"/>
      <point x="323" y="498" type="line"/>
      <point x="243" y="410" type="line"/>
      <point x="3" y="38" type="line"/>
      <point x="31" y="0" type="line" name="hr01"/>
      <point x="455" y="0" type="line"/>
      <point x="479" y="47"/>
      <point x="481" y="109"/>
      <point x="481" y="161" type="curve" smooth="yes"/>
      <point x="481" y="196" type="line"/>
      <point x="406" y="196" type="line"/>
      <point x="386" y="118"/>
      <point x="363" y="68"/>
    </contour>
    <contour>
      <point x="267" y="0" type="move" name="btm"/>
    </contour>
    <contour>
      <point x="264" y="822" type="move" name="top"/>
    </contour>
  </outline>
</glyph>
<glyph name="braceleft" format="1">
  <advance width="490"/>
  <unicode hex="007B"/>
  <outline>
    <contour>
      <point x="161" y="325" type="curve" name="hr00"/>
      <point x="243" y="357"/>
      <point x="285" y="406"/>
      <point x="285" y="478" type="curve" smooth="yes"/>
      <point x="285" y="601" type="line" smooth="yes"/>
      <point x="285" y="708"/>
      <point x="328" y="741"/>
      <point x="397" y="741" type="curve" smooth="yes"/>
      <point x="433" y="741" type="line"/>
      <point x="444" y="761"/>
      <point x="449" y="780"/>
      <point x="449" y="803" type="curve"/>
      <point x="394" y="803" type="line" smooth="yes"/>
      <point x="206" y="803"/>
      <point x="120" y="703"/>
      <point x="120" y="539" type="curve" smooth="yes"/>
      <point x="120" y="445" type="line" smooth="yes"/>
      <point x="120" y="389"/>
      <point x="81" y="349"/>
      <point x="44" y="349" type="curve"/>
      <point x="44" y="300" type="line"/>
      <point x="81" y="300"/>
      <point x="120" y="260"/>
      <point x="120" y="205" type="curve" smooth="yes"/>
      <point x="120" y="110" type="line" smooth="yes"/>
      <point x="120" y="-54"/>
      <point x="206" y="-154"/>
      <point x="394" y="-154" type="curve" smooth="yes"/>
      <point x="449" y="-154" type="line"/>
      <point x="449" y="-131"/>
      <point x="444" y="-112"/>
      <point x="433" y="-91" type="curve"/>
      <point x="397" y="-91" type="line" smooth="yes"/>
      <point x="328" y="-91"/>
      <point x="285" y="-59"/>
      <point x="285" y="48" type="curve" smooth="yes"/>
      <point x="285" y="171" type="line" smooth="yes"/>
      <point x="285" y="243"/>
      <point x="243" y="292"/>
    </contour>
  </outline>
</glyph>
<glyph name="bar" format="1">
  <advance width="112"/>
  <unicode hex="007C"/>
  <outline>
    <contour>
      <point x="96" y="711" type="line" name="hr00"/>
      <point x="84" y="716"/>
      <point x="65" y="720"/>
      <point x="47" y="720" type="curve" smooth="yes"/>
      <point x="36" y="720"/>
      <point x="24" y="718"/>
      <point x="16" y="714" type="curve"/>
      <point x="16" y="-250" type="line"/>
      <point x="29" y="-255"/>
      <point x="47" y="-258"/>
      <point x="65" y="-258" type="curve" smooth="yes"/>
      <point x="77" y="-258"/>
      <point x="88" y="-257"/>
      <point x="96" y="-253" type="curve"/>
    </contour>
  </outline>
</glyph>
<glyph name="cent" format="1">
  <advance width="495"/>
  <unicode hex="00A2"/>
  <outline>
    <contour>
      <point x="431" y="1" type="curve" name="hr01"/>
      <point x="405" y="-18"/>
      <point x="371" y="-28"/>
      <point x="335" y="-28" type="curve" smooth="yes"/>
      <point x="258" y="-28"/>
      <point x="210" y="19"/>
      <point x="210" y="171" type="curve" smooth="yes"/>
      <point x="210" y="307"/>
      <point x="257" y="348"/>
      <point x="296" y="348" type="curve" name="hr02" smooth="yes"/>
      <point x="304" y="348"/>
      <point x="312" y="348"/>
      <point x="326" y="340" type="curve"/>
      <point x="308" y="328"/>
      <point x="293" y="310"/>
      <point x="293" y="283" type="curve" smooth="yes"/>
      <point x="293" y="243"/>
      <point x="324" y="211"/>
      <point x="369" y="211" type="curve" smooth="yes"/>
      <point x="419" y="211"/>
      <point x="455" y="245"/>
      <point x="455" y="307" type="curve" smooth="yes"/>
      <point x="455" y="374"/>
      <point x="404" y="419"/>
      <point x="302" y="419" type="curve" name="hr03" smooth="yes"/>
      <point x="153" y="419"/>
      <point x="41" y="313"/>
      <point x="41" y="135" type="curve" smooth="yes"/>
      <point x="41" y="-36"/>
      <point x="141" y="-139"/>
      <point x="287" y="-139" type="curve" smooth="yes"/>
      <point x="390" y="-139"/>
      <point x="449" y="-86"/>
      <point x="449" y="-48" type="curve" smooth="yes"/>
      <point x="449" y="-34"/>
      <point x="442" y="-11"/>
    </contour>
    <contour>
      <point x="304" y="545" type="line"/>
      <point x="291" y="551"/>
      <point x="278" y="554"/>
      <point x="265" y="554" type="curve" smooth="yes"/>
      <point x="256" y="554"/>
      <point x="247" y="553"/>
      <point x="239" y="549" type="curve"/>
      <point x="239" y="391" type="line" name="hr04"/>
      <point x="251" y="385"/>
      <point x="265" y="382"/>
      <point x="279" y="382" type="curve" smooth="yes"/>
      <point x="288" y="382"/>
      <point x="297" y="384"/>
      <point x="304" y="387" type="curve" name="hr05"/>
    </contour>
    <contour>
      <point x="304" y="-97" type="line"/>
      <point x="291" y="-92"/>
      <point x="278" y="-88"/>
      <point x="265" y="-88" type="curve" smooth="yes"/>
      <point x="256" y="-88"/>
      <point x="247" y="-90"/>
      <point x="239" y="-94" type="curve"/>
      <point x="239" y="-252" type="line"/>
      <point x="251" y="-257"/>
      <point x="265" y="-260"/>
      <point x="279" y="-260" type="curve" smooth="yes"/>
      <point x="288" y="-260"/>
      <point x="297" y="-259"/>
      <point x="304" y="-255" type="curve"/>
    </contour>
  </outline>
</glyph>
<glyph name="currency" format="1">
  <advance width="681"/>
  <unicode hex="00A4"/>
  <outline>
    <contour>
      <point x="568" y="283" type="curve" smooth="yes"/>
      <point x="568" y="332"/>
      <point x="552" y="378"/>
      <point x="526" y="415" type="curve"/>
      <point x="623" y="508" type="line"/>
      <point x="609" y="530"/>
      <point x="585" y="554"/>
      <point x="565" y="566" type="curve"/>
      <point x="471" y="468" type="line"/>
      <point x="434" y="495"/>
      <point x="389" y="510"/>
      <point x="340" y="510" type="curve" smooth="yes"/>
      <point x="291" y="510"/>
      <point x="245" y="494"/>
      <point x="208" y="468" type="curve"/>
      <point x="114" y="566" type="line"/>
      <point x="96" y="556"/>
      <point x="70" y="530"/>
      <point x="58" y="508" type="curve"/>
      <point x="155" y="415" type="line"/>
      <point x="128" y="378"/>
      <point x="112" y="332"/>
      <point x="112" y="283" type="curve" smooth="yes"/>
      <point x="112" y="234"/>
      <point x="128" y="188"/>
      <point x="155" y="151" type="curve"/>
      <point x="57" y="57" type="line"/>
      <point x="68" y="39"/>
      <point x="94" y="13"/>
      <point x="116" y="0" type="curve"/>
      <point x="209" y="98" type="line"/>
      <point x="246" y="71"/>
      <point x="291" y="56"/>
      <point x="340" y="56" type="curve" smooth="yes"/>
      <point x="389" y="56"/>
      <point x="435" y="72"/>
      <point x="472" y="98" type="curve"/>
      <point x="565" y="0" type="line"/>
      <point x="587" y="14"/>
      <point x="611" y="38"/>
      <point x="623" y="58" type="curve"/>
      <point x="526" y="152" type="line"/>
      <point x="552" y="189"/>
      <point x="568" y="234"/>
    </contour>
    <contour>
      <point x="194" y="283" type="curve" smooth="yes"/>
      <point x="194" y="363"/>
      <point x="260" y="429"/>
      <point x="340" y="429" type="curve" smooth="yes"/>
      <point x="420" y="429"/>
      <point x="486" y="363"/>
      <point x="486" y="283" type="curve" smooth="yes"/>
      <point x="486" y="203"/>
      <point x="420" y="137"/>
      <point x="340" y="137" type="curve" smooth="yes"/>
      <point x="260" y="137"/>
      <point x="194" y="203"/>
    </contour>
  </outline>
</glyph>
<glyph name="brokenbar" format="1">
  <advance width="112"/>
  <unicode hex="00A6"/>
  <outline>
    <contour>
      <point x="96" y="162" type="line" name="hr00"/>
      <point x="16" y="162" type="line"/>
      <point x="16" y="-249" type="line"/>
      <point x="29" y="-254"/>
      <point x="47" y="-257"/>
      <point x="65" y="-257" type="curve" smooth="yes"/>
      <point x="77" y="-257"/>
      <point x="88" y="-256"/>
      <point x="96" y="-252" type="curve"/>
    </contour>
    <contour>
      <point x="16" y="302" type="line"/>
      <point x="96" y="302" type="line"/>
      <point x="96" y="712" type="line"/>
      <point x="83" y="717"/>
      <point x="65" y="721"/>
      <point x="47" y="721" type="curve" smooth="yes"/>
      <point x="36" y="721"/>
      <point x="24" y="719"/>
      <point x="16" y="715" type="curve"/>
    </contour>
  </outline>
</glyph>
<glyph name="ordfeminine" format="1">
  <advance width="459"/>
  <unicode hex="00AA"/>
  <outline>
    <contour>
      <point x="40" y="499" type="curve" name="hr00" smooth="yes"/>
      <point x="40" y="435"/>
      <point x="92" y="387"/>
      <point x="167" y="387" type="curve" smooth="yes"/>
      <point x="210" y="387"/>
      <point x="239" y="402"/>
      <point x="261" y="422" type="curve"/>
      <point x="275" y="399"/>
      <point x="301" y="387"/>
      <point x="336" y="387" type="curve" smooth="yes"/>
      <point x="368" y="387"/>
      <point x="404" y="397"/>
      <point x="419" y="415" type="curve"/>
      <point x="418" y="439" type="line"/>
      <point x="395" y="444"/>
      <point x="383" y="459"/>
      <point x="383" y="482" type="curve" smooth="yes"/>
      <point x="383" y="682" type="line" smooth="yes"/>
      <point x="383" y="760"/>
      <point x="332" y="800"/>
      <point x="230" y="800" type="curve" smooth="yes"/>
      <point x="117" y="800"/>
      <point x="66" y="750"/>
      <point x="66" y="702" type="curve" smooth="yes"/>
      <point x="66" y="667"/>
      <point x="92" y="640"/>
      <point x="132" y="640" type="curve" smooth="yes"/>
      <point x="167" y="640"/>
      <point x="193" y="660"/>
      <point x="193" y="691" type="curve" smooth="yes"/>
      <point x="193" y="708"/>
      <point x="184" y="723"/>
      <point x="165" y="731" type="curve"/>
      <point x="175" y="740"/>
      <point x="190" y="743"/>
      <point x="205" y="743" type="curve" smooth="yes"/>
      <point x="233" y="743"/>
      <point x="251" y="729"/>
      <point x="251" y="691" type="curve" smooth="yes"/>
      <point x="251" y="593" type="line"/>
      <point x="232" y="603"/>
      <point x="201" y="609"/>
      <point x="172" y="609" type="curve" smooth="yes"/>
      <point x="91" y="609"/>
      <point x="40" y="562"/>
    </contour>
    <contour>
      <point x="251" y="464" type="line"/>
      <point x="243" y="456"/>
      <point x="229" y="452"/>
      <point x="216" y="452" type="curve" smooth="yes"/>
      <point x="190" y="452"/>
      <point x="172" y="469"/>
      <point x="172" y="499" type="curve" smooth="yes"/>
      <point x="172" y="529"/>
      <point x="192" y="544"/>
      <point x="214" y="544" type="curve" smooth="yes"/>
      <point x="229" y="544"/>
      <point x="242" y="537"/>
      <point x="251" y="531" type="curve"/>
    </contour>
  </outline>
</glyph>
<glyph name="guillemetleft" format="1">
  <advance width="562"/>
  <unicode hex="00AB"/>
  <outline>
    <contour>
      <point x="154" y="288" type="line" name="hr00"/>
      <point x="260" y="502" type="line"/>
      <point x="249" y="524"/>
      <point x="232" y="536"/>
      <point x="212" y="544" type="curve"/>
      <point x="27" y="357" type="line"/>
      <point x="27" y="296" type="line"/>
      <point x="212" y="107" type="line"/>
      <point x="232" y="116"/>
      <point x="249" y="128"/>
      <point x="260" y="150" type="curve"/>
      <point x="154" y="364" type="line"/>
    </contour>
    <component base="guilsinglleft" xOffset="261"/>
  </outline>
</glyph>
<glyph name="registered" format="1">
  <advance width="872"/>
  <unicode hex="00AE"/>
  <outline>
    <contour>
      <point x="477" y="446" type="curve" name="hr00" smooth="yes"/>
      <point x="477" y="407"/>
      <point x="459" y="385"/>
      <point x="417" y="385" type="curve" smooth="yes"/>
      <point x="413" y="385"/>
      <point x="410" y="385"/>
      <point x="406" y="387" type="curve"/>
      <point x="406" y="501" type="line"/>
      <point x="408" y="501"/>
      <point x="410" y="501"/>
      <point x="413" y="501" type="curve" smooth="yes"/>
      <point x="465" y="501"/>
      <point x="477" y="479"/>
    </contour>
    <contour>
      <point x="587" y="453" type="curve" smooth="yes"/>
      <point x="587" y="519"/>
      <point x="547" y="559"/>
      <point x="400" y="559" type="curve" smooth="yes"/>
      <point x="352" y="559"/>
      <point x="309" y="554"/>
      <point x="278" y="552" type="curve"/>
      <point x="271" y="541"/>
      <point x="266" y="526"/>
      <point x="266" y="509" type="curve"/>
      <point x="290" y="509"/>
      <point x="300" y="502"/>
      <point x="300" y="482" type="curve" smooth="yes"/>
      <point x="300" y="247" type="line" smooth="yes"/>
      <point x="300" y="227"/>
      <point x="290" y="220"/>
      <point x="266" y="220" type="curve"/>
      <point x="266" y="204"/>
      <point x="270" y="188"/>
      <point x="278" y="177" type="curve"/>
      <point x="434" y="177" type="line"/>
      <point x="442" y="188"/>
      <point x="447" y="204"/>
      <point x="447" y="220" type="curve"/>
      <point x="423" y="220"/>
      <point x="406" y="227"/>
      <point x="406" y="247" type="curve" smooth="yes"/>
      <point x="406" y="331" type="line"/>
      <point x="436" y="331" type="line"/>
      <point x="445" y="332"/>
      <point x="462" y="334"/>
      <point x="474" y="336" type="curve" smooth="yes"/>
      <point x="560" y="353"/>
      <point x="587" y="398"/>
    </contour>
    <contour>
      <point x="395" y="341" type="line"/>
      <point x="471" y="312"/>
      <point x="453" y="169"/>
      <point x="579" y="169" type="curve" smooth="yes"/>
      <point x="608" y="169"/>
      <point x="627" y="177"/>
      <point x="640" y="192" type="curve"/>
      <point x="640" y="211" type="line"/>
      <point x="595" y="229"/>
      <point x="585" y="254"/>
      <point x="553" y="299" type="curve" smooth="yes"/>
      <point x="514" y="354"/>
      <point x="499" y="361"/>
      <point x="439" y="361" type="curve"/>
    </contour>
    <contour>
      <point x="436" y="3" type="curve" smooth="yes"/>
      <point x="648" y="3"/>
      <point x="798" y="156"/>
      <point x="798" y="365" type="curve" smooth="yes"/>
      <point x="798" y="574"/>
      <point x="648" y="726"/>
      <point x="436" y="726" type="curve" smooth="yes"/>
      <point x="225" y="726"/>
      <point x="74" y="574"/>
      <point x="74" y="365" type="curve" smooth="yes"/>
      <point x="74" y="156"/>
      <point x="225" y="3"/>
    </contour>
    <contour>
      <point x="436" y="663" type="curve" smooth="yes"/>
      <point x="613" y="663"/>
      <point x="734" y="535"/>
      <point x="734" y="365" type="curve" smooth="yes"/>
      <point x="734" y="195"/>
      <point x="613" y="67"/>
      <point x="436" y="67" type="curve" smooth="yes"/>
      <point x="260" y="67"/>
      <point x="139" y="195"/>
      <point x="139" y="365" type="curve" smooth="yes"/>
      <point x="139" y="535"/>
      <point x="260" y="663"/>
    </contour>
  </outline>
</glyph>
<glyph name="degree" format="1">
  <advance width="412"/>
  <unicode hex="00B0"/>
  <outline>
    <contour>
      <point x="205" y="503" type="curve" smooth="yes"/>
      <point x="308" y="503"/>
      <point x="375" y="569"/>
      <point x="375" y="662" type="curve" smooth="yes"/>
      <point x="375" y="752"/>
      <point x="312" y="822"/>
      <point x="206" y="822" type="curve" smooth="yes"/>
      <point x="105" y="822"/>
      <point x="37" y="756"/>
      <point x="37" y="662" type="curve" smooth="yes"/>
      <point x="37" y="571"/>
      <point x="100" y="503"/>
    </contour>
    <contour>
      <point x="206" y="556" type="curve" smooth="yes"/>
      <point x="180" y="556"/>
      <point x="155" y="579"/>
      <point x="155" y="662" type="curve" smooth="yes"/>
      <point x="155" y="748"/>
      <point x="181" y="769"/>
      <point x="206" y="769" type="curve" smooth="yes"/>
      <point x="232" y="769"/>
      <point x="255" y="745"/>
      <point x="255" y="662" type="curve" name="hr00" smooth="yes"/>
      <point x="255" y="576"/>
      <point x="231" y="556"/>
    </contour>
  </outline>
</glyph>
<glyph name="micro" format="1">
  <advance width="959"/>
  <unicode hex="00B5"/>
  <outline>
    <contour>
      <point x="525" y="-79" type="line" name="hr01" smooth="yes"/>
      <point x="525" y="-153"/>
      <point x="590" y="-193"/>
      <point x="658" y="-193" type="curve" smooth="yes"/>
      <point x="699" y="-193"/>
      <point x="749" y="-179"/>
      <point x="793" y="-117" type="curve"/>
      <point x="763" y="-81" type="line" name="hr02"/>
      <point x="753" y="-86"/>
      <point x="744" y="-88"/>
      <point x="737" y="-88" type="curve" smooth="yes"/>
      <point x="720" y="-88"/>
      <point x="709" y="-75"/>
      <point x="709" y="-48" type="curve" smooth="yes"/>
      <point x="709" y="389" type="line" smooth="yes"/>
      <point x="709" y="424"/>
      <point x="663" y="441"/>
      <point x="616" y="441" type="curve" smooth="yes"/>
      <point x="571" y="441"/>
      <point x="525" y="424"/>
      <point x="525" y="391" type="curve" smooth="yes"/>
    </contour>
    <contour>
      <point x="272" y="-128" type="line"/>
      <point x="296" y="-158"/>
      <point x="332" y="-193"/>
      <point x="391" y="-193" type="curve" smooth="yes"/>
      <point x="442" y="-193"/>
      <point x="499" y="-165"/>
      <point x="538" y="-104" type="curve"/>
      <point x="535" y="-22" type="line"/>
      <point x="516" y="-57"/>
      <point x="481" y="-87"/>
      <point x="441" y="-87" type="curve" smooth="yes"/>
      <point x="406" y="-87"/>
      <point x="377" y="-62"/>
      <point x="377" y="-17" type="curve" smooth="yes"/>
      <point x="377" y="389" type="line" smooth="yes"/>
      <point x="377" y="424"/>
      <point x="331" y="441"/>
      <point x="285" y="441" type="curve" smooth="yes"/>
      <point x="240" y="441"/>
      <point x="194" y="424"/>
      <point x="194" y="391" type="curve" smooth="yes"/>
      <point x="194" y="-4" type="line"/>
      <point x="191" y="-396" type="line"/>
      <point x="253" y="-396" type="line" smooth="yes"/>
      <point x="299" y="-396"/>
      <point x="326" y="-370"/>
      <point x="326" y="-328" type="curve" smooth="yes"/>
      <point x="326" y="-324"/>
      <point x="325" y="-320"/>
      <point x="325" y="-315" type="curve" smooth="yes"/>
      <point x="294" y="-57" type="line"/>
    </contour>
  </outline>
</glyph>
<glyph name="periodcentered" format="1">
  <advance width="255"/>
  <unicode hex="00B7"/>
  <outline>
    <contour>
      <point x="229" y="332" type="curve" name="hr00" smooth="yes"/>
      <point x="229" y="392"/>
      <point x="188" y="431"/>
      <point x="128" y="431" type="curve" smooth="yes"/>
      <point x="67" y="431"/>
      <point x="26" y="392"/>
      <point x="26" y="332" type="curve" smooth="yes"/>
      <point x="26" y="273"/>
      <point x="67" y="233"/>
      <point x="128" y="233" type="curve" smooth="yes"/>
      <point x="188" y="233"/>
      <point x="229" y="273"/>
    </contour>
  </outline>
</glyph>
<glyph name="ordmasculine" format="1">
  <advance width="447"/>
  <unicode hex="00BA"/>
  <outline>
    <contour>
      <point x="220" y="384" type="curve" smooth="yes"/>
      <point x="331" y="384"/>
      <point x="407" y="474"/>
      <point x="407" y="606" type="curve" smooth="yes"/>
      <point x="407" y="731"/>
      <point x="334" y="800"/>
      <point x="227" y="800" type="curve" smooth="yes"/>
      <point x="116" y="800"/>
      <point x="40" y="715"/>
      <point x="40" y="582" type="curve" smooth="yes"/>
      <point x="40" y="457"/>
      <point x="113" y="384"/>
    </contour>
    <contour>
      <point x="226" y="439" type="curve" smooth="yes"/>
      <point x="193" y="439"/>
      <point x="175" y="472"/>
      <point x="175" y="600" type="curve" name="hr00" smooth="yes"/>
      <point x="175" y="707"/>
      <point x="191" y="746"/>
      <point x="221" y="746" type="curve" smooth="yes"/>
      <point x="254" y="746"/>
      <point x="272" y="718"/>
      <point x="272" y="589" type="curve" smooth="yes"/>
      <point x="272" y="481"/>
      <point x="256" y="439"/>
    </contour>
  </outline>
</glyph>
<glyph name="guillemetright" format="1">
  <advance width="564"/>
  <unicode hex="00BB"/>
  <outline>
    <contour>
      <point x="410" y="287" type="line" name="hr00"/>
      <point x="410" y="363" type="line"/>
      <point x="304" y="149" type="line"/>
      <point x="315" y="127"/>
      <point x="332" y="115"/>
      <point x="352" y="106" type="curve"/>
      <point x="537" y="295" type="line"/>
      <point x="537" y="356" type="line"/>
      <point x="352" y="543" type="line"/>
      <point x="332" y="535"/>
      <point x="315" y="523"/>
      <point x="304" y="501" type="curve"/>
    </contour>
    <component base="guilsinglright"/>
  </outline>
</glyph>
<glyph name="questiondown" format="1">
  <advance width="532"/>
  <unicode hex="00BF"/>
  <outline>
    <contour>
      <point x="258" y="-272" type="curve" smooth="yes"/>
      <point x="415" y="-272"/>
      <point x="512" y="-184"/>
      <point x="512" y="-87" type="curve" smooth="yes"/>
      <point x="512" y="-15"/>
      <point x="457" y="22"/>
      <point x="409" y="22" type="curve" smooth="yes"/>
      <point x="364" y="22"/>
      <point x="320" y="-12"/>
      <point x="320" y="-61" type="curve" smooth="yes"/>
      <point x="320" y="-104"/>
      <point x="355" y="-132"/>
      <point x="388" y="-143" type="curve"/>
      <point x="368" y="-176"/>
      <point x="330" y="-195"/>
      <point x="290" y="-195" type="curve" smooth="yes"/>
      <point x="238" y="-195"/>
      <point x="199" y="-165"/>
      <point x="199" y="-92" type="curve" smooth="yes"/>
      <point x="199" y="0"/>
      <point x="262" y="67"/>
      <point x="345" y="118" type="curve"/>
      <point x="318" y="245" type="line"/>
      <point x="223" y="245" type="line"/>
      <point x="241" y="141" type="line"/>
      <point x="119" y="96"/>
      <point x="20" y="19"/>
      <point x="20" y="-91" type="curve" smooth="yes"/>
      <point x="20" y="-197"/>
      <point x="114" y="-272"/>
    </contour>
    <contour>
      <point x="147" y="430" type="curve" name="hr00" smooth="yes"/>
      <point x="147" y="370"/>
      <point x="187" y="331"/>
      <point x="248" y="331" type="curve" smooth="yes"/>
      <point x="308" y="331"/>
      <point x="349" y="370"/>
      <point x="349" y="430" type="curve" smooth="yes"/>
      <point x="349" y="490"/>
      <point x="308" y="529"/>
      <point x="248" y="529" type="curve" smooth="yes"/>
      <point x="187" y="529"/>
      <point x="147" y="490"/>
    </contour>
  </outline>
</glyph>
<glyph name="AE" format="1">
  <advance width="881"/>
  <unicode hex="00C6"/>
  <outline>
    <contour>
      <point x="774" y="184" type="line"/>
      <point x="755" y="128"/>
      <point x="717" y="88"/>
      <point x="649" y="88" type="curve" name="hr06" smooth="yes"/>
      <point x="543" y="88" type="line"/>
      <point x="543" y="318" type="line"/>
      <point x="626" y="318" type="line" smooth="yes"/>
      <point x="663" y="318"/>
      <point x="691" y="301"/>
      <point x="691" y="248" type="curve"/>
      <point x="720" y="248"/>
      <point x="749" y="256"/>
      <point x="769" y="269" type="curve"/>
      <point x="769" y="445" type="line"/>
      <point x="748" y="458"/>
      <point x="720" y="466"/>
      <point x="691" y="466" type="curve"/>
      <point x="691" y="412"/>
      <point x="663" y="391"/>
      <point x="626" y="391" type="curve" smooth="yes"/>
      <point x="543" y="391" type="line"/>
      <point x="543" y="613" type="line"/>
      <point x="639" y="613" type="line" smooth="yes"/>
      <point x="692" y="613"/>
      <point x="720" y="568"/>
      <point x="734" y="525" type="curve"/>
      <point x="759" y="531"/>
      <point x="797" y="548"/>
      <point x="814" y="563" type="curve"/>
      <point x="814" y="596"/>
      <point x="800" y="682"/>
      <point x="784" y="715" type="curve"/>
      <point x="759" y="715"/>
      <point x="732" y="709"/>
      <point x="706" y="698" type="curve"/>
      <point x="123" y="698" type="line"/>
      <point x="109" y="680"/>
      <point x="101" y="653"/>
      <point x="101" y="626" type="curve"/>
      <point x="114" y="628"/>
      <point x="128" y="629"/>
      <point x="140" y="629" type="curve" smooth="yes"/>
      <point x="203" y="629"/>
      <point x="246" y="606"/>
      <point x="252" y="570" type="curve"/>
      <point x="32" y="128" type="line" smooth="yes"/>
      <point x="13" y="89"/>
      <point x="-20" y="64"/>
      <point x="-55" y="64" type="curve" name="hr02"/>
      <point x="-55" y="41"/>
      <point x="-47" y="17"/>
      <point x="-33" y="0" type="curve"/>
      <point x="199" y="0" type="line"/>
      <point x="214" y="17"/>
      <point x="222" y="41"/>
      <point x="222" y="64" type="curve"/>
      <point x="184" y="64"/>
      <point x="160" y="78"/>
      <point x="160" y="109" type="curve" smooth="yes"/>
      <point x="160" y="122"/>
      <point x="165" y="139"/>
      <point x="174" y="159" type="curve"/>
      <point x="176" y="164" type="line"/>
      <point x="379" y="164" type="line"/>
      <point x="379" y="115" type="line" smooth="yes"/>
      <point x="379" y="77"/>
      <point x="362" y="63"/>
      <point x="318" y="63" type="curve"/>
      <point x="318" y="40"/>
      <point x="327" y="17"/>
      <point x="341" y="0" type="curve" name="hr04"/>
      <point x="749" y="0" type="line"/>
      <point x="773" y="-11"/>
      <point x="801" y="-16"/>
      <point x="824" y="-16" type="curve" name="hr05"/>
      <point x="843" y="20"/>
      <point x="856" y="145"/>
      <point x="856" y="184" type="curve"/>
    </contour>
    <contour>
      <point x="213" y="242" type="line"/>
      <point x="379" y="596" type="line"/>
      <point x="379" y="242" type="line"/>
    </contour>
    <contour>
      <point x="406" y="-12" type="move" name="btm"/>
    </contour>
    <contour>
      <point x="406" y="963" type="move" name="top"/>
    </contour>
  </outline>
</glyph>
<glyph name="Oslash" format="1">
  <advance width="669"/>
  <unicode hex="00D8"/>
  <outline>
    <contour>
      <point x="20" y="-13" type="line"/>
      <point x="94" y="-13" type="line"/>
      <point x="159" y="72" type="line"/>
      <point x="196" y="103" type="line"/>
      <point x="473" y="501" type="line"/>
      <point x="544" y="574" type="line"/>
      <point x="650" y="712" type="line"/>
      <point x="575" y="712" type="line"/>
      <point x="501" y="616" type="line"/>
      <point x="450" y="564" type="line"/>
      <point x="162" y="151" type="line"/>
      <point x="118" y="115" type="line"/>
    </contour>
    <component base="O"/>
    <contour>
      <point x="27" y="224" type="move" name="_vslash"/>
    </contour>
    <contour>
      <point x="326" y="963" type="move" name="top"/>
    </contour>
  </outline>
</glyph>
<glyph name="Thorn" format="1">
  <advance width="609"/>
  <unicode hex="00DE"/>
  <outline>
    <contour>
      <point x="314" y="572" type="curve" smooth="yes"/>
      <point x="292" y="572"/>
      <point x="270" y="571"/>
      <point x="245" y="569" type="curve"/>
      <point x="245" y="584" type="line" smooth="yes"/>
      <point x="245" y="621"/>
      <point x="261" y="635"/>
      <point x="305" y="635" type="curve"/>
      <point x="305" y="658"/>
      <point x="296" y="682"/>
      <point x="283" y="698" type="curve"/>
      <point x="48" y="698" type="line"/>
      <point x="34" y="682"/>
      <point x="26" y="658"/>
      <point x="26" y="635" type="curve" name="hr03"/>
      <point x="70" y="635"/>
      <point x="86" y="621"/>
      <point x="86" y="584" type="curve" smooth="yes"/>
      <point x="86" y="114" type="line" smooth="yes"/>
      <point x="86" y="77"/>
      <point x="70" y="64"/>
      <point x="26" y="64" type="curve"/>
      <point x="26" y="40"/>
      <point x="34" y="16"/>
      <point x="48" y="0" type="curve" name="hr04"/>
      <point x="283" y="0" type="line"/>
      <point x="296" y="16"/>
      <point x="305" y="40"/>
      <point x="305" y="64" type="curve"/>
      <point x="261" y="64"/>
      <point x="245" y="77"/>
      <point x="245" y="114" type="curve" smooth="yes"/>
      <point x="245" y="147" type="line"/>
      <point x="271" y="141"/>
      <point x="313" y="138"/>
      <point x="338" y="138" type="curve" smooth="yes"/>
      <point x="488" y="138"/>
      <point x="599" y="218"/>
      <point x="599" y="356" type="curve" smooth="yes"/>
      <point x="599" y="484"/>
      <point x="503" y="572"/>
    </contour>
    <contour>
      <point x="295" y="218" type="curve" smooth="yes"/>
      <point x="281" y="218"/>
      <point x="261" y="219"/>
      <point x="245" y="223" type="curve"/>
      <point x="245" y="486" type="line"/>
      <point x="256" y="487"/>
      <point x="270" y="488"/>
      <point x="282" y="488" type="curve" smooth="yes"/>
      <point x="371" y="488"/>
      <point x="425" y="446"/>
      <point x="425" y="356" type="curve" smooth="yes"/>
      <point x="425" y="269"/>
      <point x="374" y="218"/>
    </contour>
    <contour>
      <point x="318" y="0" type="move" name="btm"/>
    </contour>
    <contour>
      <point x="170" y="963" type="move" name="top"/>
    </contour>
  </outline>
</glyph>
<glyph name="germandbls" format="1">
  <advance width="657"/>
  <unicode hex="00DF"/>
  <outline>
    <contour>
      <point x="486" y="469" type="curve" smooth="yes"/>
      <point x="486" y="495"/>
      <point x="497" y="514"/>
      <point x="511" y="535" type="curve" smooth="yes"/>
      <point x="528" y="561"/>
      <point x="545" y="595"/>
      <point x="545" y="636" type="curve" name="hr04" smooth="yes"/>
      <point x="545" y="738"/>
      <point x="471" y="782"/>
      <point x="355" y="782" type="curve" smooth="yes"/>
      <point x="221" y="782"/>
      <point x="110" y="695"/>
      <point x="93" y="532" type="curve"/>
      <point x="74" y="518"/>
      <point x="52" y="505"/>
      <point x="20" y="496" type="curve"/>
      <point x="20" y="434" type="line"/>
      <point x="81" y="434" type="line"/>
      <point x="81" y="108" type="line" smooth="yes"/>
      <point x="81" y="68"/>
      <point x="65" y="53"/>
      <point x="26" y="53" type="curve"/>
      <point x="26" y="31"/>
      <point x="34" y="10"/>
      <point x="50" y="-5" type="curve"/>
      <point x="243" y="-5" type="line"/>
      <point x="243" y="592" type="line" smooth="yes"/>
      <point x="243" y="682"/>
      <point x="300" y="711"/>
      <point x="338" y="711" type="curve" smooth="yes"/>
      <point x="380" y="711"/>
      <point x="407" y="684"/>
      <point x="407" y="645" type="curve" name="hr02" smooth="yes"/>
      <point x="407" y="603"/>
      <point x="393" y="571"/>
      <point x="377" y="549" type="curve" smooth="yes"/>
      <point x="351" y="514"/>
      <point x="328" y="482"/>
      <point x="328" y="426" type="curve" smooth="yes"/>
      <point x="328" y="332"/>
      <point x="376" y="282"/>
      <point x="421" y="237" type="curve" smooth="yes"/>
      <point x="459" y="199"/>
      <point x="494" y="162"/>
      <point x="494" y="103" type="curve" name="hr03" smooth="yes"/>
      <point x="494" y="72"/>
      <point x="478" y="54"/>
      <point x="444" y="54" type="curve" smooth="yes"/>
      <point x="422" y="54"/>
      <point x="407" y="62"/>
      <point x="397" y="73" type="curve"/>
      <point x="407" y="84"/>
      <point x="414" y="101"/>
      <point x="414" y="119" type="curve" smooth="yes"/>
      <point x="414" y="155"/>
      <point x="390" y="181"/>
      <point x="358" y="181" type="curve" smooth="yes"/>
      <point x="315" y="181"/>
      <point x="288" y="146"/>
      <point x="288" y="103" type="curve" smooth="yes"/>
      <point x="288" y="42"/>
      <point x="341" y="-15"/>
      <point x="447" y="-15" type="curve" smooth="yes"/>
      <point x="543" y="-15"/>
      <point x="639" y="26"/>
      <point x="639" y="151" type="curve" smooth="yes"/>
      <point x="639" y="253"/>
      <point x="593" y="301"/>
      <point x="551" y="344" type="curve" smooth="yes"/>
      <point x="517" y="379"/>
      <point x="486" y="412"/>
    </contour>
    <contour>
      <point x="327" y="-5" type="move" name="btm"/>
    </contour>
    <contour>
      <point x="327" y="970" type="move" name="top"/>
    </contour>
  </outline>
</glyph>
<glyph name="ae" format="1">
  <advance width="768"/>
  <unicode hex="00E6"/>
  <outline>
    <contour>
      <point x="711" y="136" type="curve" name="hr02"/>
      <point x="676" y="111"/>
      <point x="639" y="96"/>
      <point x="594" y="96" type="curve" smooth="yes"/>
      <point x="522" y="96"/>
      <point x="474" y="136"/>
      <point x="469" y="248" type="curve"/>
      <point x="679" y="248" type="line" smooth="yes"/>
      <point x="732" y="248"/>
      <point x="744" y="292"/>
      <point x="744" y="343" type="curve" smooth="yes"/>
      <point x="744" y="470"/>
      <point x="670" y="543"/>
      <point x="553" y="543" type="curve" smooth="yes"/>
      <point x="499" y="543"/>
      <point x="452" y="528"/>
      <point x="413" y="497" type="curve"/>
      <point x="380" y="526"/>
      <point x="330" y="543"/>
      <point x="262" y="543" type="curve" smooth="yes"/>
      <point x="125" y="543"/>
      <point x="55" y="474"/>
      <point x="55" y="408" type="curve" smooth="yes"/>
      <point x="55" y="363"/>
      <point x="88" y="327"/>
      <point x="138" y="327" type="curve" smooth="yes"/>
      <point x="183" y="327"/>
      <point x="219" y="357"/>
      <point x="219" y="400" type="curve" smooth="yes"/>
      <point x="219" y="424"/>
      <point x="209" y="448"/>
      <point x="182" y="456" type="curve"/>
      <point x="195" y="466"/>
      <point x="215" y="472"/>
      <point x="235" y="472" type="curve" smooth="yes"/>
      <point x="277" y="472"/>
      <point x="304" y="450"/>
      <point x="304" y="395" type="curve" smooth="yes"/>
      <point x="304" y="263" type="line"/>
      <point x="278" y="277"/>
      <point x="232" y="285"/>
      <point x="193" y="285" type="curve" smooth="yes"/>
      <point x="85" y="285"/>
      <point x="20" y="222"/>
      <point x="20" y="136" type="curve" name="hr01" smooth="yes"/>
      <point x="20" y="49"/>
      <point x="85" y="-15"/>
      <point x="189" y="-15" type="curve" smooth="yes"/>
      <point x="261" y="-15"/>
      <point x="322" y="7"/>
      <point x="368" y="58" type="curve"/>
      <point x="411" y="11"/>
      <point x="471" y="-15"/>
      <point x="544" y="-15" type="curve" smooth="yes"/>
      <point x="659" y="-15"/>
      <point x="730" y="51"/>
      <point x="730" y="86" type="curve" smooth="yes"/>
      <point x="730" y="97"/>
      <point x="722" y="126"/>
    </contour>
    <contour>
      <point x="544" y="472" type="curve" smooth="yes"/>
      <point x="572" y="472"/>
      <point x="598" y="452"/>
      <point x="598" y="369" type="curve" smooth="yes"/>
      <point x="598" y="342"/>
      <point x="595" y="324"/>
      <point x="572" y="324" type="curve" smooth="yes"/>
      <point x="469" y="324" type="line"/>
      <point x="472" y="442"/>
      <point x="509" y="472"/>
    </contour>
    <contour>
      <point x="304" y="88" type="line"/>
      <point x="291" y="74"/>
      <point x="273" y="66"/>
      <point x="249" y="66" type="curve" smooth="yes"/>
      <point x="215" y="66"/>
      <point x="185" y="90"/>
      <point x="185" y="135" type="curve" smooth="yes"/>
      <point x="185" y="180"/>
      <point x="214" y="203"/>
      <point x="250" y="203" type="curve" smooth="yes"/>
      <point x="269" y="203"/>
      <point x="291" y="195"/>
      <point x="304" y="186" type="curve"/>
    </contour>
    <contour>
      <point x="382" y="-5" type="move" name="btm"/>
    </contour>
    <contour>
      <point x="379" y="822" type="move" name="top"/>
    </contour>
  </outline>
</glyph>
<glyph name="eogonek" format="1">
  <advance width="494"/>
  <unicode hex="0119"/>
  <outline>
    <contour>
      <point x="375" y="13" type="curve"/>
      <point x="363" y="49" type="line"/>
      <point x="314" y="49"/>
      <point x="170" y="5"/>
      <point x="170" y="-115" type="curve" smooth="yes"/>
      <point x="170" y="-197"/>
      <point x="238" y="-228"/>
      <point x="300" y="-228" type="curve" smooth="yes"/>
      <point x="347" y="-228"/>
      <point x="388" y="-213"/>
      <point x="405" y="-196" type="curve" smooth="yes"/>
      <point x="419" y="-182"/>
      <point x="423" y="-163"/>
      <point x="423" y="-144" type="curve" smooth="yes"/>
      <point x="423" y="-132"/>
      <point x="421" y="-115"/>
      <point x="415" y="-106" type="curve"/>
      <point x="403" y="-116"/>
      <point x="375" y="-124"/>
      <point x="347" y="-124" type="curve" smooth="yes"/>
      <point x="316" y="-124"/>
      <point x="284" y="-114"/>
      <point x="284" y="-85" type="curve" smooth="yes"/>
      <point x="284" y="-41"/>
      <point x="314" y="-2"/>
    </contour>
    <component base="e"/>
  </outline>
</glyph>
<glyph name="hbar" format="1">
  <advance width="611"/>
  <unicode hex="0127"/>
  <outline>
    <contour>
      <point x="23" y="640" type="line" name="hr00"/>
      <point x="18" y="631"/>
      <point x="16" y="620"/>
      <point x="16" y="601" type="curve" smooth="yes"/>
      <point x="16" y="585"/>
      <point x="18" y="573"/>
      <point x="22" y="562" type="curve"/>
      <point x="337" y="562" type="line"/>
      <point x="340" y="571"/>
      <point x="342" y="584"/>
      <point x="342" y="601" type="curve" smooth="yes"/>
      <point x="342" y="618"/>
      <point x="340" y="629"/>
      <point x="336" y="640" type="curve"/>
    </contour>
    <component base="h"/>
    <contour>
      <point x="179" y="744" type="move" name="_top"/>
    </contour>
    <contour>
      <point x="179" y="955" type="move" name="top"/>
    </contour>
  </outline>
</glyph>
<glyph name="idotless" format="1">
  <advance width="312"/>
  <unicode hex="0131"/>
  <outline>
    <contour>
      <point x="235" y="497" type="line" name="hr00" smooth="yes"/>
      <point x="235" y="530"/>
      <point x="221" y="543"/>
      <point x="190" y="543" type="curve" smooth="yes"/>
      <point x="146" y="543"/>
      <point x="64" y="522"/>
      <point x="15" y="495" type="curve"/>
      <point x="15" y="450" type="line"/>
      <point x="70" y="450"/>
      <point x="73" y="432"/>
      <point x="73" y="401" type="curve" smooth="yes"/>
      <point x="73" y="109" type="line" smooth="yes"/>
      <point x="73" y="69"/>
      <point x="58" y="54"/>
      <point x="19" y="54" type="curve"/>
      <point x="19" y="31"/>
      <point x="27" y="15"/>
      <point x="42" y="0" type="curve"/>
      <point x="266" y="0" type="line"/>
      <point x="281" y="15"/>
      <point x="289" y="31"/>
      <point x="289" y="54" type="curve"/>
      <point x="250" y="54"/>
      <point x="235" y="68"/>
      <point x="235" y="108" type="curve" smooth="yes"/>
    </contour>
    <contour>
      <point x="152" y="0" type="move" name="btm"/>
    </contour>
    <contour>
      <point x="145" y="822" type="move" name="top"/>
    </contour>
  </outline>
</glyph>
<glyph name="kgreenlandic" format="1">
  <advance width="608"/>
  <unicode hex="0138"/>
  <outline>
    <contour>
      <point x="243" y="254" type="line" name="hr00"/>
      <point x="350" y="219"/>
      <point x="319" y="-13"/>
      <point x="507" y="-13" type="curve" smooth="yes"/>
      <point x="556" y="-13"/>
      <point x="602" y="2"/>
      <point x="606" y="31" type="curve"/>
      <point x="606" y="59" type="line"/>
      <point x="554" y="78"/>
      <point x="541" y="98"/>
      <point x="472" y="204" type="curve" smooth="yes"/>
      <point x="428" y="272"/>
      <point x="389" y="289"/>
      <point x="304" y="289" type="curve"/>
    </contour>
    <contour>
      <point x="87" y="113" type="line" smooth="yes"/>
      <point x="87" y="73"/>
      <point x="72" y="58"/>
      <point x="31" y="58" type="curve"/>
      <point x="31" y="36"/>
      <point x="40" y="15"/>
      <point x="55" y="0" type="curve"/>
      <point x="282" y="0" type="line"/>
      <point x="297" y="15"/>
      <point x="305" y="36"/>
      <point x="305" y="58" type="curve"/>
      <point x="265" y="58"/>
      <point x="250" y="73"/>
      <point x="250" y="112" type="curve" smooth="yes"/>
      <point x="250" y="494" type="line" smooth="yes"/>
      <point x="250" y="527"/>
      <point x="237" y="540"/>
      <point x="205" y="540" type="curve" smooth="yes"/>
      <point x="163" y="540"/>
      <point x="68" y="518"/>
      <point x="20" y="492" type="curve"/>
      <point x="20" y="451" type="line"/>
      <point x="75" y="451"/>
      <point x="87" y="432"/>
      <point x="87" y="401" type="curve" smooth="yes"/>
    </contour>
    <contour>
      <point x="518" y="441" type="line" smooth="yes"/>
      <point x="531" y="453"/>
      <point x="544" y="469"/>
      <point x="577" y="469" type="curve"/>
      <point x="577" y="490"/>
      <point x="573" y="514"/>
      <point x="558" y="529" type="curve"/>
      <point x="355" y="529" type="line"/>
      <point x="339" y="514"/>
      <point x="332" y="490"/>
      <point x="332" y="469" type="curve"/>
      <point x="358" y="469"/>
      <point x="376" y="450"/>
      <point x="376" y="430" type="curve" smooth="yes"/>
      <point x="376" y="420"/>
      <point x="371" y="410"/>
      <point x="362" y="401" type="curve" smooth="yes"/>
      <point x="247" y="288" type="line"/>
      <point x="247" y="255" type="line"/>
      <point x="350" y="278" type="line"/>
    </contour>
  </outline>
</glyph>
<glyph name="Eng" format="1">
  <advance width="707"/>
  <unicode hex="014A"/>
  <outline>
    <contour>
      <point x="470" y="-221" type="curve" smooth="yes"/>
      <point x="557" y="-221"/>
      <point x="631" y="-162"/>
      <point x="631" y="-36" type="curve" smooth="yes"/>
      <point x="631" y="214" type="line"/>
      <point x="497" y="118" type="line"/>
      <point x="497" y="-29" type="line" smooth="yes"/>
      <point x="497" y="-112"/>
      <point x="442" y="-138"/>
      <point x="390" y="-138" type="curve"/>
      <point x="386" y="-144"/>
      <point x="381" y="-158"/>
      <point x="381" y="-167" type="curve" smooth="yes"/>
      <point x="381" y="-192"/>
      <point x="408" y="-221"/>
    </contour>
    <component base="N"/>
  </outline>
</glyph>
<glyph name="Tbar" format="1">
  <advance width="646"/>
  <unicode hex="0166"/>
  <outline>
    <contour>
      <point x="128" y="392" type="line" name="hr00"/>
      <point x="123" y="383"/>
      <point x="121" y="365"/>
      <point x="121" y="346" type="curve" smooth="yes"/>
      <point x="121" y="330"/>
      <point x="123" y="313"/>
      <point x="127" y="302" type="curve"/>
      <point x="522" y="302" type="line"/>
      <point x="525" y="311"/>
      <point x="527" y="329"/>
      <point x="527" y="346" type="curve" smooth="yes"/>
      <point x="527" y="363"/>
      <point x="525" y="381"/>
      <point x="521" y="392" type="curve"/>
    </contour>
    <component base="T"/>
    <contour>
      <point x="323" y="1137" type="move" name="top"/>
    </contour>
  </outline>
</glyph>
<glyph name="tbar" format="1">
  <advance width="377"/>
  <unicode hex="0167"/>
  <outline>
    <contour>
      <point x="17" y="344" type="line" name="hr00"/>
      <point x="12" y="335"/>
      <point x="10" y="317"/>
      <point x="10" y="298" type="curve" smooth="yes"/>
      <point x="10" y="282"/>
      <point x="12" y="265"/>
      <point x="17" y="254" type="curve"/>
      <point x="336" y="254" type="line"/>
      <point x="348" y="273"/>
      <point x="350" y="318"/>
      <point x="350" y="344" type="curve"/>
    </contour>
    <component base="t"/>
  </outline>
</glyph>
<glyph name="Schwa" format="1">
  <advance width="591"/>
  <unicode hex="018F"/>
  <outline>
    <contour>
      <point x="89" y="503" type="curve" name="hr00"/>
      <point x="127" y="534"/>
      <point x="181" y="561"/>
      <point x="252" y="561" type="curve" smooth="yes"/>
      <point x="353" y="561"/>
      <point x="407" y="503"/>
      <point x="407" y="341" type="curve" smooth="yes"/>
      <point x="407" y="289" type="line" smooth="yes"/>
      <point x="407" y="118"/>
      <point x="331" y="89"/>
      <point x="277" y="89" type="curve" smooth="yes"/>
      <point x="235" y="89"/>
      <point x="173" y="118"/>
      <point x="173" y="228" type="curve" smooth="yes"/>
      <point x="173" y="262"/>
      <point x="172" y="281"/>
      <point x="198" y="281" type="curve" smooth="yes"/>
      <point x="455" y="281" type="line"/>
      <point x="460" y="364" type="line"/>
      <point x="101" y="364" type="line" smooth="yes"/>
      <point x="38" y="364"/>
      <point x="25" y="306"/>
      <point x="25" y="240" type="curve" smooth="yes"/>
      <point x="25" y="75"/>
      <point x="121" y="-14"/>
      <point x="270" y="-14" type="curve" smooth="yes"/>
      <point x="438" y="-14"/>
      <point x="566" y="119"/>
      <point x="566" y="346" type="curve" smooth="yes"/>
      <point x="566" y="566"/>
      <point x="452" y="695"/>
      <point x="278" y="695" type="curve" smooth="yes"/>
      <point x="145" y="695"/>
      <point x="58" y="623"/>
      <point x="58" y="581" type="curve" smooth="yes"/>
      <point x="58" y="563"/>
      <point x="76" y="518"/>
    </contour>
  </outline>
</glyph>
<glyph name="florin" format="1">
  <advance width="579"/>
  <unicode hex="0192"/>
  <outline>
    <contour>
      <point x="135" y="94" type="line" name="hr00" smooth="yes"/>
      <point x="124" y="12"/>
      <point x="102" y="-16"/>
      <point x="49" y="-16" type="curve"/>
      <point x="44" y="-23"/>
      <point x="41" y="-37"/>
      <point x="41" y="-45" type="curve" smooth="yes"/>
      <point x="41" y="-70"/>
      <point x="68" y="-100"/>
      <point x="130" y="-100" type="curve" smooth="yes"/>
      <point x="218" y="-100"/>
      <point x="282" y="-41"/>
      <point x="299" y="87" type="curve" smooth="yes"/>
      <point x="339" y="404" type="line"/>
      <point x="442" y="404" type="line"/>
      <point x="460" y="428"/>
      <point x="466" y="465"/>
      <point x="470" y="494" type="curve"/>
      <point x="364" y="494" type="line" smooth="yes"/>
      <point x="330" y="494"/>
      <point x="321" y="516"/>
      <point x="321" y="551" type="curve" smooth="yes"/>
      <point x="321" y="563"/>
      <point x="322" y="578"/>
      <point x="324" y="594" type="curve" smooth="yes"/>
      <point x="331" y="650"/>
      <point x="367" y="686"/>
      <point x="393" y="686" type="curve" smooth="yes"/>
      <point x="403" y="686"/>
      <point x="405" y="685"/>
      <point x="412" y="679" type="curve"/>
      <point x="393" y="668"/>
      <point x="384" y="638"/>
      <point x="384" y="620" type="curve" smooth="yes"/>
      <point x="384" y="584"/>
      <point x="412" y="561"/>
      <point x="449" y="561" type="curve" smooth="yes"/>
      <point x="497" y="561"/>
      <point x="536" y="602"/>
      <point x="544" y="656" type="curve" smooth="yes"/>
      <point x="544" y="660"/>
      <point x="544" y="664"/>
      <point x="544" y="669" type="curve" smooth="yes"/>
      <point x="544" y="717"/>
      <point x="508" y="757"/>
      <point x="423" y="757" type="curve" smooth="yes"/>
      <point x="294" y="757"/>
      <point x="190" y="656"/>
      <point x="190" y="509" type="curve" smooth="yes"/>
      <point x="190" y="493"/>
      <point x="191" y="477"/>
      <point x="193" y="461" type="curve"/>
      <point x="208" y="505" type="line"/>
      <point x="185" y="488"/>
      <point x="161" y="476"/>
      <point x="122" y="466" type="curve"/>
      <point x="115" y="404" type="line"/>
      <point x="175" y="404" type="line"/>
    </contour>
  </outline>
</glyph>
<glyph name="Ohorn" format="1">
  <advance width="675"/>
  <unicode hex="01A0"/>
  <outline>
    <contour>
      <point x="455" y="671" type="curve"/>
      <point x="462" y="624" type="line"/>
      <point x="537" y="624" type="line" name="hr01" smooth="yes"/>
      <point x="619" y="624"/>
      <point x="667" y="675"/>
      <point x="667" y="721" type="curve" smooth="yes"/>
      <point x="667" y="755"/>
      <point x="659" y="788"/>
      <point x="631" y="810" type="curve"/>
      <point x="560" y="810" type="line"/>
      <point x="574" y="721"/>
      <point x="544" y="671"/>
    </contour>
    <component base="O"/>
  </outline>
</glyph>
<glyph name="ohorn" format="1">
  <advance width="548"/>
  <unicode hex="01A1"/>
  <outline>
    <contour>
      <point x="391" y="539" type="curve"/>
      <point x="310" y="540" type="line"/>
      <point x="398" y="470" type="line"/>
      <point x="455" y="470" type="line" name="hr01" smooth="yes"/>
      <point x="497" y="470"/>
      <point x="558" y="494"/>
      <point x="558" y="563" type="curve" smooth="yes"/>
      <point x="558" y="597"/>
      <point x="550" y="620"/>
      <point x="522" y="642" type="curve"/>
      <point x="461" y="642" type="line"/>
      <point x="475" y="553"/>
      <point x="438" y="539"/>
    </contour>
    <component base="o"/>
  </outline>
</glyph>
<glyph name="Uhorn" format="1">
  <advance width="691"/>
  <unicode hex="01AF"/>
  <outline>
    <contour>
      <point x="685" y="810" type="curve"/>
      <point x="621" y="810" type="line"/>
      <point x="623" y="796"/>
      <point x="624" y="784"/>
      <point x="624" y="773" type="curve" smooth="yes"/>
      <point x="624" y="714"/>
      <point x="593" y="698"/>
      <point x="540" y="698" type="curve" smooth="yes"/>
      <point x="426" y="698" type="line"/>
      <point x="411" y="682"/>
      <point x="404" y="659"/>
      <point x="404" y="635" type="curve"/>
      <point x="454" y="635"/>
      <point x="475" y="621"/>
      <point x="475" y="585" type="curve" smooth="yes"/>
      <point x="475" y="226" type="line" smooth="yes"/>
      <point x="475" y="148"/>
      <point x="445" y="83"/>
      <point x="355" y="83" type="curve" smooth="yes"/>
      <point x="267" y="83"/>
      <point x="231" y="152"/>
      <point x="231" y="242" type="curve" smooth="yes"/>
      <point x="231" y="585" type="line" smooth="yes"/>
      <point x="231" y="621"/>
      <point x="248" y="635"/>
      <point x="293" y="635" type="curve"/>
      <point x="293" y="659"/>
      <point x="285" y="682"/>
      <point x="270" y="698" type="curve"/>
      <point x="20" y="698" type="line"/>
      <point x="5" y="682"/>
      <point x="-3" y="659"/>
      <point x="-3" y="635" type="curve"/>
      <point x="42" y="635"/>
      <point x="59" y="621"/>
      <point x="59" y="585" type="curve" smooth="yes"/>
      <point x="59" y="263" type="line" smooth="yes"/>
      <point x="59" y="82"/>
      <point x="166" y="-13"/>
      <point x="337" y="-13" type="curve" smooth="yes"/>
      <point x="511" y="-13"/>
      <point x="597" y="89"/>
      <point x="597" y="273" type="curve" smooth="yes"/>
      <point x="597" y="585" type="line" name="hr00" smooth="yes"/>
      <point x="597" y="621"/>
      <point x="605" y="635"/>
      <point x="641" y="635" type="curve" name="hr01" smooth="yes"/>
      <point x="685" y="635"/>
      <point x="721" y="686"/>
      <point x="721" y="732" type="curve" smooth="yes"/>
      <point x="721" y="766"/>
      <point x="713" y="788"/>
    </contour>
    <contour>
      <point x="335" y="-4" type="move" name="btm"/>
    </contour>
    <contour>
      <point x="338" y="963" type="move" name="top"/>
    </contour>
  </outline>
</glyph>
<glyph name="Oogonek" format="1">
  <advance width="675"/>
  <unicode hex="01EA"/>
  <outline>
    <contour>
      <point x="462" y="13" type="curve"/>
      <point x="450" y="49" type="line"/>
      <point x="401" y="49"/>
      <point x="257" y="5"/>
      <point x="257" y="-115" type="curve" smooth="yes"/>
      <point x="257" y="-197"/>
      <point x="325" y="-228"/>
      <point x="387" y="-228" type="curve" smooth="yes"/>
      <point x="434" y="-228"/>
      <point x="475" y="-213"/>
      <point x="492" y="-196" type="curve" smooth="yes"/>
      <point x="506" y="-182"/>
      <point x="510" y="-163"/>
      <point x="510" y="-144" type="curve" smooth="yes"/>
      <point x="510" y="-132"/>
      <point x="508" y="-115"/>
      <point x="502" y="-106" type="curve"/>
      <point x="490" y="-116"/>
      <point x="462" y="-124"/>
      <point x="434" y="-124" type="curve" smooth="yes"/>
      <point x="403" y="-124"/>
      <point x="371" y="-114"/>
      <point x="371" y="-85" type="curve" smooth="yes"/>
      <point x="371" y="-41"/>
      <point x="401" y="-2"/>
    </contour>
    <component base="O"/>
  </outline>
</glyph>
<glyph name="oogonek" format="1">
  <advance width="548"/>
  <unicode hex="01EB"/>
  <outline>
    <contour>
      <point x="371" y="6" type="curve"/>
      <point x="359" y="42" type="line"/>
      <point x="310" y="42"/>
      <point x="166" y="-2"/>
      <point x="166" y="-122" type="curve" smooth="yes"/>
      <point x="166" y="-204"/>
      <point x="234" y="-235"/>
      <point x="296" y="-235" type="curve" smooth="yes"/>
      <point x="343" y="-235"/>
      <point x="384" y="-220"/>
      <point x="401" y="-203" type="curve" smooth="yes"/>
      <point x="415" y="-189"/>
      <point x="419" y="-170"/>
      <point x="419" y="-151" type="curve" smooth="yes"/>
      <point x="419" y="-139"/>
      <point x="417" y="-122"/>
      <point x="411" y="-113" type="curve"/>
      <point x="399" y="-123"/>
      <point x="371" y="-131"/>
      <point x="343" y="-131" type="curve" smooth="yes"/>
      <point x="312" y="-131"/>
      <point x="280" y="-121"/>
      <point x="280" y="-92" type="curve" smooth="yes"/>
      <point x="280" y="-48"/>
      <point x="310" y="-9"/>
    </contour>
    <component base="o"/>
  </outline>
</glyph>
<glyph name="doubleprimemod" format="1">
  <advance width="0"/>
  <unicode hex="02BA"/>
  <outline>
    <contour>
      <point x="-122" y="855" type="curve" name="hr00"/>
      <point x="-131" y="806"/>
      <point x="-156" y="685"/>
      <point x="-173" y="629" type="curve"/>
      <point x="-162" y="619"/>
      <point x="-150" y="617"/>
      <point x="-139" y="617" type="curve" smooth="yes"/>
      <point x="-126" y="617"/>
      <point x="-116" y="617"/>
      <point x="-104" y="627" type="curve" smooth="yes"/>
      <point x="-77" y="649"/>
      <point x="-16" y="777"/>
      <point x="-16" y="821" type="curve" smooth="yes"/>
      <point x="-16" y="852"/>
      <point x="-34" y="864"/>
      <point x="-78" y="864" type="curve" smooth="yes"/>
      <point x="-96" y="864"/>
      <point x="-115" y="860"/>
    </contour>
    <contour>
      <point x="64" y="855" type="curve" name="hr00"/>
      <point x="55" y="806"/>
      <point x="30" y="685"/>
      <point x="13" y="629" type="curve"/>
      <point x="24" y="619"/>
      <point x="36" y="617"/>
      <point x="47" y="617" type="curve" smooth="yes"/>
      <point x="60" y="617"/>
      <point x="70" y="617"/>
      <point x="82" y="627" type="curve" smooth="yes"/>
      <point x="109" y="649"/>
      <point x="170" y="777"/>
      <point x="170" y="821" type="curve" smooth="yes"/>
      <point x="170" y="852"/>
      <point x="152" y="864"/>
      <point x="108" y="864" type="curve" smooth="yes"/>
      <point x="90" y="864"/>
      <point x="71" y="860"/>
    </contour>
    <contour>
      <point x="0" y="822" type="move" name="_top"/>
    </contour>
    <contour>
      <point x="0" y="1033" type="move" name="top"/>
    </contour>
  </outline>
</glyph>
<glyph name="apostrophemod" format="1">
  <advance width="187"/>
  <unicode hex="02BC"/>
  <outline>
    <contour>
      <point x="-6" y="889" type="curve" smooth="yes"/>
      <point x="-54" y="889"/>
      <point x="-87" y="858"/>
      <point x="-87" y="809" type="curve" smooth="yes"/>
      <point x="-87" y="770"/>
      <point x="-61" y="733"/>
      <point x="-11" y="733" type="curve" smooth="yes"/>
      <point x="-7" y="733"/>
      <point x="-3" y="734"/>
      <point x="1" y="735" type="curve"/>
      <point x="2" y="731"/>
      <point x="3" y="727"/>
      <point x="3" y="724" type="curve" smooth="yes"/>
      <point x="3" y="692"/>
      <point x="-16" y="671"/>
      <point x="-45" y="655" type="curve"/>
      <point x="-45" y="638"/>
      <point x="-32" y="621"/>
      <point x="-19" y="617" type="curve" name="hr00"/>
      <point x="69" y="648"/>
      <point x="89" y="734"/>
      <point x="89" y="777" type="curve" smooth="yes"/>
      <point x="89" y="856"/>
      <point x="47" y="889"/>
    </contour>
    <contour>
      <point x="0" y="822" type="move" name="_top"/>
    </contour>
  </outline>
</glyph>
<glyph name="secondtonechinese" format="1">
  <advance width="125"/>
  <unicode hex="02CA"/>
  <outline>
    <contour>
      <point x="92" y="864" type="curve" name="hr00"/>
      <point x="48" y="781"/>
      <point x="-36" y="705"/>
      <point x="-100" y="663" type="curve"/>
      <point x="-96" y="631"/>
      <point x="-73" y="617"/>
      <point x="-47" y="617" type="curve" smooth="yes"/>
      <point x="22" y="617"/>
      <point x="179" y="712"/>
      <point x="179" y="784" type="curve" smooth="yes"/>
      <point x="179" y="817"/>
      <point x="145" y="864"/>
    </contour>
    <contour>
      <point x="0" y="822" type="move" name="_top"/>
    </contour>
  </outline>
</glyph>
<glyph name="fourthtonechinese" format="1">
  <advance width="0"/>
  <unicode hex="02CB"/>
  <outline>
    <contour>
      <point x="-81" y="864" type="curve" name="hr00"/>
      <point x="-134" y="864"/>
      <point x="-168" y="817"/>
      <point x="-168" y="784" type="curve" smooth="yes"/>
      <point x="-168" y="713"/>
      <point x="-10" y="617"/>
      <point x="58" y="617" type="curve" smooth="yes"/>
      <point x="84" y="617"/>
      <point x="107" y="631"/>
      <point x="111" y="663" type="curve"/>
      <point x="46" y="705"/>
      <point x="-37" y="781"/>
    </contour>
    <contour>
      <point x="0" y="822" type="move" name="_top"/>
    </contour>
    <contour>
      <point x="144" y="936" type="move" name="top"/>
    </contour>
  </outline>
</glyph>
<glyph name="verticallinelowmod" format="1">
  <advance width="0"/>
  <unicode hex="02CC"/>
  <outline>
    <contour>
      <point x="-57" y="-291" type="line"/>
      <point x="-44" y="-298"/>
      <point x="-20" y="-300"/>
      <point x="2" y="-300" type="curve" smooth="yes"/>
      <point x="22" y="-300"/>
      <point x="44" y="-298"/>
      <point x="57" y="-292" type="curve"/>
      <point x="57" y="4" type="line"/>
      <point x="45" y="10"/>
      <point x="23" y="13"/>
      <point x="1" y="13" type="curve" smooth="yes"/>
      <point x="-20" y="13"/>
      <point x="-43" y="10"/>
      <point x="-57" y="4" type="curve"/>
    </contour>
    <contour>
      <point x="0" y="-53" type="move" name="_btm"/>
    </contour>
  </outline>
</glyph>
<glyph name="ogonek" format="1">
  <advance width="301"/>
  <unicode hex="02DB"/>
  <outline>
    <contour>
      <point x="225" y="3" type="curve"/>
      <point x="214" y="37" type="line"/>
      <point x="167" y="37"/>
      <point x="30" y="-5"/>
      <point x="30" y="-119" type="curve" smooth="yes"/>
      <point x="30" y="-197"/>
      <point x="95" y="-227"/>
      <point x="154" y="-227" type="curve" smooth="yes"/>
      <point x="199" y="-227"/>
      <point x="238" y="-212"/>
      <point x="254" y="-196" type="curve" smooth="yes"/>
      <point x="267" y="-183"/>
      <point x="271" y="-165"/>
      <point x="271" y="-147" type="curve" smooth="yes"/>
      <point x="271" y="-135"/>
      <point x="269" y="-119"/>
      <point x="263" y="-111" type="curve"/>
      <point x="252" y="-120"/>
      <point x="225" y="-128"/>
      <point x="199" y="-128" type="curve" smooth="yes"/>
      <point x="169" y="-128"/>
      <point x="139" y="-118"/>
      <point x="139" y="-91" type="curve" smooth="yes"/>
      <point x="139" y="-49"/>
      <point x="167" y="-12"/>
    </contour>
  </outline>
</glyph>
<glyph name="hungarumlautcomb" format="1">
  <advance width="0"/>
  <unicode hex="030B"/>
  <outline>
    <contour>
      <point x="-14" y="868" type="curve" name="hr00"/>
      <point x="-58" y="785"/>
      <point x="-78" y="729"/>
      <point x="-143" y="663" type="curve"/>
      <point x="-139" y="630"/>
      <point x="-143" y="617"/>
      <point x="-117" y="617" type="curve" smooth="yes"/>
      <point x="-49" y="617"/>
      <point x="69" y="744"/>
      <point x="69" y="815" type="curve" smooth="yes"/>
      <point x="69" y="848"/>
      <point x="39" y="868"/>
    </contour>
    <contour>
      <point x="205" y="864" type="curve"/>
      <point x="161" y="781"/>
      <point x="122" y="704"/>
      <point x="58" y="663" type="curve"/>
      <point x="62" y="630"/>
      <point x="58" y="617"/>
      <point x="83" y="617" type="curve" smooth="yes"/>
      <point x="152" y="617"/>
      <point x="288" y="739"/>
      <point x="288" y="811" type="curve" smooth="yes"/>
      <point x="288" y="844"/>
      <point x="258" y="864"/>
    </contour>
    <contour>
      <point x="0" y="822" type="move" name="_top"/>
    </contour>
    <contour>
      <point x="0" y="1033" type="move" name="top"/>
    </contour>
  </outline>
</glyph>
<glyph name="caroncomb" format="1">
  <advance width="0"/>
  <unicode hex="030C"/>
  <outline>
    <contour>
      <point x="131" y="832" type="curve" name="hr00"/>
      <point x="0" y="731" type="line"/>
      <point x="-132" y="832" type="line"/>
      <point x="-157" y="822"/>
      <point x="-179" y="802"/>
      <point x="-186" y="780" type="curve"/>
      <point x="-38" y="617" type="line"/>
      <point x="38" y="617" type="line"/>
      <point x="186" y="780" type="line"/>
      <point x="178" y="802"/>
      <point x="156" y="822"/>
    </contour>
    <contour>
      <point x="0" y="822" type="move" name="_top"/>
    </contour>
    <contour>
      <point x="0" y="1033" type="move" name="top"/>
    </contour>
  </outline>
</glyph>
<glyph name="dblgravecomb" format="1">
  <advance width="376"/>
  <unicode hex="030F"/>
  <outline>
    <contour>
      <point x="-103" y="617" type="curve" smooth="yes"/>
      <point x="-78" y="617"/>
      <point x="-82" y="630"/>
      <point x="-78" y="663" type="curve"/>
      <point x="-142" y="704"/>
      <point x="-180" y="781"/>
      <point x="-225" y="864" type="curve"/>
      <point x="-277" y="864"/>
      <point x="-308" y="844"/>
      <point x="-308" y="811" type="curve" smooth="yes"/>
      <point x="-308" y="739"/>
      <point x="-171" y="617"/>
    </contour>
    <contour>
      <point x="98" y="617" type="curve" smooth="yes"/>
      <point x="123" y="617"/>
      <point x="119" y="630"/>
      <point x="123" y="663" type="curve"/>
      <point x="58" y="729"/>
      <point x="39" y="785"/>
      <point x="-6" y="868" type="curve" name="hr00"/>
      <point x="-58" y="868"/>
      <point x="-88" y="848"/>
      <point x="-88" y="815" type="curve" smooth="yes"/>
      <point x="-88" y="744"/>
      <point x="30" y="617"/>
    </contour>
    <contour>
      <point x="0" y="822" type="move" name="_top"/>
    </contour>
    <contour>
      <point x="0" y="1033" type="move" name="top"/>
    </contour>
  </outline>
</glyph>
<glyph name="breveinvertedcomb" format="1">
  <advance width="0"/>
  <unicode hex="0311"/>
  <outline>
    <contour>
      <point x="-180" y="635" type="curve"/>
      <point x="-176" y="622"/>
      <point x="-157" y="615"/>
      <point x="-138" y="615" type="curve" smooth="yes"/>
      <point x="-121" y="615"/>
      <point x="-99" y="620"/>
      <point x="-92" y="631" type="curve"/>
      <point x="-92" y="676"/>
      <point x="-60" y="720"/>
      <point x="0" y="720" type="curve" smooth="yes"/>
      <point x="60" y="720"/>
      <point x="92" y="676"/>
      <point x="92" y="631" type="curve"/>
      <point x="99" y="620"/>
      <point x="122" y="615"/>
      <point x="138" y="615" type="curve" smooth="yes"/>
      <point x="158" y="615"/>
      <point x="176" y="622"/>
      <point x="180" y="635" type="curve"/>
      <point x="180" y="747"/>
      <point x="110" y="817"/>
      <point x="0" y="817" type="curve" smooth="yes"/>
      <point x="-111" y="817"/>
      <point x="-180" y="747"/>
    </contour>
    <contour>
      <point x="0" y="822" type="move" name="_top"/>
    </contour>
    <contour>
      <point x="0" y="1033" type="move" name="top"/>
    </contour>
  </outline>
</glyph>
<glyph name="commaturnedabovecomb" format="1">
  <advance width="0"/>
  <unicode hex="0312"/>
  <outline>
    <contour>
      <point x="1" y="617" type="curve" smooth="yes"/>
      <point x="49" y="617"/>
      <point x="82" y="648"/>
      <point x="82" y="697" type="curve" smooth="yes"/>
      <point x="82" y="736"/>
      <point x="56" y="773"/>
      <point x="6" y="773" type="curve" smooth="yes"/>
      <point x="2" y="773"/>
      <point x="-2" y="772"/>
      <point x="-6" y="771" type="curve"/>
      <point x="-7" y="775"/>
      <point x="-8" y="779"/>
      <point x="-8" y="782" type="curve" smooth="yes"/>
      <point x="-8" y="814"/>
      <point x="11" y="835"/>
      <point x="40" y="851" type="curve"/>
      <point x="40" y="868"/>
      <point x="27" y="885"/>
      <point x="14" y="889" type="curve" name="hr00"/>
      <point x="-74" y="858"/>
      <point x="-94" y="772"/>
      <point x="-94" y="729" type="curve" smooth="yes"/>
      <point x="-94" y="650"/>
      <point x="-52" y="617"/>
    </contour>
    <contour>
      <point x="0" y="822" type="move" name="_top"/>
    </contour>
  </outline>
</glyph>
<glyph name="horncomb" format="1">
  <advance width="0"/>
  <unicode hex="031B"/>
  <outline>
    <contour>
      <point x="-4" y="539" type="curve"/>
      <point x="-85" y="540" type="line"/>
      <point x="3" y="470" type="line"/>
      <point x="60" y="470" type="line" name="hr01" smooth="yes"/>
      <point x="102" y="470"/>
      <point x="163" y="494"/>
      <point x="163" y="563" type="curve" smooth="yes"/>
      <point x="163" y="597"/>
      <point x="155" y="620"/>
      <point x="127" y="642" type="curve"/>
      <point x="66" y="642" type="line"/>
      <point x="80" y="553"/>
      <point x="43" y="539"/>
    </contour>
    <contour>
      <point x="0" y="822" type="move" name="_horn"/>
    </contour>
  </outline>
</glyph>
<glyph name="dotbelowcomb" format="1">
  <advance width="0"/>
  <unicode hex="0323"/>
  <outline>
    <contour>
      <point x="95" y="-167" type="curve" smooth="yes"/>
      <point x="95" y="-111"/>
      <point x="58" y="-73"/>
      <point x="0" y="-73" type="curve" smooth="yes"/>
      <point x="-58" y="-73"/>
      <point x="-96" y="-111"/>
      <point x="-96" y="-167" type="curve" smooth="yes"/>
      <point x="-96" y="-224"/>
      <point x="-60" y="-261"/>
      <point x="-2" y="-261" type="curve" smooth="yes"/>
      <point x="56" y="-261"/>
      <point x="95" y="-224"/>
    </contour>
    <contour>
      <point x="0" y="0" type="move" name="_btm"/>
    </contour>
  </outline>
</glyph>
<glyph name="dieresisbelowcomb" format="1">
  <advance width="0"/>
  <unicode hex="0324"/>
  <outline>
    <contour>
      <point x="-42" y="-162" type="curve" name="hr00" smooth="yes"/>
      <point x="-42" y="-112"/>
      <point x="-71" y="-73"/>
      <point x="-122" y="-73" type="curve" smooth="yes"/>
      <point x="-174" y="-73"/>
      <point x="-203" y="-112"/>
      <point x="-203" y="-162" type="curve" smooth="yes"/>
      <point x="-203" y="-213"/>
      <point x="-174" y="-256"/>
      <point x="-122" y="-256" type="curve" smooth="yes"/>
      <point x="-71" y="-256"/>
      <point x="-42" y="-213"/>
    </contour>
    <contour>
      <point x="203" y="-162" type="curve" smooth="yes"/>
      <point x="203" y="-112"/>
      <point x="174" y="-73"/>
      <point x="122" y="-73" type="curve" smooth="yes"/>
      <point x="71" y="-73"/>
      <point x="42" y="-112"/>
      <point x="42" y="-162" type="curve" smooth="yes"/>
      <point x="42" y="-213"/>
      <point x="71" y="-256"/>
      <point x="122" y="-256" type="curve" smooth="yes"/>
      <point x="174" y="-256"/>
      <point x="203" y="-213"/>
    </contour>
    <contour>
      <point x="0" y="0" type="move" name="_btm"/>
    </contour>
  </outline>
</glyph>
<glyph name="commaaccentcomb" format="1">
  <advance width="0"/>
  <unicode hex="0326"/>
  <outline>
    <contour>
      <point x="-13" y="-345" type="curve" name="hr00"/>
      <point x="75" y="-314"/>
      <point x="95" y="-228"/>
      <point x="95" y="-185" type="curve" smooth="yes"/>
      <point x="95" y="-106"/>
      <point x="53" y="-73"/>
      <point x="0" y="-73" type="curve" smooth="yes"/>
      <point x="-48" y="-73"/>
      <point x="-81" y="-104"/>
      <point x="-81" y="-153" type="curve" smooth="yes"/>
      <point x="-81" y="-192"/>
      <point x="-55" y="-229"/>
      <point x="-5" y="-229" type="curve" smooth="yes"/>
      <point x="-1" y="-229"/>
      <point x="3" y="-228"/>
      <point x="7" y="-227" type="curve"/>
      <point x="8" y="-231"/>
      <point x="9" y="-235"/>
      <point x="9" y="-238" type="curve" smooth="yes"/>
      <point x="9" y="-270"/>
      <point x="-10" y="-291"/>
      <point x="-39" y="-307" type="curve"/>
      <point x="-39" y="-324"/>
      <point x="-26" y="-341"/>
    </contour>
    <contour>
      <point x="0" y="0" type="move" name="_btm"/>
    </contour>
  </outline>
</glyph>
<glyph name="cedillacomb" format="1">
  <advance width="0"/>
  <unicode hex="0327"/>
  <outline>
    <contour>
      <point x="-61" y="-151" type="line" name="hr00"/>
      <point x="-43" y="-146"/>
      <point x="-33" y="-145"/>
      <point x="-23" y="-145" type="curve" smooth="yes"/>
      <point x="11" y="-145"/>
      <point x="25" y="-174"/>
      <point x="25" y="-191" type="curve" smooth="yes"/>
      <point x="25" y="-209"/>
      <point x="9" y="-240"/>
      <point x="-30" y="-240" type="curve" smooth="yes"/>
      <point x="-64" y="-240"/>
      <point x="-97" y="-228"/>
      <point x="-128" y="-206" type="curve"/>
      <point x="-140" y="-217"/>
      <point x="-152" y="-238"/>
      <point x="-152" y="-258" type="curve"/>
      <point x="-131" y="-278"/>
      <point x="-81" y="-300"/>
      <point x="-13" y="-300" type="curve" smooth="yes"/>
      <point x="94" y="-300"/>
      <point x="150" y="-235"/>
      <point x="150" y="-177" type="curve" smooth="yes"/>
      <point x="150" y="-133"/>
      <point x="115" y="-84"/>
      <point x="47" y="-84" type="curve" smooth="yes"/>
      <point x="26" y="-84"/>
      <point x="7" y="-87"/>
      <point x="-8" y="-92" type="curve"/>
      <point x="36" y="12" type="line"/>
      <point x="-47" y="12" type="line"/>
      <point x="-98" y="-130" type="line"/>
    </contour>
    <contour>
      <point x="0" y="0" type="move" name="_btm"/>
    </contour>
  </outline>
</glyph>
<glyph name="macronbelowcomb" format="1">
  <advance width="0"/>
  <unicode hex="0331"/>
  <outline>
    <component base="macroncomb" yOffset="-792"/>
    <contour>
      <point x="0" y="0" type="move" name="_btm"/>
    </contour>
  </outline>
</glyph>
<glyph name="strokelongcomb" format="1">
  <advance width="0"/>
  <unicode hex="0336"/>
  <outline>
    <contour>
      <point x="-594" y="243" type="line"/>
      <point x="-70" y="243" type="line"/>
      <point x="-70" y="304" type="line"/>
      <point x="-594" y="304" type="line"/>
    </contour>
  </outline>
</glyph>
<glyph name="Omega" format="1">
  <advance width="896"/>
  <unicode hex="03A9"/>
  <outline>
    <contour>
      <point x="798" y="203" type="curve"/>
      <point x="750" y="203" type="line"/>
      <point x="750" y="129"/>
      <point x="722" y="85"/>
      <point x="618" y="85" type="curve" smooth="yes"/>
      <point x="608" y="85"/>
      <point x="597" y="85"/>
      <point x="585" y="86" type="curve"/>
      <point x="585" y="96"/>
      <point x="601" y="112"/>
      <point x="625" y="135" type="curve" smooth="yes"/>
      <point x="679" y="187"/>
      <point x="767" y="274"/>
      <point x="767" y="399" type="curve" smooth="yes"/>
      <point x="767" y="592"/>
      <point x="652" y="706"/>
      <point x="448" y="706" type="curve" smooth="yes"/>
      <point x="244" y="706"/>
      <point x="129" y="592"/>
      <point x="129" y="399" type="curve" smooth="yes"/>
      <point x="129" y="273"/>
      <point x="216" y="189"/>
      <point x="270" y="137" type="curve" smooth="yes"/>
      <point x="294" y="114"/>
      <point x="311" y="97"/>
      <point x="311" y="86" type="curve"/>
      <point x="296" y="85"/>
      <point x="281" y="84"/>
      <point x="268" y="84" type="curve" smooth="yes"/>
      <point x="147" y="84"/>
      <point x="146" y="130"/>
      <point x="146" y="203" type="curve"/>
      <point x="98" y="203" type="line"/>
      <point x="76" y="185"/>
      <point x="70" y="151"/>
      <point x="70" y="109" type="curve" smooth="yes"/>
      <point x="70" y="53"/>
      <point x="92" y="0"/>
      <point x="176" y="0" type="curve" name="hr01" smooth="yes"/>
      <point x="382" y="0" type="line"/>
      <point x="410" y="73" type="line"/>
      <point x="386" y="100"/>
      <point x="317" y="188"/>
      <point x="317" y="395" type="curve" smooth="yes"/>
      <point x="317" y="559"/>
      <point x="357" y="632"/>
      <point x="450" y="632" type="curve" smooth="yes"/>
      <point x="512" y="632"/>
      <point x="579" y="598"/>
      <point x="579" y="395" type="curve" smooth="yes"/>
      <point x="579" y="188"/>
      <point x="509" y="100"/>
      <point x="486" y="73" type="curve"/>
      <point x="514" y="0" type="line"/>
      <point x="720" y="0" type="line" name="hr01" smooth="yes"/>
      <point x="804" y="0"/>
      <point x="826" y="53"/>
      <point x="826" y="109" type="curve" smooth="yes"/>
      <point x="826" y="151"/>
      <point x="820" y="185"/>
    </contour>
  </outline>
</glyph>
<glyph name="mu" format="1">
  <advance width="595"/>
  <unicode hex="03BC"/>
  <outline>
    <contour>
      <point x="350" y="88" type="line" name="hr01" smooth="yes"/>
      <point x="350" y="23"/>
      <point x="396" y="-13"/>
      <point x="456" y="-13" type="curve" smooth="yes"/>
      <point x="492" y="-13"/>
      <point x="559" y="0"/>
      <point x="580" y="54" type="curve"/>
      <point x="555" y="97" type="line" name="hr02"/>
      <point x="546" y="83"/>
      <point x="538" y="80"/>
      <point x="532" y="80" type="curve" smooth="yes"/>
      <point x="517" y="80"/>
      <point x="512" y="92"/>
      <point x="512" y="115" type="curve" smooth="yes"/>
      <point x="512" y="502" type="line" smooth="yes"/>
      <point x="512" y="533"/>
      <point x="471" y="548"/>
      <point x="430" y="548" type="curve" smooth="yes"/>
      <point x="390" y="548"/>
      <point x="350" y="533"/>
      <point x="350" y="504" type="curve" smooth="yes"/>
    </contour>
    <contour>
      <point x="149" y="45" type="line"/>
      <point x="170" y="19"/>
      <point x="203" y="-13"/>
      <point x="264" y="-13" type="curve" smooth="yes"/>
      <point x="309" y="-13"/>
      <point x="359" y="4"/>
      <point x="376" y="79" type="curve"/>
      <point x="350" y="143" type="line"/>
      <point x="339" y="104"/>
      <point x="318" y="82"/>
      <point x="283" y="82" type="curve" smooth="yes"/>
      <point x="251" y="82"/>
      <point x="219" y="104"/>
      <point x="219" y="143" type="curve" smooth="yes"/>
      <point x="219" y="502" type="line" smooth="yes"/>
      <point x="219" y="533"/>
      <point x="178" y="548"/>
      <point x="138" y="548" type="curve" smooth="yes"/>
      <point x="97" y="548"/>
      <point x="57" y="533"/>
      <point x="57" y="504" type="curve" smooth="yes"/>
      <point x="57" y="154" type="line"/>
      <point x="54" y="-192" type="line"/>
      <point x="109" y="-192" type="line" smooth="yes"/>
      <point x="149" y="-192"/>
      <point x="173" y="-169"/>
      <point x="173" y="-132" type="curve" smooth="yes"/>
      <point x="173" y="-128"/>
      <point x="173" y="-125"/>
      <point x="173" y="-120" type="curve" smooth="yes"/>
      <point x="159" y="109" type="line"/>
    </contour>
  </outline>
</glyph>
<glyph name="pi" format="1">
  <advance width="700"/>
  <unicode hex="03C0"/>
  <outline>
    <contour>
      <point x="588" y="77" type="curve" smooth="yes"/>
      <point x="573" y="77"/>
      <point x="567" y="89"/>
      <point x="564" y="112" type="curve" smooth="yes"/>
      <point x="530" y="418" type="line"/>
      <point x="641" y="418" type="line"/>
      <point x="666" y="443"/>
      <point x="668" y="494"/>
      <point x="668" y="530" type="curve"/>
      <point x="57" y="530" type="line"/>
      <point x="57" y="418" type="line"/>
      <point x="172" y="418" type="line"/>
      <point x="172" y="307" type="line"/>
      <point x="172" y="195"/>
      <point x="169" y="137"/>
      <point x="155" y="100" type="curve"/>
      <point x="144" y="126"/>
      <point x="121" y="139"/>
      <point x="95" y="139" type="curve" smooth="yes"/>
      <point x="54" y="139"/>
      <point x="32" y="112"/>
      <point x="32" y="74" type="curve" smooth="yes"/>
      <point x="32" y="28"/>
      <point x="68" y="-13"/>
      <point x="142" y="-13" type="curve" smooth="yes"/>
      <point x="274" y="-13"/>
      <point x="299" y="92"/>
      <point x="299" y="218" type="curve"/>
      <point x="299" y="418" type="line"/>
      <point x="407" y="418" type="line"/>
      <point x="415" y="85" type="line" name="hr01" smooth="yes"/>
      <point x="417" y="20"/>
      <point x="452" y="-13"/>
      <point x="512" y="-13" type="curve" smooth="yes"/>
      <point x="577" y="-13"/>
      <point x="637" y="8"/>
      <point x="652" y="62" type="curve"/>
      <point x="623" y="105" type="line" name="hr02"/>
      <point x="610" y="83"/>
      <point x="594" y="77"/>
    </contour>
  </outline>
</glyph>
<glyph name="quoteright" format="1">
  <advance width="283"/>
  <unicode hex="2019"/>
  <outline>
    <contour>
      <point x="90" y="425" type="curve" name="hr00"/>
      <point x="165" y="449"/>
      <point x="242" y="542"/>
      <point x="242" y="668" type="curve" smooth="yes"/>
      <point x="242" y="763"/>
      <point x="198" y="805"/>
      <point x="140" y="805" type="curve" smooth="yes"/>
      <point x="90" y="805"/>
      <point x="54" y="768"/>
      <point x="54" y="714" type="curve" smooth="yes"/>
      <point x="54" y="668"/>
      <point x="82" y="625"/>
      <point x="135" y="625" type="curve" smooth="yes"/>
      <point x="139" y="625"/>
      <point x="144" y="626"/>
      <point x="149" y="626" type="curve"/>
      <point x="149" y="621"/>
      <point x="150" y="617"/>
      <point x="150" y="613" type="curve" smooth="yes"/>
      <point x="150" y="561"/>
      <point x="115" y="505"/>
      <point x="61" y="471" type="curve"/>
      <point x="61" y="451"/>
      <point x="75" y="430"/>
    </contour>
  </outline>
</glyph>
<glyph name="daggerdbl" format="1">
  <advance width="424"/>
  <unicode hex="2021"/>
  <outline>
    <contour>
      <point x="252" y="228" type="line"/>
      <point x="252" y="439" type="line"/>
      <point x="389" y="439" type="line"/>
      <point x="393" y="449"/>
      <point x="395" y="466"/>
      <point x="395" y="483" type="curve" smooth="yes"/>
      <point x="395" y="501"/>
      <point x="393" y="519"/>
      <point x="389" y="530" type="curve"/>
      <point x="258" y="530" type="line"/>
      <point x="279" y="743" type="line"/>
      <point x="279" y="787"/>
      <point x="259" y="806"/>
      <point x="220" y="806" type="curve" smooth="yes"/>
      <point x="205" y="806" type="line" smooth="yes"/>
      <point x="162" y="806"/>
      <point x="143" y="788"/>
      <point x="143" y="744" type="curve"/>
      <point x="166" y="530" type="line"/>
      <point x="36" y="530" type="line" name="hr00"/>
      <point x="31" y="520"/>
      <point x="29" y="502"/>
      <point x="29" y="484" type="curve" smooth="yes"/>
      <point x="29" y="468"/>
      <point x="31" y="451"/>
      <point x="35" y="439" type="curve"/>
      <point x="173" y="439" type="line"/>
      <point x="173" y="228" type="line"/>
      <point x="36" y="228" type="line"/>
      <point x="31" y="218"/>
      <point x="29" y="201"/>
      <point x="29" y="183" type="curve" smooth="yes"/>
      <point x="29" y="166"/>
      <point x="31" y="149"/>
      <point x="35" y="138" type="curve"/>
      <point x="167" y="138" type="line"/>
      <point x="152" y="-101" type="line"/>
      <point x="154" y="-139"/>
      <point x="165" y="-155"/>
      <point x="205" y="-155" type="curve" smooth="yes"/>
      <point x="220" y="-155" type="line" smooth="yes"/>
      <point x="257" y="-155"/>
      <point x="268" y="-139"/>
      <point x="270" y="-100" type="curve"/>
      <point x="257" y="138" type="line"/>
      <point x="389" y="138" type="line"/>
      <point x="393" y="147"/>
      <point x="395" y="164"/>
      <point x="395" y="181" type="curve" smooth="yes"/>
      <point x="395" y="199"/>
      <point x="393" y="217"/>
      <point x="389" y="228" type="curve"/>
    </contour>
  </outline>
</glyph>
<glyph name="bullet" format="1">
  <advance width="388"/>
  <unicode hex="2022"/>
  <outline>
    <contour>
      <point x="351" y="333" type="curve" name="hr00" smooth="yes"/>
      <point x="351" y="426"/>
      <point x="289" y="487"/>
      <point x="194" y="487" type="curve" smooth="yes"/>
      <point x="98" y="487"/>
      <point x="37" y="426"/>
      <point x="37" y="333" type="curve" smooth="yes"/>
      <point x="37" y="240"/>
      <point x="98" y="178"/>
      <point x="194" y="178" type="curve" smooth="yes"/>
      <point x="289" y="178"/>
      <point x="351" y="240"/>
    </contour>
  </outline>
</glyph>
<glyph name="fraction" format="1">
  <advance width="99"/>
  <unicode hex="2044"/>
  <outline>
    <contour>
      <point x="-200" y="-11" type="line"/>
      <point x="-135" y="-10" type="line"/>
      <point x="299" y="731" type="line"/>
      <point x="233" y="731" type="line"/>
    </contour>
  </outline>
</glyph>
<glyph name="commercialMinusSign" format="1">
  <advance width="492"/>
  <unicode hex="2052"/>
  <outline>
    <contour>
      <point x="121" y="0" type="line"/>
      <point x="187" y="0" type="line"/>
      <point x="367" y="750" type="line"/>
      <point x="301" y="750" type="line"/>
    </contour>
    <contour>
      <point x="380" y="53" type="curve" smooth="yes"/>
      <point x="414" y="53"/>
      <point x="442" y="69"/>
      <point x="442" y="117" type="curve" smooth="yes"/>
      <point x="442" y="163"/>
      <point x="414" y="182"/>
      <point x="380" y="182" type="curve" smooth="yes"/>
      <point x="348" y="182"/>
      <point x="320" y="163"/>
      <point x="320" y="117" type="curve" smooth="yes"/>
      <point x="320" y="69"/>
      <point x="347" y="53"/>
    </contour>
    <contour>
      <point x="110" y="561" type="curve" smooth="yes"/>
      <point x="145" y="561"/>
      <point x="172" y="577"/>
      <point x="172" y="626" type="curve" smooth="yes"/>
      <point x="172" y="671"/>
      <point x="144" y="691"/>
      <point x="110" y="691" type="curve" smooth="yes"/>
      <point x="78" y="691"/>
      <point x="50" y="671"/>
      <point x="50" y="626" type="curve" smooth="yes"/>
      <point x="50" y="577"/>
      <point x="78" y="561"/>
    </contour>
  </outline>
</glyph>
<glyph name="lira" format="1">
  <advance width="572"/>
  <unicode hex="20A4"/>
  <outline>
    <contour>
      <point x="80" y="5" type="line" name="hr00"/>
      <point x="117" y="20"/>
      <point x="154" y="34"/>
      <point x="203" y="34" type="curve" smooth="yes"/>
      <point x="274" y="34"/>
      <point x="336" y="6"/>
      <point x="411" y="6" type="curve" smooth="yes"/>
      <point x="536" y="6"/>
      <point x="583" y="82"/>
      <point x="583" y="147" type="curve" smooth="yes"/>
      <point x="583" y="184"/>
      <point x="567" y="221"/>
      <point x="546" y="240" type="curve"/>
      <point x="518" y="240" type="line"/>
      <point x="505" y="170"/>
      <point x="449" y="155"/>
      <point x="383" y="155" type="curve" smooth="yes"/>
      <point x="337" y="155" type="line" smooth="yes"/>
      <point x="283" y="155"/>
      <point x="222" y="142"/>
      <point x="170" y="115" type="curve"/>
      <point x="117" y="90" type="line"/>
    </contour>
    <contour>
      <point x="393" y="260" type="line"/>
      <point x="411" y="278"/>
      <point x="412" y="301"/>
      <point x="412" y="328" type="curve"/>
      <point x="57" y="328" type="line"/>
      <point x="57" y="260" type="line"/>
    </contour>
    <contour>
      <point x="445" y="621" type="curve"/>
      <point x="420" y="610"/>
      <point x="399" y="585"/>
      <point x="399" y="550" type="curve" smooth="yes"/>
      <point x="399" y="504"/>
      <point x="437" y="475"/>
      <point x="482" y="475" type="curve" smooth="yes"/>
      <point x="538" y="475"/>
      <point x="573" y="520"/>
      <point x="573" y="573" type="curve" smooth="yes"/>
      <point x="573" y="647"/>
      <point x="507" y="728"/>
      <point x="337" y="728" type="curve" smooth="yes"/>
      <point x="162" y="728"/>
      <point x="82" y="643"/>
      <point x="82" y="532" type="curve" smooth="yes"/>
      <point x="82" y="435"/>
      <point x="142" y="362"/>
      <point x="142" y="256" type="curve" smooth="yes"/>
      <point x="142" y="180"/>
      <point x="111" y="109"/>
      <point x="51" y="54" type="curve"/>
      <point x="51" y="31"/>
      <point x="66" y="20"/>
      <point x="80" y="5" type="curve"/>
      <point x="146" y="94" type="line"/>
      <point x="235" y="142"/>
      <point x="280" y="236"/>
      <point x="280" y="330" type="curve" smooth="yes"/>
      <point x="280" y="398"/>
      <point x="257" y="487"/>
      <point x="257" y="548" type="curve" smooth="yes"/>
      <point x="257" y="624"/>
      <point x="295" y="657"/>
      <point x="356" y="657" type="curve" smooth="yes"/>
      <point x="392" y="657"/>
      <point x="426" y="646"/>
    </contour>
    <contour>
      <point x="393" y="387" type="line"/>
      <point x="411" y="405"/>
      <point x="412" y="429"/>
      <point x="412" y="455" type="curve"/>
      <point x="57" y="455" type="line"/>
      <point x="57" y="387" type="line"/>
    </contour>
  </outline>
</glyph>
<glyph name="peseta" format="1">
  <advance width="672"/>
  <unicode hex="20A7"/>
  <outline>
    <contour>
      <point x="306" y="705" type="curve" name="hr00" smooth="yes"/>
      <point x="250" y="705"/>
      <point x="179" y="698"/>
      <point x="48" y="698" type="curve"/>
      <point x="35" y="681"/>
      <point x="26" y="658"/>
      <point x="26" y="635" type="curve"/>
      <point x="71" y="635"/>
      <point x="89" y="621"/>
      <point x="89" y="584" type="curve" smooth="yes"/>
      <point x="89" y="114" type="line" smooth="yes"/>
      <point x="89" y="77"/>
      <point x="71" y="64"/>
      <point x="26" y="64" type="curve"/>
      <point x="26" y="40"/>
      <point x="35" y="16"/>
      <point x="49" y="0" type="curve"/>
      <point x="340" y="0" type="line"/>
      <point x="354" y="16"/>
      <point x="362" y="40"/>
      <point x="362" y="64" type="curve"/>
      <point x="273" y="64"/>
      <point x="253" y="81"/>
      <point x="253" y="159" type="curve" smooth="yes"/>
      <point x="253" y="207" type="line"/>
      <point x="295" y="207" type="line" smooth="yes"/>
      <point x="496" y="207"/>
      <point x="592" y="328"/>
      <point x="592" y="459" type="curve" smooth="yes"/>
      <point x="592" y="605"/>
      <point x="518" y="705"/>
    </contour>
    <contour>
      <point x="418" y="462" type="curve" smooth="yes"/>
      <point x="418" y="394"/>
      <point x="403" y="287"/>
      <point x="279" y="287" type="curve" smooth="yes"/>
      <point x="270" y="287"/>
      <point x="262" y="287"/>
      <point x="253" y="289" type="curve"/>
      <point x="253" y="622" type="line"/>
      <point x="264" y="625"/>
      <point x="276" y="626"/>
      <point x="290" y="626" type="curve" smooth="yes"/>
      <point x="389" y="626"/>
      <point x="418" y="538"/>
    </contour>
    <contour>
      <point x="633" y="428" type="line"/>
      <point x="651" y="446"/>
      <point x="652" y="470"/>
      <point x="652" y="496" type="curve"/>
      <point x="37" y="496" type="line"/>
      <point x="37" y="428" type="line"/>
    </contour>
    <contour>
      <point x="305" y="0" type="move" name="btm"/>
    </contour>
    <contour>
      <point x="319" y="963" type="move" name="top"/>
    </contour>
  </outline>
</glyph>
<glyph name="dong" format="1">
  <advance width="568"/>
  <unicode hex="20AB"/>
  <outline>
    <contour>
      <point x="232" y="136" type="curve" smooth="yes"/>
      <point x="286" y="136"/>
      <point x="327" y="146"/>
      <point x="355" y="183" type="curve"/>
      <point x="371" y="151"/>
      <point x="416" y="136"/>
      <point x="453" y="136" type="curve" smooth="yes"/>
      <point x="493" y="136"/>
      <point x="539" y="149"/>
      <point x="558" y="174" type="curve"/>
      <point x="557" y="202" type="line"/>
      <point x="526" y="208"/>
      <point x="509" y="228"/>
      <point x="509" y="260" type="curve" smooth="yes"/>
      <point x="509" y="728" type="line"/>
      <point x="555" y="728" type="line"/>
      <point x="573" y="746"/>
      <point x="574" y="770"/>
      <point x="574" y="796" type="curve"/>
      <point x="509" y="796" type="line"/>
      <point x="509" y="888" type="line" smooth="yes"/>
      <point x="509" y="921"/>
      <point x="496" y="934"/>
      <point x="465" y="934" type="curve" smooth="yes"/>
      <point x="422" y="934"/>
      <point x="330" y="912"/>
      <point x="281" y="885" type="curve"/>
      <point x="281" y="844" type="line"/>
      <point x="335" y="844"/>
      <point x="348" y="825"/>
      <point x="348" y="796" type="curve"/>
      <point x="251" y="796" type="line"/>
      <point x="251" y="728" type="line"/>
      <point x="348" y="728" type="line"/>
      <point x="348" y="725" type="line"/>
      <point x="351" y="665" type="line"/>
      <point x="329" y="667"/>
      <point x="307" y="669"/>
      <point x="290" y="669" type="curve" smooth="yes"/>
      <point x="151" y="669"/>
      <point x="30" y="590"/>
      <point x="30" y="388" type="curve" smooth="yes"/>
      <point x="30" y="218"/>
      <point x="123" y="136"/>
    </contour>
    <contour>
      <point x="292" y="598" type="curve" smooth="yes"/>
      <point x="316" y="598"/>
      <point x="334" y="588"/>
      <point x="348" y="569" type="curve"/>
      <point x="348" y="239" type="line"/>
      <point x="338" y="228"/>
      <point x="322" y="221"/>
      <point x="301" y="221" type="curve" smooth="yes"/>
      <point x="241" y="221"/>
      <point x="195" y="285"/>
      <point x="195" y="423" type="curve" smooth="yes"/>
      <point x="195" y="549"/>
      <point x="238" y="598"/>
    </contour>
    <contour>
      <point x="20" y="0" type="line"/>
      <point x="544" y="0" type="line"/>
      <point x="562" y="18"/>
      <point x="563" y="42"/>
      <point x="563" y="68" type="curve"/>
      <point x="20" y="68" type="line"/>
    </contour>
    <contour>
      <point x="569" y="712" type="move" name="car"/>
    </contour>
  </outline>
</glyph>
<glyph name="kip" format="1">
  <advance width="710"/>
  <unicode hex="20AD"/>
  <outline>
    <contour>
      <point x="546" y="233" type="curve" smooth="yes"/>
      <point x="527" y="259"/>
      <point x="503" y="292"/>
      <point x="469" y="319" type="curve"/>
      <point x="633" y="319" type="line"/>
      <point x="651" y="337"/>
      <point x="652" y="361"/>
      <point x="652" y="387" type="curve"/>
      <point x="430" y="387" type="line"/>
      <point x="580" y="587" type="line" smooth="yes"/>
      <point x="594" y="606"/>
      <point x="623" y="635"/>
      <point x="680" y="635" type="curve"/>
      <point x="680" y="657"/>
      <point x="671" y="681"/>
      <point x="658" y="698" type="curve"/>
      <point x="425" y="698" type="line"/>
      <point x="411" y="681"/>
      <point x="402" y="657"/>
      <point x="402" y="635" type="curve"/>
      <point x="428" y="635"/>
      <point x="460" y="624"/>
      <point x="460" y="607" type="curve" smooth="yes"/>
      <point x="460" y="596"/>
      <point x="455" y="583"/>
      <point x="447" y="571" type="curve" smooth="yes"/>
      <point x="324" y="387" type="line"/>
      <point x="279" y="387" type="line"/>
      <point x="279" y="584" type="line" smooth="yes"/>
      <point x="279" y="621"/>
      <point x="295" y="635"/>
      <point x="339" y="635" type="curve"/>
      <point x="339" y="658"/>
      <point x="330" y="682"/>
      <point x="317" y="698" type="curve"/>
      <point x="72" y="698" type="line"/>
      <point x="58" y="682"/>
      <point x="50" y="658"/>
      <point x="50" y="635" type="curve" name="hr03"/>
      <point x="94" y="635"/>
      <point x="110" y="621"/>
      <point x="110" y="584" type="curve" smooth="yes"/>
      <point x="110" y="387" type="line"/>
      <point x="30" y="387" type="line"/>
      <point x="30" y="319" type="line"/>
      <point x="110" y="319" type="line"/>
      <point x="110" y="114" type="line" smooth="yes"/>
      <point x="110" y="77"/>
      <point x="94" y="64"/>
      <point x="50" y="64" type="curve"/>
      <point x="50" y="40"/>
      <point x="58" y="16"/>
      <point x="72" y="0" type="curve" name="hr04"/>
      <point x="317" y="0" type="line"/>
      <point x="330" y="16"/>
      <point x="339" y="40"/>
      <point x="339" y="64" type="curve"/>
      <point x="295" y="64"/>
      <point x="279" y="77"/>
      <point x="279" y="114" type="curve" smooth="yes"/>
      <point x="279" y="319" type="line"/>
      <point x="303" y="319" type="line"/>
      <point x="348" y="273"/>
      <point x="393" y="182"/>
      <point x="411" y="132" type="curve" smooth="yes"/>
      <point x="449" y="28"/>
      <point x="469" y="-14"/>
      <point x="572" y="-14" type="curve" smooth="yes"/>
      <point x="625" y="-14"/>
      <point x="652" y="3"/>
      <point x="673" y="31" type="curve"/>
      <point x="673" y="71" type="line"/>
      <point x="612" y="78"/>
      <point x="611" y="145"/>
    </contour>
    <contour>
      <point x="364" y="-5" type="move" name="btm"/>
    </contour>
    <contour>
      <point x="366" y="963" type="move" name="top"/>
    </contour>
  </outline>
</glyph>
<glyph name="liraTurkish" format="1">
  <advance width="618"/>
  <unicode hex="20BA"/>
  <outline>
    <contour>
      <point x="572" y="266" type="curve"/>
      <point x="448" y="302" type="line"/>
      <point x="448" y="141"/>
      <point x="330" y="85"/>
      <point x="261" y="85" type="curve"/>
      <point x="261" y="272" type="line"/>
      <point x="374" y="319" type="line"/>
      <point x="374" y="402" type="line"/>
      <point x="261" y="355" type="line"/>
      <point x="261" y="447" type="line"/>
      <point x="385" y="499" type="line"/>
      <point x="385" y="587" type="line"/>
      <point x="261" y="534" type="line"/>
      <point x="261" y="584" type="line" smooth="yes"/>
      <point x="261" y="621"/>
      <point x="283" y="635"/>
      <point x="327" y="635" type="curve"/>
      <point x="327" y="658"/>
      <point x="320" y="682"/>
      <point x="305" y="698" type="curve"/>
      <point x="58" y="698" type="line"/>
      <point x="43" y="682"/>
      <point x="35" y="658"/>
      <point x="35" y="635" type="curve"/>
      <point x="80" y="635"/>
      <point x="97" y="621"/>
      <point x="97" y="584" type="curve" smooth="yes"/>
      <point x="97" y="468" type="line"/>
      <point x="21" y="436" type="line"/>
      <point x="21" y="349" type="line"/>
      <point x="97" y="381" type="line"/>
      <point x="97" y="290" type="line"/>
      <point x="26" y="261" type="line"/>
      <point x="26" y="177" type="line"/>
      <point x="97" y="207" type="line"/>
      <point x="97" y="0" type="line"/>
      <point x="250" y="0" type="line" name="hr01" smooth="yes"/>
      <point x="448" y="0"/>
      <point x="588" y="73"/>
      <point x="588" y="186" type="curve" smooth="yes"/>
      <point x="588" y="226"/>
      <point x="586" y="242"/>
    </contour>
    <contour>
      <point x="418" y="712" type="move" name="car"/>
    </contour>
    <contour>
      <point x="176" y="963" type="move" name="top"/>
    </contour>
  </outline>
</glyph>
<glyph name="ruble" format="1">
  <advance width="637"/>
  <unicode hex="20BD"/>
  <outline>
    <contour>
      <point x="326" y="705" type="curve" name="hr00" smooth="yes"/>
      <point x="270" y="705"/>
      <point x="199" y="698"/>
      <point x="68" y="698" type="curve"/>
      <point x="55" y="681"/>
      <point x="46" y="658"/>
      <point x="46" y="635" type="curve"/>
      <point x="91" y="635"/>
      <point x="109" y="621"/>
      <point x="109" y="584" type="curve" smooth="yes"/>
      <point x="109" y="114" type="line" smooth="yes"/>
      <point x="109" y="77"/>
      <point x="91" y="64"/>
      <point x="46" y="64" type="curve"/>
      <point x="46" y="40"/>
      <point x="55" y="16"/>
      <point x="69" y="0" type="curve"/>
      <point x="360" y="0" type="line"/>
      <point x="374" y="16"/>
      <point x="382" y="40"/>
      <point x="382" y="64" type="curve"/>
      <point x="293" y="64"/>
      <point x="273" y="81"/>
      <point x="273" y="159" type="curve" smooth="yes"/>
      <point x="273" y="287" type="line"/>
      <point x="315" y="287" type="line" smooth="yes"/>
      <point x="516" y="287"/>
      <point x="612" y="368"/>
      <point x="612" y="499" type="curve" smooth="yes"/>
      <point x="612" y="645"/>
      <point x="538" y="705"/>
    </contour>
    <contour>
      <point x="438" y="502" type="curve" smooth="yes"/>
      <point x="438" y="434"/>
      <point x="423" y="367"/>
      <point x="299" y="367" type="curve" smooth="yes"/>
      <point x="290" y="367"/>
      <point x="282" y="367"/>
      <point x="273" y="369" type="curve"/>
      <point x="273" y="622" type="line"/>
      <point x="284" y="625"/>
      <point x="296" y="626"/>
      <point x="310" y="626" type="curve" smooth="yes"/>
      <point x="409" y="626"/>
      <point x="438" y="578"/>
    </contour>
    <contour>
      <point x="423" y="159" type="line"/>
      <point x="441" y="177"/>
      <point x="442" y="201"/>
      <point x="442" y="227" type="curve"/>
      <point x="20" y="227" type="line"/>
      <point x="20" y="159" type="line"/>
    </contour>
  </outline>
</glyph>
<glyph name="numero" format="1">
  <advance width="1424"/>
  <unicode hex="2116"/>
  <outline>
    <contour>
      <point x="284" y="485" type="line"/>
      <point x="559" y="47" type="line"/>
      <point x="585" y="11"/>
      <point x="597" y="0"/>
      <point x="670" y="-2" type="curve"/>
      <point x="697" y="-2" type="line"/>
      <point x="697" y="583" type="line" smooth="yes"/>
      <point x="697" y="620"/>
      <point x="715" y="634"/>
      <point x="760" y="634" type="curve"/>
      <point x="760" y="657"/>
      <point x="751" y="681"/>
      <point x="737" y="698" type="curve"/>
      <point x="539" y="698" type="line"/>
      <point x="523" y="681"/>
      <point x="515" y="657"/>
      <point x="515" y="634" type="curve"/>
      <point x="560" y="634"/>
      <point x="578" y="620"/>
      <point x="578" y="583" type="curve" smooth="yes"/>
      <point x="578" y="282" type="line"/>
      <point x="366" y="613" type="line"/>
      <point x="333" y="664"/>
      <point x="289" y="698"/>
      <point x="245" y="698" type="curve" smooth="yes"/>
      <point x="133" y="698" type="line"/>
      <point x="118" y="681"/>
      <point x="110" y="657"/>
      <point x="110" y="634" type="curve"/>
      <point x="155" y="634"/>
      <point x="173" y="620"/>
      <point x="173" y="583" type="curve" smooth="yes"/>
      <point x="173" y="124" type="line" smooth="yes"/>
      <point x="173" y="87"/>
      <point x="155" y="74"/>
      <point x="110" y="74" type="curve"/>
      <point x="110" y="50"/>
      <point x="118" y="27"/>
      <point x="133" y="11" type="curve"/>
      <point x="323" y="11" type="line"/>
      <point x="338" y="27"/>
      <point x="346" y="50"/>
      <point x="346" y="74" type="curve"/>
      <point x="301" y="74"/>
      <point x="284" y="87"/>
      <point x="284" y="124" type="curve" smooth="yes"/>
    </contour>
    <contour>
      <point x="1039" y="204" type="curve" smooth="yes"/>
      <point x="1180" y="204"/>
      <point x="1280" y="301"/>
      <point x="1280" y="465" type="curve" smooth="yes"/>
      <point x="1280" y="632"/>
      <point x="1185" y="712"/>
      <point x="1049" y="712" type="curve" smooth="yes"/>
      <point x="907" y="712"/>
      <point x="808" y="627"/>
      <point x="808" y="449" type="curve" smooth="yes"/>
      <point x="808" y="296"/>
      <point x="904" y="204"/>
    </contour>
    <contour>
      <point x="1047" y="276" type="curve" smooth="yes"/>
      <point x="1003" y="276"/>
      <point x="975" y="313"/>
      <point x="975" y="476" type="curve" name="hr00" smooth="yes"/>
      <point x="975" y="622"/>
      <point x="1000" y="641"/>
      <point x="1041" y="641" type="curve" smooth="yes"/>
      <point x="1085" y="641"/>
      <point x="1112" y="619"/>
      <point x="1112" y="441" type="curve" smooth="yes"/>
      <point x="1112" y="310"/>
      <point x="1087" y="276"/>
    </contour>
    <contour>
      <point x="1122" y="70" type="curve" name="hr00" smooth="yes"/>
      <point x="1122" y="120"/>
      <point x="1089" y="152"/>
      <point x="1037" y="152" type="curve" smooth="yes"/>
      <point x="987" y="152"/>
      <point x="954" y="120"/>
      <point x="954" y="70" type="curve" smooth="yes"/>
      <point x="954" y="20"/>
      <point x="987" y="-14"/>
      <point x="1037" y="-14" type="curve" smooth="yes"/>
      <point x="1089" y="-14"/>
      <point x="1122" y="20"/>
    </contour>
    <contour>
      <point x="1049" y="164" type="move" name="btm"/>
    </contour>
    <contour>
      <point x="1041" y="991" type="move" name="top"/>
    </contour>
  </outline>
</glyph>
<glyph name="leftArrow" format="1">
  <advance width="769"/>
  <unicode hex="2190"/>
  <outline>
    <contour>
      <point x="741" y="409" type="line"/>
      <point x="296" y="409" type="line"/>
      <point x="222" y="402" type="line"/>
      <point x="417" y="600" type="line"/>
      <point x="350" y="680" type="line"/>
      <point x="20" y="352" type="line"/>
      <point x="350" y="23" type="line"/>
      <point x="417" y="103" type="line"/>
      <point x="222" y="301" type="line"/>
      <point x="296" y="294" type="line"/>
      <point x="741" y="294" type="line"/>
    </contour>
  </outline>
</glyph>
<glyph name="southEastArrow" format="1">
  <advance width="660"/>
  <unicode hex="2198"/>
  <outline>
    <contour>
      <point x="30" y="555" type="line"/>
      <point x="345" y="241" type="line"/>
      <point x="402" y="193" type="line"/>
      <point x="124" y="193" type="line"/>
      <point x="115" y="86" type="line"/>
      <point x="580" y="86" type="line"/>
      <point x="580" y="552" type="line"/>
      <point x="473" y="543" type="line"/>
      <point x="473" y="265" type="line"/>
      <point x="426" y="322" type="line"/>
      <point x="111" y="637" type="line"/>
    </contour>
  </outline>
</glyph>
<glyph name="southWestArrow" format="1">
  <advance width="660"/>
  <unicode hex="2199"/>
  <outline>
    <contour>
      <point x="630" y="555" type="line"/>
      <point x="549" y="637" type="line"/>
      <point x="234" y="322" type="line"/>
      <point x="187" y="265" type="line"/>
      <point x="187" y="543" type="line"/>
      <point x="80" y="552" type="line"/>
      <point x="80" y="86" type="line"/>
      <point x="545" y="86" type="line"/>
      <point x="536" y="193" type="line"/>
      <point x="258" y="193" type="line"/>
      <point x="315" y="241" type="line"/>
    </contour>
  </outline>
</glyph>
<glyph name="partialdiff" format="1">
  <advance width="689"/>
  <unicode hex="2202"/>
  <outline>
    <contour>
      <point x="358" y="72" type="curve" smooth="yes"/>
      <point x="309" y="72"/>
      <point x="270" y="124"/>
      <point x="270" y="300" type="curve" smooth="yes"/>
      <point x="270" y="478"/>
      <point x="301" y="522"/>
      <point x="354" y="522" type="curve" smooth="yes"/>
      <point x="396" y="522"/>
      <point x="448" y="495"/>
      <point x="448" y="403" type="curve"/>
      <point x="480" y="456" type="line"/>
      <point x="480" y="542"/>
      <point x="415" y="603"/>
      <point x="320" y="603" type="curve" smooth="yes"/>
      <point x="193" y="603"/>
      <point x="70" y="494"/>
      <point x="70" y="292" type="curve" smooth="yes"/>
      <point x="70" y="110"/>
      <point x="186" y="-9"/>
      <point x="352" y="-9" type="curve" smooth="yes"/>
      <point x="522" y="-9"/>
      <point x="629" y="110"/>
      <point x="629" y="343" type="curve" smooth="yes"/>
      <point x="629" y="692"/>
      <point x="418" y="916"/>
      <point x="255" y="916" type="curve" smooth="yes"/>
      <point x="217" y="916"/>
      <point x="200" y="903"/>
      <point x="186" y="865" type="curve"/>
      <point x="403" y="765"/>
      <point x="448" y="579"/>
      <point x="448" y="403" type="curve" smooth="yes"/>
      <point x="448" y="124"/>
      <point x="421" y="72"/>
    </contour>
  </outline>
</glyph>
<glyph name="emptyset" format="1">
  <advance width="1164"/>
  <unicode hex="2205"/>
  <outline>
    <contour>
      <point x="317" y="0" type="line"/>
      <point x="973" y="838" type="line"/>
      <point x="852" y="838" type="line"/>
      <point x="196" y="0" type="line"/>
    </contour>
    <contour>
      <point x="589" y="48" type="curve" smooth="yes"/>
      <point x="795" y="48"/>
      <point x="954" y="210"/>
      <point x="954" y="421" type="curve" smooth="yes"/>
      <point x="954" y="631"/>
      <point x="795" y="793"/>
      <point x="589" y="793" type="curve" smooth="yes"/>
      <point x="384" y="793"/>
      <point x="223" y="631"/>
      <point x="223" y="421" type="curve" smooth="yes"/>
      <point x="223" y="210"/>
      <point x="386" y="48"/>
    </contour>
    <contour>
      <point x="589" y="160" type="curve" smooth="yes"/>
      <point x="443" y="160"/>
      <point x="343" y="280"/>
      <point x="343" y="421" type="curve" smooth="yes"/>
      <point x="343" y="562"/>
      <point x="443" y="683"/>
      <point x="589" y="683" type="curve" smooth="yes"/>
      <point x="735" y="683"/>
      <point x="836" y="562"/>
      <point x="836" y="421" type="curve" smooth="yes"/>
      <point x="836" y="280"/>
      <point x="735" y="160"/>
    </contour>
  </outline>
</glyph>
<glyph name="product" format="1">
  <advance width="755"/>
  <unicode hex="220F"/>
  <outline>
    <contour>
      <point x="676" y="3" type="curve" smooth="yes"/>
      <point x="676" y="584" type="line" smooth="yes"/>
      <point x="676" y="621"/>
      <point x="692" y="635"/>
      <point x="735" y="635" type="curve"/>
      <point x="735" y="659"/>
      <point x="727" y="682"/>
      <point x="713" y="698" type="curve"/>
      <point x="82" y="698" type="line"/>
      <point x="68" y="682"/>
      <point x="60" y="659"/>
      <point x="60" y="635" type="curve"/>
      <point x="104" y="635"/>
      <point x="120" y="621"/>
      <point x="120" y="584" type="curve" smooth="yes"/>
      <point x="120" y="3" type="line" smooth="yes"/>
      <point x="120" y="-34"/>
      <point x="104" y="-48"/>
      <point x="60" y="-48" type="curve"/>
      <point x="60" y="-71"/>
      <point x="68" y="-95"/>
      <point x="82" y="-111" type="curve"/>
      <point x="323" y="-111" type="line"/>
      <point x="336" y="-95"/>
      <point x="345" y="-71"/>
      <point x="345" y="-48" type="curve"/>
      <point x="301" y="-48"/>
      <point x="285" y="-34"/>
      <point x="285" y="3" type="curve" smooth="yes"/>
      <point x="285" y="614" type="line"/>
      <point x="511" y="614" type="line"/>
      <point x="511" y="3" type="line" smooth="yes"/>
      <point x="511" y="-34"/>
      <point x="494" y="-48"/>
      <point x="451" y="-48" type="curve"/>
      <point x="451" y="-71"/>
      <point x="459" y="-95"/>
      <point x="473" y="-111" type="curve"/>
      <point x="713" y="-111" type="line"/>
      <point x="727" y="-95"/>
      <point x="735" y="-71"/>
      <point x="735" y="-48" type="curve"/>
      <point x="692" y="-48"/>
      <point x="676" y="-34"/>
    </contour>
  </outline>
</glyph>
<glyph name="summation" format="1">
  <advance width="686"/>
  <unicode hex="2211"/>
  <outline>
    <contour>
      <point x="554" y="127" type="line"/>
      <point x="535" y="71"/>
      <point x="487" y="-33"/>
      <point x="419" y="-33" type="curve" smooth="yes"/>
      <point x="266" y="-33" type="line" name="hr00"/>
      <point x="400" y="288" type="line"/>
      <point x="400" y="308" type="line"/>
      <point x="236" y="619" type="line"/>
      <point x="361" y="619" type="line" smooth="yes"/>
      <point x="449" y="619"/>
      <point x="501" y="572"/>
      <point x="515" y="473" type="curve"/>
      <point x="609" y="473" type="line"/>
      <point x="609" y="562"/>
      <point x="592" y="654"/>
      <point x="571" y="698" type="curve"/>
      <point x="87" y="698" type="line"/>
      <point x="62" y="661" type="line"/>
      <point x="244" y="304" type="line"/>
      <point x="61" y="-74" type="line"/>
      <point x="86" y="-112" type="line"/>
      <point x="527" y="-112" type="line"/>
      <point x="550" y="-123"/>
      <point x="578" y="-128"/>
      <point x="601" y="-128" type="curve"/>
      <point x="620" y="-92"/>
      <point x="644" y="88"/>
      <point x="644" y="127" type="curve"/>
    </contour>
  </outline>
</glyph>
<glyph name="divisionslash" format="1">
  <advance width="480"/>
  <unicode hex="2215"/>
  <outline>
    <contour>
      <point x="46" y="-175" type="line" name="hr00"/>
      <point x="66" y="-193"/>
      <point x="110" y="-207"/>
      <point x="135" y="-208" type="curve"/>
      <point x="434" y="716" type="line"/>
      <point x="414" y="735"/>
      <point x="371" y="749"/>
      <point x="346" y="750" type="curve"/>
    </contour>
  </outline>
</glyph>
<glyph name="radical" format="1">
  <advance width="792"/>
  <unicode hex="221A"/>
  <outline>
    <contour>
      <point x="380" y="146" type="line"/>
      <point x="274" y="512" type="line"/>
      <point x="58" y="512" type="line"/>
      <point x="58" y="452" type="line"/>
      <point x="93" y="452"/>
      <point x="130" y="436"/>
      <point x="144" y="401" type="curve" smooth="yes"/>
      <point x="283" y="45" type="line"/>
      <point x="380" y="45" type="line" smooth="yes"/>
      <point x="440" y="45"/>
      <point x="458" y="78"/>
      <point x="479" y="152" type="curve"/>
      <point x="673" y="856" type="line" smooth="yes"/>
      <point x="683" y="893"/>
      <point x="698" y="908"/>
      <point x="733" y="908" type="curve"/>
      <point x="733" y="930"/>
      <point x="728" y="953"/>
      <point x="713" y="968" type="curve"/>
      <point x="523" y="968" type="line"/>
      <point x="508" y="953"/>
      <point x="505" y="930"/>
      <point x="505" y="908" type="curve"/>
      <point x="537" y="908"/>
      <point x="554" y="895"/>
      <point x="554" y="866" type="curve" smooth="yes"/>
      <point x="554" y="859"/>
      <point x="553" y="850"/>
      <point x="551" y="841" type="curve" smooth="yes"/>
    </contour>
  </outline>
</glyph>
<glyph name="infinity" format="1">
  <advance width="813"/>
  <unicode hex="221E"/>
  <outline>
    <contour>
      <point x="608" y="588" type="curve" smooth="yes"/>
      <point x="546" y="588"/>
      <point x="458" y="553"/>
      <point x="420" y="451" type="curve"/>
      <point x="432" y="445" type="line"/>
      <point x="384" y="534"/>
      <point x="310" y="588"/>
      <point x="236" y="588" type="curve" smooth="yes"/>
      <point x="129" y="588"/>
      <point x="22" y="525"/>
      <point x="22" y="364" type="curve" smooth="yes"/>
      <point x="22" y="206"/>
      <point x="130" y="138"/>
      <point x="205" y="138" type="curve" smooth="yes"/>
      <point x="267" y="138"/>
      <point x="358" y="177"/>
      <point x="392" y="274" type="curve"/>
      <point x="384" y="275" type="line"/>
      <point x="428" y="193"/>
      <point x="503" y="137"/>
      <point x="577" y="137" type="curve" smooth="yes"/>
      <point x="684" y="137"/>
      <point x="791" y="200"/>
      <point x="791" y="361" type="curve" smooth="yes"/>
      <point x="791" y="519"/>
      <point x="683" y="588"/>
    </contour>
    <contour>
      <point x="207" y="252" type="curve" smooth="yes"/>
      <point x="157" y="252"/>
      <point x="92" y="271"/>
      <point x="92" y="357" type="curve" smooth="yes"/>
      <point x="92" y="414"/>
      <point x="148" y="448"/>
      <point x="196" y="448" type="curve" smooth="yes"/>
      <point x="237" y="448"/>
      <point x="304" y="431"/>
      <point x="350" y="337" type="curve"/>
      <point x="332" y="263"/>
      <point x="253" y="252"/>
    </contour>
    <contour>
      <point x="608" y="474" type="curve" smooth="yes"/>
      <point x="658" y="474"/>
      <point x="723" y="455"/>
      <point x="723" y="369" type="curve" smooth="yes"/>
      <point x="723" y="312"/>
      <point x="667" y="278"/>
      <point x="619" y="278" type="curve" smooth="yes"/>
      <point x="578" y="278"/>
      <point x="511" y="295"/>
      <point x="465" y="389" type="curve"/>
      <point x="483" y="463"/>
      <point x="562" y="474"/>
    </contour>
  </outline>
</glyph>
<glyph name="integral" format="1">
  <advance width="577"/>
  <unicode hex="222B"/>
  <outline>
    <contour>
      <point x="211" y="-221" type="curve" smooth="yes"/>
      <point x="336" y="-221"/>
      <point x="403" y="-135"/>
      <point x="403" y="5" type="curve" smooth="yes"/>
      <point x="403" y="22"/>
      <point x="401" y="39"/>
      <point x="400" y="56" type="curve" smooth="yes"/>
      <point x="391" y="203"/>
      <point x="318" y="351"/>
      <point x="297" y="500" type="curve" smooth="yes"/>
      <point x="294" y="521"/>
      <point x="294" y="540"/>
      <point x="294" y="557" type="curve" smooth="yes"/>
      <point x="294" y="639"/>
      <point x="321" y="681"/>
      <point x="373" y="681" type="curve" smooth="yes"/>
      <point x="410" y="681"/>
      <point x="440" y="665"/>
      <point x="464" y="619" type="curve"/>
      <point x="537" y="667" type="line"/>
      <point x="492" y="747"/>
      <point x="413" y="768"/>
      <point x="363" y="768" type="curve" smooth="yes"/>
      <point x="241" y="768"/>
      <point x="176" y="693"/>
      <point x="176" y="552" type="curve" smooth="yes"/>
      <point x="176" y="535"/>
      <point x="177" y="517"/>
      <point x="179" y="497" type="curve" smooth="yes"/>
      <point x="193" y="353"/>
      <point x="259" y="210"/>
      <point x="282" y="58" type="curve" smooth="yes"/>
      <point x="283" y="37"/>
      <point x="286" y="16"/>
      <point x="286" y="0" type="curve" smooth="yes"/>
      <point x="286" y="-86"/>
      <point x="257" y="-135"/>
      <point x="202" y="-135" type="curve" smooth="yes"/>
      <point x="166" y="-135"/>
      <point x="135" y="-114"/>
      <point x="112" y="-75" type="curve"/>
      <point x="40" y="-121" type="line"/>
      <point x="85" y="-201"/>
      <point x="164" y="-221"/>
    </contour>
  </outline>
</glyph>
<glyph name="leftanglebracket-math" format="1">
  <advance width="388"/>
  <unicode hex="27E8"/>
  <outline>
    <contour>
      <point x="368" y="926" type="line"/>
      <point x="296" y="957" type="line"/>
      <point x="50" y="384" type="line"/>
      <point x="296" y="-190" type="line"/>
      <point x="368" y="-159" type="line"/>
      <point x="135" y="384" type="line"/>
    </contour>
  </outline>
</glyph>
<glyph name="rightanglebracket-math" format="1">
  <advance width="388"/>
  <unicode hex="27E9"/>
  <outline>
    <contour>
      <point x="20" y="926" type="line"/>
      <point x="253" y="384" type="line"/>
      <point x="20" y="-159" type="line"/>
      <point x="92" y="-190" type="line"/>
      <point x="338" y="384" type="line"/>
      <point x="92" y="957" type="line"/>
    </contour>
  </outline>
</glyph>
<glyph name=".notdef" format="1">
  <advance width="1182"/>
  <outline>
    <contour>
      <point x="284" y="293" type="line"/>
      <point x="521" y="513" type="line"/>
      <point x="283" y="747" type="line"/>
      <point x="362" y="827" type="line"/>
      <point x="592" y="583" type="line"/>
      <point x="818" y="826" type="line"/>
      <point x="901" y="746" type="line"/>
      <point x="660" y="515" type="line"/>
      <point x="901" y="278" type="line"/>
      <point x="823" y="199" type="line"/>
      <point x="590" y="444" type="line"/>
      <point x="365" y="199" type="line"/>
    </contour>
    <contour>
      <point x="101" y="25" type="line"/>
      <point x="1081" y="25" type="line"/>
      <point x="1081" y="1005" type="line"/>
      <point x="101" y="1005" type="line"/>
    </contour>
  </outline>
</glyph>
